<?xml version="1.0" encoding="utf-8"?>
<!-- Generator: Adobe Illustrator 18.0.0, SVG Export Plug-In . SVG Version: 6.00 Build 0)  -->
<!DOCTYPE svg PUBLIC "-//W3C//DTD SVG 1.1//EN" "http://www.w3.org/Graphics/SVG/1.1/DTD/svg11.dtd">
<svg version="1.1" xmlns="http://www.w3.org/2000/svg" xmlns:xlink="http://www.w3.org/1999/xlink" x="0px" y="0px"
	 viewBox="0 0 1280 800" enable-background="new 0 0 1280 800" xml:space="preserve">
<g id="Layer_2" display="none">
	<g display="inline">
		
			<rect x="308" y="69.7" opacity="0.15" fill="#8B8B88" stroke="#C4A65C" stroke-width="2" stroke-miterlimit="10" width="644.7" height="641.3"/>
		<g>
			<path fill="none" stroke="#C4A65C" stroke-width="3" stroke-miterlimit="10" d="M628.4,739.8"/>
			<path fill="none" stroke="#C4A65C" stroke-width="3" stroke-miterlimit="10" d="M611.8,718.7"/>
			<path fill="none" stroke="#C4A65C" stroke-width="3" stroke-miterlimit="10" d="M627.8,740.6"/>
			<path fill="none" stroke="#C4A65C" stroke-width="3" stroke-miterlimit="10" d="M643.1,717.9"/>
		</g>
		
			<text transform="matrix(1 0 0 1 563.1803 13.6274)" fill="#765B24" font-family="'BentonSans-Medium'" font-size="16.8545" letter-spacing="1">high income</text>
		
			<text transform="matrix(1 0 0 1 1005.192 396.0698)" fill="#765B24" font-family="'BentonSans-Medium'" font-size="16.8545" letter-spacing="1">MASS</text>
		
			<text transform="matrix(1 0 0 1 191.4303 396.0698)" fill="#765B24" font-family="'BentonSans-Medium'" font-size="16.8545" letter-spacing="1">NICHE</text>
		
			<text transform="matrix(1 0 0 1 567.1154 778.0215)" fill="#765B24" font-family="'BentonSans-Medium'" font-size="16.8545" letter-spacing="1">low income</text>
		<polyline fill="none" stroke="#C4A65C" stroke-width="3" stroke-miterlimit="10" points="292.6,405.2 278.6,391.3 292.6,377.5 		
			"/>
		<polyline fill="none" stroke="#C4A65C" stroke-width="3" stroke-miterlimit="10" points="642,725.3 628.1,739.4 614.3,725.3 		"/>
		<text transform="matrix(1 0 0 1 708.7311 656.4834)"><tspan x="0" y="0" fill="#231F20" font-family="'BentonSans-Book'" font-size="15.9772" letter-spacing="1">median hhi: $77,500</tspan><tspan x="0" y="23.9" fill="#231F20" font-family="'BentonSans-Book'" font-size="15.9772" letter-spacing="1">monthly uv: 44.4M</tspan></text>
		<circle fill="#765B24" cx="805.3" cy="534.3" r="6.7"/>
		<text transform="matrix(1 0 0 1 692.401 478.0811)"><tspan x="0" y="0" fill="#231F20" font-family="'BentonSans-Book'" font-size="15.9772" letter-spacing="1">median hhi: $77,500</tspan><tspan x="0" y="23.9" fill="#231F20" font-family="'BentonSans-Book'" font-size="15.9772" letter-spacing="1">monthly uv: 156.4M</tspan></text>
		<circle fill="#765B24" cx="925.9" cy="430.4" r="6.7"/>
		<circle fill="#765B24" cx="344.3" cy="370.8" r="6.7"/>
		<g>
			<rect x="628.3" y="65.6" fill="#FFFFFF" width="344.6" height="325"/>
		</g>
		<text transform="matrix(1 0 0 1 356.5353 555.6104)"><tspan x="0" y="0" fill="#231F20" font-family="'BentonSans-Book'" font-size="15.9772" letter-spacing="1">median hhi: $62,500</tspan><tspan x="0" y="23.9" fill="#231F20" font-family="'BentonSans-Book'" font-size="15.9772" letter-spacing="1">monthly uv: 662K</tspan></text>
		<circle fill="#765B24" cx="565.4" cy="550.4" r="6.7"/>
		<g>
			<text transform="matrix(1 0 0 1 668.9869 257.3306)"><tspan x="0" y="0" fill="#231F20" font-family="'BentonSans-Book'" font-size="15.9772" letter-spacing="1">median hhi: $102,500</tspan><tspan x="0" y="23.9" fill="#231F20" font-family="'BentonSans-Book'" font-size="15.9772" letter-spacing="1">monthly uv: 2.8M</tspan></text>
			<g>
				<path fill="#231F20" d="M807.4,198.4c4.4,0,5.2,3.7,5.4,4.5h1.3v-6h-17.2v1.3c2.2,0,2.1,1.3,2.1,2.6v25.9c0,1.3,0.1,2.6-2.1,2.6
					v1.3h17.2v-6h-1.3c-0.2,0.8-1,4.5-5.4,4.5h-4.4V214h3.9c2,0,2.4,1.6,2.6,2.6h1.4v-6.9h-1.4c-0.2,1-0.6,2.6-2.6,2.6h-3.9v-13.8
					H807.4z"/>
				<path fill="#231F20" d="M701.3,229.2h-3.8v-15.5h3.8c4.5,0,5.2,5.5,5.2,8C706.5,224.1,705.8,229.2,701.3,229.2 M701.3,212.2
					h-3.8v-13.8h3.8c4.5,0,5.2,4.2,5.2,6.6C706.5,207.5,705.8,212.2,701.3,212.2 M706.1,213c2.9-0.8,4.8-3.9,4.8-7.9
					c0-3.7-1-8.1-9.6-8.1h-10v1.3c2.2,0,2.1,1.3,2.1,2.6v25.9c0,1.3,0.1,2.6-2.1,2.6v1.3h10c8.6,0,9.6-5.4,9.6-9
					C710.9,217.6,709,213.9,706.1,213"/>
				<path fill="#231F20" d="M788.6,196.9v1.3c2.2,0,2.3,1.2,2,2.6l-5.6,26.2l-5.4-26.2c-0.3-1.3-0.5-2.6,1.6-2.6v-1.3h-9v1.3
					c2,0,2.6,1.2,3,2.6l6.5,29.9h3.6h1l6.5-29.9c0.3-1.3,0.9-2.6,2.8-2.6v-1.3H788.6z"/>
				<path fill="#231F20" d="M679,229.6c-6,0-5.5-9.1-5.5-15.9c0-6.8-0.5-15.9,5.5-15.9c6,0,5.5,9.1,5.5,15.9
					C684.5,220.5,685,229.6,679,229.6 M679,196.2c-6.2,0-10,3.8-10,17.5c0,14.7,3.9,17.5,10,17.5c6,0,10-2.8,10-17.5
					C688.9,198.4,684.8,196.2,679,196.2"/>
				<path fill="#929497" d="M878.6,229.6c-6,0-5.5-9.1-5.5-15.9c0-6.8-0.5-15.9,5.5-15.9c6,0,5.5,9.1,5.5,15.9
					C884.1,220.5,884.6,229.6,878.6,229.6 M878.6,196.2c-6.2,0-10,3.8-10,17.5c0,14.7,3.9,17.5,10,17.5c6,0,10-2.8,10-17.5
					C888.5,198.4,884.4,196.2,878.6,196.2"/>
				<path fill="#231F20" d="M823.1,198.4h3.8c4.5,0,5.2,4.7,5.2,7.2c0,2.5-0.7,7.5-5.2,7.5h-3.8V198.4z M836.4,226.8l-5.5-12.6
					c2.8-0.6,5.6-4.1,5.6-8.4c0-3.7-1-8.9-9.6-8.9h-10v1.3c2.2,0,2.1,1.3,2.1,2.6v25.9c0,1.3,0.1,2.6-2.1,2.6v1.3h8.3v-1.3
					c-2.2,0-2.1-1.3-2.1-2.6v-12.2h3.6l6.9,16.1h5.8v-1.3C837.4,229.4,837,228,836.4,226.8"/>
				<path fill="#231F20" d="M742.3,198.4c4.4,0,5.2,3.7,5.4,4.5h1.3v-6h-17.2v1.3c2.2,0,2.1,1.3,2.1,2.6v25.9c0,1.3,0.1,2.6-2.1,2.6
					v1.3H749v-6h-1.3c-0.2,0.8-1,4.5-5.4,4.5H738V214h3.9c2,0,2.4,1.6,2.6,2.6h1.4v-6.9h-1.4c-0.2,1-0.6,2.6-2.6,2.6H738v-13.8
					H742.3z"/>
				<path fill="#231F20" d="M757.9,198.4h3.8c4.5,0,5.2,4.7,5.2,7.2c0,2.5-0.7,7.5-5.2,7.5h-3.8V198.4z M771.3,226.8l-5.5-12.6
					c2.8-0.6,5.6-4.1,5.6-8.4c0-3.7-1-8.9-9.6-8.9h-10v1.3c2.2,0,2.1,1.3,2.1,2.6v25.9c0,1.3,0.1,2.6-2.1,2.6v1.3h8.3v-1.3
					c-2.2,0-2.1-1.3-2.1-2.6v-12.2h3.6l6.9,16.1h5.8v-1.3C772.3,229.4,771.8,228,771.3,226.8"/>
				<path fill="#231F20" d="M730.1,222.7c0-10.8-12.7-12.2-12.7-20.6c0-2.9,2.5-4.2,4.7-4.2c3.5,0,4.9,2.9,4.9,5.1h1.6v-5.6
					c-5.5-2.6-14.8-1.7-14.8,6.8c0,8.5,12.7,11.3,12.7,19.2c0,2.9-2.2,5.7-5.8,5.7c-4.3,0-5.3-3.1-5.3-5.3h-1.6v5.9
					C719.3,232.4,730.1,231.3,730.1,222.7"/>
				<circle fill="#929497" cx="845" cy="228.2" r="2.8"/>
				<path fill="#929497" d="M892.6,226.8c0,1.3,0.1,2.6-2.1,2.6v1.3h6.2v-1.3c-2.2,0-2.1-1.3-2.1-2.6v-25.4l8.3,29.3h2.6l8.2-29.3
					v25.4c0,1.3,0.1,2.6-2.1,2.6v1.3h8.3v-1.3c-2.2,0-2.1-1.3-2.1-2.6v-25.9c0-1.3-0.1-2.6,2.1-2.6v-1.3h-7l-7.8,27.6l-7.6-27.6
					h-7.1v1.3c2.2,0,2.1,1.3,2.1,2.6V226.8z"/>
				<path fill="#929497" d="M852.9,213.7c0-6.8,0.2-15.9,6.2-15.9c3.7,0,4.9,2.9,5.1,6h2v-4.8c-1.5-1.7-4-2.9-7.1-2.9
					c-6.2,0-10.7,3.8-10.7,17.5c0,13.7,4.5,17.5,10.7,17.5c3,0,5.6-1.2,7.1-2.9v-4.8h-2c-0.2,3.1-1.4,6-5.1,6
					C853,229.6,852.9,220.5,852.9,213.7z"/>
			</g>
		</g>
		<circle fill="#765B24" cx="694.1" cy="171.8" r="6.7"/>
		<g>
			<line fill="none" stroke="#C4A65C" stroke-width="3" stroke-miterlimit="10" x1="278.2" y1="391.2" x2="974.6" y2="391.2"/>
			<g>
				<path fill="none" stroke="#C4A65C" stroke-width="3" stroke-miterlimit="10" d="M280.7,390.6"/>
				<path fill="none" stroke="#C4A65C" stroke-width="3" stroke-miterlimit="10" d="M279.9,391.3"/>
				<path fill="none" stroke="#C4A65C" stroke-width="3" stroke-miterlimit="10" d="M302.6,406.6"/>
			</g>
			<g>
				<path fill="none" stroke="#C4A65C" stroke-width="3" stroke-miterlimit="10" d="M976.8,390.9"/>
				<path fill="none" stroke="#C4A65C" stroke-width="3" stroke-miterlimit="10" d="M977.6,391.5"/>
			</g>
		</g>
		<polyline fill="none" stroke="#C4A65C" stroke-width="3" stroke-miterlimit="10" points="962.6,377.5 976.7,391.3 962.6,405.2 		
			"/>
		<g>
			<path fill="none" stroke="#C4A65C" stroke-width="3" stroke-miterlimit="10" d="M627.4,43.7"/>
			<path fill="none" stroke="#C4A65C" stroke-width="3" stroke-miterlimit="10" d="M644,64.8"/>
			<path fill="none" stroke="#C4A65C" stroke-width="3" stroke-miterlimit="10" d="M628,42.9"/>
			<path fill="none" stroke="#C4A65C" stroke-width="3" stroke-miterlimit="10" d="M612.7,65.6"/>
		</g>
		<polyline fill="none" stroke="#C4A65C" stroke-width="3" stroke-miterlimit="10" points="614.3,53.5 628.1,39.4 642,53.5 		"/>
		<line fill="none" stroke="#C4A65C" stroke-width="3" stroke-miterlimit="10" x1="628.1" y1="41.2" x2="628.1" y2="737.7"/>
		<g>
			<text transform="matrix(1 0 0 1 363.589 353.2598)"><tspan x="0" y="0" fill="#231F20" font-family="'BentonSans-Book'" font-size="15.9772" letter-spacing="1">median hhi: $87,500</tspan><tspan x="0" y="23.9" fill="#231F20" font-family="'BentonSans-Book'" font-size="15.9772" letter-spacing="1">monthly uv: 323K</tspan></text>
			<g>
				<path fill-rule="evenodd" clip-rule="evenodd" fill="#B9B9BA" d="M388.6,328.8c13.8,0,25-11.2,25-25c0-1.3-0.1-2.5-0.3-3.8h-6.6
					h-7.3h-9.2v11.3h7.1c-2.1,2.4-5.2,3.9-8.6,3.9c-6.3,0-11.4-5.1-11.4-11.4c0-6.3,5.1-11.4,11.4-11.4c3.2,0,6.1,1.4,8.2,3.5h15.4
					c-3.3-9.9-12.7-17.1-23.7-17.1c-4.3,0-8.3,1.1-11.8,3c-6.9,3.8-11.8,10.7-12.9,18.8c-0.1,1-0.2,2.1-0.2,3.2
					C363.6,317.6,374.8,328.8,388.6,328.8"/>
				<path fill="#929497" d="M431,315.2c-6.3,0-11.4-5.1-11.4-11.4c0-6.3,5.1-11.4,11.4-11.4c6.3,0,11.4,5.1,11.4,11.4
					c0,0.6,0,1.1-0.1,1.7l-0.7-1h-15.3l7.8,10.3C433,315.1,432,315.2,431,315.2 M429.7,278.8c-6.5,0-12.4,2.5-16.8,6.5
					c-1.5,1.2-2.8,2.7-3.9,4.2c1.4,2,2.5,4.2,3.3,6.5h-6.6c-0.4,1.3-0.8,2.7-1,4.1h2h6.6c0.2,1.2,0.3,2.5,0.3,3.8
					c0,5.3-1.7,10.3-4.5,14.3c1.1,1.5,2.4,3,3.9,4.2c4.5,4,10.4,6.5,16.8,6.5c4.2,0,8.1-1,11.6-2.8l1,1.3h15.3l-7.2-9.4
					c2.7-4,4.3-8.9,4.3-14.1C454.7,290,443.5,278.8,429.7,278.8"/>
				<path fill="#807F7F" d="M413.2,300.1h-6.6h-2c-0.2,1.2-0.3,2.5-0.3,3.8c0,5.4,1.7,10.3,4.7,14.3c2.9-4.1,4.5-9,4.5-14.3
					C413.5,302.5,413.4,301.3,413.2,300.1 M409,289.5c-1.4,2-2.6,4.2-3.4,6.5h6.6C411.5,293.6,410.4,291.5,409,289.5"/>
			</g>
		</g>
	</g>
</g>
<g id="Layer_1">
	
		<rect x="308" y="69.7" opacity="0.15" fill="#8B8B88" stroke="#C4A65C" stroke-width="2" stroke-miterlimit="10" width="644.7" height="641.3"/>
	<path fill="none" stroke="#C4A65C" stroke-width="3" stroke-miterlimit="10" d="M628.4,739.8"/>
	<path fill="none" stroke="#C4A65C" stroke-width="3" stroke-miterlimit="10" d="M611.8,718.7"/>
	<path fill="none" stroke="#C4A65C" stroke-width="3" stroke-miterlimit="10" d="M627.8,740.6"/>
	<path fill="none" stroke="#C4A65C" stroke-width="3" stroke-miterlimit="10" d="M643.1,717.9"/>
	
		<text transform="matrix(1 0 0 1 563.1803 13.6274)" fill="#765B24" font-family="'BentonSans-Medium'" font-size="16.8545" letter-spacing="1">high income</text>
	
		<text transform="matrix(1 0 0 1 1005.192 396.0698)" fill="#765B24" font-family="'BentonSans-Medium'" font-size="16.8545" letter-spacing="1">MASS</text>
	
		<text transform="matrix(1 0 0 1 191.4303 396.0698)" fill="#765B24" font-family="'BentonSans-Medium'" font-size="16.8545" letter-spacing="1">NICHE</text>
	
		<text transform="matrix(1 0 0 1 567.1154 778.0215)" fill="#765B24" font-family="'BentonSans-Medium'" font-size="16.8545" letter-spacing="1">low income</text>
	<polyline fill="none" stroke="#C4A65C" stroke-width="3" stroke-miterlimit="10" points="292.6,405.2 278.6,391.3 292.6,377.5 	"/>
	<polyline fill="none" stroke="#C4A65C" stroke-width="3" stroke-miterlimit="10" points="642,725.3 628.1,739.4 614.3,725.3 	"/>
	<text transform="matrix(1 0 0 1 708.7311 656.4834)"><tspan x="0" y="0" fill="#231F20" font-family="'BentonSans-Book'" font-size="15.9772" letter-spacing="1">median hhi: $77,500</tspan><tspan x="0" y="23.9" fill="#231F20" font-family="'BentonSans-Book'" font-size="15.9772" letter-spacing="1">monthly uv: 44.4M</tspan></text>
	<circle fill="#765B24" cx="805.3" cy="534.3" r="6.7"/>
	<text transform="matrix(1 0 0 1 692.401 478.0811)"><tspan x="0" y="0" fill="#231F20" font-family="'BentonSans-Book'" font-size="15.9772" letter-spacing="1">median hhi: $77,500</tspan><tspan x="0" y="23.9" fill="#231F20" font-family="'BentonSans-Book'" font-size="15.9772" letter-spacing="1">monthly uv: 156.4M</tspan></text>
	<circle fill="#765B24" cx="925.9" cy="430.4" r="6.7"/>
	<circle fill="#765B24" cx="344.3" cy="370.8" r="6.7"/>
	<g>
		<rect x="628.3" y="65.6" fill="#FFFFFF" width="344.6" height="325"/>
	</g>
	<text transform="matrix(1 0 0 1 356.5353 555.6104)"><tspan x="0" y="0" fill="#231F20" font-family="'BentonSans-Book'" font-size="15.9772" letter-spacing="1">median hhi: $62,500</tspan><tspan x="0" y="23.9" fill="#231F20" font-family="'BentonSans-Book'" font-size="15.9772" letter-spacing="1">monthly uv: 662K</tspan></text>
	<circle fill="#765B24" cx="565.4" cy="550.4" r="6.7"/>
	<text transform="matrix(1 0 0 1 668.9869 257.3306)"><tspan x="0" y="0" fill="#231F20" font-family="'BentonSans-Book'" font-size="15.9772" letter-spacing="1">median hhi: $102,500</tspan><tspan x="0" y="23.9" fill="#231F20" font-family="'BentonSans-Book'" font-size="15.9772" letter-spacing="1">monthly uv: 2.8M</tspan></text>
	<path fill="#231F20" d="M807.4,198.4c4.4,0,5.2,3.7,5.4,4.5h1.3v-6h-17.2v1.3c2.2,0,2.1,1.3,2.1,2.6v25.9c0,1.3,0.1,2.6-2.1,2.6
		v1.3h17.2v-6h-1.3c-0.2,0.8-1,4.5-5.4,4.5h-4.4V214h3.9c2,0,2.4,1.6,2.6,2.6h1.4v-6.9h-1.4c-0.2,1-0.6,2.6-2.6,2.6h-3.9v-13.8
		H807.4z"/>
	<path fill="#231F20" d="M701.3,229.2h-3.8v-15.5h3.8c4.5,0,5.2,5.5,5.2,8C706.5,224.1,705.8,229.2,701.3,229.2 M701.3,212.2h-3.8
		v-13.8h3.8c4.5,0,5.2,4.2,5.2,6.6C706.5,207.5,705.8,212.2,701.3,212.2 M706.1,213c2.9-0.8,4.8-3.9,4.8-7.9c0-3.7-1-8.1-9.6-8.1
		h-10v1.3c2.2,0,2.1,1.3,2.1,2.6v25.9c0,1.3,0.1,2.6-2.1,2.6v1.3h10c8.6,0,9.6-5.4,9.6-9C710.9,217.6,709,213.9,706.1,213"/>
	<path fill="#231F20" d="M788.6,196.9v1.3c2.2,0,2.3,1.2,2,2.6l-5.6,26.2l-5.4-26.2c-0.3-1.3-0.5-2.6,1.6-2.6v-1.3h-9v1.3
		c2,0,2.6,1.2,3,2.6l6.5,29.9h3.6h1l6.5-29.9c0.3-1.3,0.9-2.6,2.8-2.6v-1.3H788.6z"/>
	<path fill="#231F20" d="M679,229.6c-6,0-5.5-9.1-5.5-15.9c0-6.8-0.5-15.9,5.5-15.9c6,0,5.5,9.1,5.5,15.9
		C684.5,220.5,685,229.6,679,229.6 M679,196.2c-6.2,0-10,3.8-10,17.5c0,14.7,3.9,17.5,10,17.5c6,0,10-2.8,10-17.5
		C688.9,198.4,684.8,196.2,679,196.2"/>
	<path fill="#929497" d="M878.6,229.6c-6,0-5.5-9.1-5.5-15.9c0-6.8-0.5-15.9,5.5-15.9c6,0,5.5,9.1,5.5,15.9
		C884.1,220.5,884.6,229.6,878.6,229.6 M878.6,196.2c-6.2,0-10,3.8-10,17.5c0,14.7,3.9,17.5,10,17.5c6,0,10-2.8,10-17.5
		C888.5,198.4,884.4,196.2,878.6,196.2"/>
	<path fill="#231F20" d="M823.1,198.4h3.8c4.5,0,5.2,4.7,5.2,7.2c0,2.5-0.7,7.5-5.2,7.5h-3.8V198.4z M836.4,226.8l-5.5-12.6
		c2.8-0.6,5.6-4.1,5.6-8.4c0-3.7-1-8.9-9.6-8.9h-10v1.3c2.2,0,2.1,1.3,2.1,2.6v25.9c0,1.3,0.1,2.6-2.1,2.6v1.3h8.3v-1.3
		c-2.2,0-2.1-1.3-2.1-2.6v-12.2h3.6l6.9,16.1h5.8v-1.3C837.4,229.4,837,228,836.4,226.8"/>
	<path fill="#231F20" d="M742.3,198.4c4.4,0,5.2,3.7,5.4,4.5h1.3v-6h-17.2v1.3c2.2,0,2.1,1.3,2.1,2.6v25.9c0,1.3,0.1,2.6-2.1,2.6
		v1.3H749v-6h-1.3c-0.2,0.8-1,4.5-5.4,4.5H738V214h3.9c2,0,2.4,1.6,2.6,2.6h1.4v-6.9h-1.4c-0.2,1-0.6,2.6-2.6,2.6H738v-13.8H742.3z"
		/>
	<path fill="#231F20" d="M757.9,198.4h3.8c4.5,0,5.2,4.7,5.2,7.2c0,2.5-0.7,7.5-5.2,7.5h-3.8V198.4z M771.3,226.8l-5.5-12.6
		c2.8-0.6,5.6-4.1,5.6-8.4c0-3.7-1-8.9-9.6-8.9h-10v1.3c2.2,0,2.1,1.3,2.1,2.6v25.9c0,1.3,0.1,2.6-2.1,2.6v1.3h8.3v-1.3
		c-2.2,0-2.1-1.3-2.1-2.6v-12.2h3.6l6.9,16.1h5.8v-1.3C772.3,229.4,771.8,228,771.3,226.8"/>
	<path fill="#231F20" d="M730.1,222.7c0-10.8-12.7-12.2-12.7-20.6c0-2.9,2.5-4.2,4.7-4.2c3.5,0,4.9,2.9,4.9,5.1h1.6v-5.6
		c-5.5-2.6-14.8-1.7-14.8,6.8c0,8.5,12.7,11.3,12.7,19.2c0,2.9-2.2,5.7-5.8,5.7c-4.3,0-5.3-3.1-5.3-5.3h-1.6v5.9
		C719.3,232.4,730.1,231.3,730.1,222.7"/>
	<circle fill="#929497" cx="845" cy="228.2" r="2.8"/>
	<path fill="#929497" d="M892.6,226.8c0,1.3,0.1,2.6-2.1,2.6v1.3h6.2v-1.3c-2.2,0-2.1-1.3-2.1-2.6v-25.4l8.3,29.3h2.6l8.2-29.3v25.4
		c0,1.3,0.1,2.6-2.1,2.6v1.3h8.3v-1.3c-2.2,0-2.1-1.3-2.1-2.6v-25.9c0-1.3-0.1-2.6,2.1-2.6v-1.3h-7l-7.8,27.6l-7.6-27.6h-7.1v1.3
		c2.2,0,2.1,1.3,2.1,2.6V226.8z"/>
	<path fill="#929497" d="M852.9,213.7c0-6.8,0.2-15.9,6.2-15.9c3.7,0,4.9,2.9,5.1,6h2v-4.8c-1.5-1.7-4-2.9-7.1-2.9
		c-6.2,0-10.7,3.8-10.7,17.5c0,13.7,4.5,17.5,10.7,17.5c3,0,5.6-1.2,7.1-2.9v-4.8h-2c-0.2,3.1-1.4,6-5.1,6
		C853,229.6,852.9,220.5,852.9,213.7z"/>
	<circle fill="#765B24" cx="694.1" cy="171.8" r="6.7"/>
	<line fill="none" stroke="#C4A65C" stroke-width="3" stroke-miterlimit="10" x1="278.2" y1="391.2" x2="974.6" y2="391.2"/>
	<path fill="none" stroke="#C4A65C" stroke-width="3" stroke-miterlimit="10" d="M280.7,390.6"/>
	<path fill="none" stroke="#C4A65C" stroke-width="3" stroke-miterlimit="10" d="M279.9,391.3"/>
	<path fill="none" stroke="#C4A65C" stroke-width="3" stroke-miterlimit="10" d="M302.6,406.6"/>
	<path fill="none" stroke="#C4A65C" stroke-width="3" stroke-miterlimit="10" d="M976.8,390.9"/>
	<path fill="none" stroke="#C4A65C" stroke-width="3" stroke-miterlimit="10" d="M977.6,391.5"/>
	<polyline fill="none" stroke="#C4A65C" stroke-width="3" stroke-miterlimit="10" points="962.6,377.5 976.7,391.3 962.6,405.2 	"/>
	<path fill="none" stroke="#C4A65C" stroke-width="3" stroke-miterlimit="10" d="M627.4,43.7"/>
	<path fill="none" stroke="#C4A65C" stroke-width="3" stroke-miterlimit="10" d="M644,64.8"/>
	<path fill="none" stroke="#C4A65C" stroke-width="3" stroke-miterlimit="10" d="M628,42.9"/>
	<path fill="none" stroke="#C4A65C" stroke-width="3" stroke-miterlimit="10" d="M612.7,65.6"/>
	<polyline fill="none" stroke="#C4A65C" stroke-width="3" stroke-miterlimit="10" points="614.3,53.5 628.1,39.4 642,53.5 	"/>
	<line fill="none" stroke="#C4A65C" stroke-width="3" stroke-miterlimit="10" x1="628.1" y1="41.2" x2="628.1" y2="737.7"/>
	<text transform="matrix(1 0 0 1 363.589 353.2598)"><tspan x="0" y="0" fill="#231F20" font-family="'BentonSans-Book'" font-size="15.9772" letter-spacing="1">median hhi: $87,500</tspan><tspan x="0" y="23.9" fill="#231F20" font-family="'BentonSans-Book'" font-size="15.9772" letter-spacing="1">monthly uv: 323K</tspan></text>
	<path fill-rule="evenodd" clip-rule="evenodd" fill="#B9B9BA" d="M388.6,328.8c13.8,0,25-11.2,25-25c0-1.3-0.1-2.5-0.3-3.8h-6.6
		h-7.3h-9.2v11.3h7.1c-2.1,2.4-5.2,3.9-8.6,3.9c-6.3,0-11.4-5.1-11.4-11.4c0-6.3,5.1-11.4,11.4-11.4c3.2,0,6.1,1.4,8.2,3.5h15.4
		c-3.3-9.9-12.7-17.1-23.7-17.1c-4.3,0-8.3,1.1-11.8,3c-6.9,3.8-11.8,10.7-12.9,18.8c-0.1,1-0.2,2.1-0.2,3.2
		C363.6,317.6,374.8,328.8,388.6,328.8"/>
	<path fill="#929497" d="M431,315.2c-6.3,0-11.4-5.1-11.4-11.4c0-6.3,5.1-11.4,11.4-11.4c6.3,0,11.4,5.1,11.4,11.4
		c0,0.6,0,1.1-0.1,1.7l-0.7-1h-15.3l7.8,10.3C433,315.1,432,315.2,431,315.2 M429.7,278.8c-6.5,0-12.4,2.5-16.8,6.5
		c-1.5,1.2-2.8,2.7-3.9,4.2c1.4,2,2.5,4.2,3.3,6.5h-6.6c-0.4,1.3-0.8,2.7-1,4.1h2h6.6c0.2,1.2,0.3,2.5,0.3,3.8
		c0,5.3-1.7,10.3-4.5,14.3c1.1,1.5,2.4,3,3.9,4.2c4.5,4,10.4,6.5,16.8,6.5c4.2,0,8.1-1,11.6-2.8l1,1.3h15.3l-7.2-9.4
		c2.7-4,4.3-8.9,4.3-14.1C454.7,290,443.5,278.8,429.7,278.8"/>
	<path fill="#807F7F" d="M413.2,300.1h-6.6h-2c-0.2,1.2-0.3,2.5-0.3,3.8c0,5.4,1.7,10.3,4.7,14.3c2.9-4.1,4.5-9,4.5-14.3
		C413.5,302.5,413.4,301.3,413.2,300.1 M409,289.5c-1.4,2-2.6,4.2-3.4,6.5h6.6C411.5,293.6,410.4,291.5,409,289.5"/>
	
		<image overflow="visible" enable-background="new    " width="704" height="214" xlink:href="CE1C7D7AFA3D5613.png"  transform="matrix(0.3684 0 0 0.3684 673.5022 553.5085)">
	</image>
	
		<image overflow="visible" enable-background="new    " width="1446" height="375" xlink:href="CE1C7D7AFA3D5611.png"  transform="matrix(0.1069 0 0 0.1069 354.257 487.0855)">
	</image>
	
		<image overflow="visible" enable-background="new    " width="300" height="225" xlink:href="CE1C7D7AFA3D5617.png"  transform="matrix(0.6989 0 0 0.6989 693.0751 345.9725)">
	</image>
	<line id="grid-line" fill="none" stroke="#C4A65C" stroke-miterlimit="10" x1="950.7" y1="225" x2="1092.2" y2="225.3"/>
	<path id="grid-circle" fill="none" stroke="#C4A65C" stroke-miterlimit="10" d="M951.3,225.3c0,87.2-70.8,157.9-157.9,157.9
		s-157.9-70.8-157.9-157.9S706.2,67.4,793.4,67.4c87,0,157.5,70.4,157.9,157.2"/>
</g>
</svg>
