<?xml version="1.0" encoding="utf-8"?>
<!-- Generator: Adobe Illustrator 18.0.0, SVG Export Plug-In . SVG Version: 6.00 Build 0)  -->
<!DOCTYPE svg PUBLIC "-//W3C//DTD SVG 1.1//EN" "http://www.w3.org/Graphics/SVG/1.1/DTD/svg11.dtd">
<svg version="1.1" id="Layer_1" xmlns="http://www.w3.org/2000/svg" xmlns:xlink="http://www.w3.org/1999/xlink" x="0px" y="0px"
	 viewBox="0 0 572 233" enable-background="new 0 0 572 233" xml:space="preserve">
<g>
	<path fill="#FFFFFF" d="M14.7,228.1C5.3,228.1,0,224,0,219.2c0-3.6,2.6-6.7,6.5-6.7c7.9,0,5.8,10.4,15.4,10.4
		c5.5,0,10.4-2.1,15.7-7.4c7-7,7.7-15.2,7.7-25.6c0-20.3-3-43.7-8.8-43.7c-4.4,0-8.6,7.8-9.8,9.1c-0.4,0.4-1.1,0.3-0.9-0.1
		c3.7-10.2,11.9-18,18.2-18c9.2,0,13.6,28.6,12.1,57.8c0,0.4,1.1,1.1,1.3,0.5c8.7-16.4,12.1-31,13.6-54.1c0.1-2.6,2-4.2,4.9-4.2
		c3.4,0,5.3,1.6,5.1,5C78.5,180.9,40.9,228.1,14.7,228.1z"/>
	<path fill="#FFFFFF" d="M99.1,196.1c-8.6,0-16.6-5-16.6-18.9c0-16.9,14.5-40.4,32.9-40.4c8.6,0,16.6,5,16.6,18.9
		C132,172.6,117.5,196.1,99.1,196.1z M115.1,139.6c-9.6,0-20.7,31.3-20.7,45.7c0,5.4,1.6,8.1,5,8.1c9.6,0,20.7-31.3,20.7-45.7
		C120.1,142.3,118.4,139.6,115.1,139.6z"/>
	<path fill="#FFFFFF" d="M182.7,179.5c-2.5,6.9-1.5,7.9,0.5,7.9c2.9,0,12.3-9.2,13.6-9.2c0.3,0,0.5,0.4,0.4,0.7
		c-1.3,2.4-16.8,17.3-24.3,17.3c-7,0-5-11.2,8.6-39.6c0.1-0.4-1.1-1.1-1.5-0.5c-11.1,17.3-24.4,40.1-35.9,40.1
		c-4.1,0-5.9-2.8-5.9-7.5c0-4.2,1.8-9.5,5.3-16.4l9.5-19c3.2-6.2,3-9.1,0.1-9.1c-3.3,0-8.7,5.3-13.1,11.2c-0.3,0.4-1.1,0-0.9-0.3
		c3-8.4,13.9-18.1,21.9-18.1c5.5,0,8.7,5.4,4.2,15.7l-11.5,23.9c-3.7,7.8-2.9,10.3,0.1,10.3c4.6,0,20.1-23.1,33.3-49
		c0.3-0.5,1.3-0.5,3.4-0.5c4.5,0,8.4,0.7,8.1,1.7L182.7,179.5z"/>
	<path fill="#FFFFFF" d="M249.4,154.5c-6.5,0-3-8.1-7-8.1c-4.2,0-8.8,6.1-26.8,47.7c-0.4,0.9-4.5,1.2-6.5,1.2
		c-2.2,0-5.9-0.1-5.5-1.2c8.2-22.2,14-40,14-44.7c0-2.8-0.7-3.8-2.1-3.8c-4.1,0-10,11.7-11.2,12.4c-0.4,0.1-1.1,0.1-0.9-0.4
		c5.3-13.6,15.2-20.5,21-20.5c4.2,0,5.5,3,5.5,7c0,5.1-3,14.1-8.1,28.5c-0.3,0.5,1.3,0.8,1.3,0.5c10.3-25.1,17.7-36.4,26.8-36.4
		c4.6,0,7,3.2,7,7.4C256.9,149.1,253.2,154.5,249.4,154.5z"/>
	<path fill="#FFFFFF" d="M301.2,196.1c-4.2,0-12.8-1.5-16.1-3.3c-1.2-0.7-1.2-10.3-1.1-15.8c0-1.1,1.3-0.9,1.6-0.3
		c2.6,8.3,10.8,16.1,17.6,16.1c5.9,0,9.2-3.6,9.2-9.5c0-11.9-27.2-11-27.2-28.9c0-11,9.2-17.6,20.5-17.6c3.4,0,11.5,1.1,13.3,2.2
		c1.2,0.7,0.9,9.4,0.9,14.1c0,1.1-1.3,0.9-1.6,0.3c-2.6-7-8.2-13.3-14.4-13.3c-4.8,0-7.7,3.3-7.7,9c0,12,27.2,10,27.2,28.6
		C323.5,187.7,315.5,196.1,301.2,196.1z"/>
	<path fill="#FFFFFF" d="M353.4,196.1c-11.1,0-14.5-6.1-14.5-16.8c0-10.8,0.4-24.7,0.7-35.1c-4.1-0.1-7.4-0.3-10.6,0
		c-0.7,0-0.5-1.2,0.3-1.7c7.7-4.8,17.4-13.6,23.4-19.9c0.4-0.5,1.5,0,1.3,0.7c-0.1,1.6-0.7,9.8-0.8,14.7c0,0.4,0.3,0.8,1.2,0.8
		c9.2,0,11-0.3,15.8-0.5c1.3-0.1,0.9,6.6-0.8,6.5c-4.9-0.3-7.5-0.5-16.9-0.5c0,6.2-0.3,21.6-0.3,31.9c0,9.6,1.7,14,7.8,14
		c4.1,0,7.4-1.5,9.9-2.6c0.5-0.3,0.9,0.7,0.7,0.9C367.2,191.8,360.1,196.1,353.4,196.1z"/>
	<path fill="#FFFFFF" d="M406,196.1c-19.4,0-30.4-13.6-30.4-30.1c0-16.8,12.8-29.2,29.8-29.2c19.4,0,30.5,14.3,30.5,30.9
		C436,184.5,423.2,196.1,406,196.1z M404.9,139.8c-10.3,0-14.1,10.7-14.1,25.2c0,15.3,4.1,28.4,16.1,28.4c10.4,0,14.3-10,14.3-24.6
		C421.1,153.4,417,139.8,404.9,139.8z"/>
	<path fill="#FFFFFF" d="M482.9,151.8c-4.8,0-5.5-5.1-9.8-5.1c-3.4,0-5.8,1.8-8.2,4.9c-0.9,1.3-1.3,1.8-1.3,3.4l0.1,11.9
		c0.4,23,0.3,24.6,1.3,25.2c1.6,0.9,6.7,0.8,9.8,1.5c0.9,0.3,0.7,1.6,0.1,1.5c-3.8-0.3-11.7-0.4-17.8-0.4c-6.6,0-11.6,0.1-15,0.4
		c-0.7,0.1-0.9-1.2,0.1-1.5c3-0.7,5-0.5,6.6-1.5c1.1-0.5,1.6-2.2,1.6-25.2c0-15.8-0.4-19.1-1.6-20.3s-2.1-2-5.3-2.5
		c-0.9-0.3-0.7-1.1-0.1-1.2c6.3-1.2,15.3-5.3,19.5-8.2c0.8-0.5,1.6,0.4,1.5,0.9c-0.5,1.7-1.2,8.8-1.2,13.6c0,0.4,1.1,0.7,1.1,0.5
		c3.6-6.5,11.1-13.5,16.4-13.5c5.7,0,9.1,3,9.1,8.1C489.7,147.9,487.1,151.8,482.9,151.8z"/>
	<path fill="#FFFFFF" d="M554.4,139.5c-3.3,0.7-4.5,0.4-6.3,1.5c-2.6,1.6-9,14.7-18.9,41.3c-14.8,39.5-20.7,44.1-29.4,44.1
		c-5,0-9.1-2.8-9.1-6.9c0-3.4,2.6-6.2,7.3-6.2s6.7,3.2,9.1,3.2c3.2,0,7.8-5,13.1-19.9c-10.7-25.6-23.2-54.3-26-55.6
		c-2-0.8-4-0.8-7.3-1.5c-1.1-0.3-0.7-1.5,0-1.5c3.4,0.3,7.7,0.5,14.3,0.5s16.6-0.3,20.1-0.5c0.7,0,0.9,1.2,0,1.5
		c-2.8,0.7-9.1,0.4-9.8,1.6c-0.9,2.1,5,16.8,15,39.1c8.4-21.3,11.9-33.9,11.9-37c0-1.6-1.8-2.9-7.8-3.7c-0.9-0.1-0.5-1.6,0.1-1.5
		c3.3,0.3,6.6,0.5,13.1,0.5c6.6,0,7.4-0.3,10.8-0.5C555.2,138,555.6,139.2,554.4,139.5z"/>
	<path fill="#FFFFFF" d="M555.1,196.1c-4.8,0-8.3-3.2-8.3-7.5c0-5.5,3.8-9,9-9c4.5,0,7.9,3.4,7.9,8.2S560.6,196.1,555.1,196.1z"/>
</g>
<text transform="matrix(1 0 0 1 1.953125e-03 103.2525)" fill="#FFFFFF" font-family="'HoeflerTitling-HTF-BdRoman'" font-size="132">Let us tell</text>
</svg>
