<?xml version="1.0" encoding="utf-8"?>
<!-- Generator: Adobe Illustrator 18.0.0, SVG Export Plug-In . SVG Version: 6.00 Build 0)  -->
<!DOCTYPE svg PUBLIC "-//W3C//DTD SVG 1.1//EN" "http://www.w3.org/Graphics/SVG/1.1/DTD/svg11.dtd">
<svg version="1.1" id="Layer_1" xmlns="http://www.w3.org/2000/svg" xmlns:xlink="http://www.w3.org/1999/xlink" x="0px" y="0px"
	 viewBox="-54 0 1334 800" enable-background="new -54 0 1334 800" xml:space="preserve">
<path fill="#FFFFFF" d="M-16.1,649.7c-21,0-32.9-9.2-32.9-19.9c0-8.1,5.8-15,14.5-15c17.7,0,13,23.3,34.5,23.3
	c12.3,0,23.3-4.7,35.1-16.6c15.7-15.7,17.2-34,17.2-57.3c0-45.4-6.7-97.8-19.7-97.8c-9.8,0-19.2,17.5-21.9,20.4
	c-0.9,0.9-2.5,0.7-2-0.2c8.3-22.8,26.6-40.3,40.7-40.3c20.6,0,30.4,64,27.1,129.3c0,0.9,2.5,2.5,2.9,1.1
	c19.5-36.7,27.1-69.4,30.4-121.1c0.2-5.8,4.5-9.4,11-9.4c7.6,0,11.9,3.6,11.4,11.2C126.7,544.1,42.5,649.7-16.1,649.7z"/>
<path fill="#FFFFFF" d="M172.8,578.1c-19.2,0-37.1-11.2-37.1-42.3c0-37.8,32.4-90.4,73.6-90.4c19.2,0,37.1,11.2,37.1,42.3
	C246.4,525.5,213.9,578.1,172.8,578.1z M208.6,451.7c-21.5,0-46.3,70-46.3,102.3c0,12.1,3.6,18.1,11.2,18.1
	c21.5,0,46.3-70,46.3-102.3C219.8,457.7,216,451.7,208.6,451.7z"/>
<path fill="#FFFFFF" d="M359.8,541c-5.6,15.4-3.4,17.7,1.1,17.7c6.5,0,27.5-20.6,30.4-20.6c0.7,0,1.1,0.9,0.9,1.6
	c-2.9,5.4-37.6,38.7-54.4,38.7c-15.7,0-11.2-25.1,19.2-88.6c0.2-0.9-2.5-2.5-3.4-1.1c-24.8,38.7-54.6,89.7-80.3,89.7
	c-9.2,0-13.2-6.3-13.2-16.8c0-9.4,4-21.3,11.9-36.7l21.3-42.5c7.2-13.9,6.7-20.4,0.2-20.4c-7.4,0-19.5,11.9-29.3,25.1
	c-0.7,0.9-2.5,0-2-0.7c6.7-18.8,31.1-40.5,49-40.5c12.3,0,19.5,12.1,9.4,35.1l-25.7,53.5c-8.3,17.5-6.5,23,0.2,23
	c10.3,0,45-51.7,74.5-109.7c0.7-1.1,2.9-1.1,7.6-1.1c10.1,0,18.8,1.6,18.1,3.8L359.8,541z"/>
<path fill="#FFFFFF" d="M509.1,485c-14.5,0-6.7-18.1-15.7-18.1c-9.4,0-19.7,13.7-60,106.7c-0.9,2-10.1,2.7-14.5,2.7
	c-4.9,0-13.2-0.2-12.3-2.7c18.3-49.7,31.3-89.5,31.3-100c0-6.3-1.6-8.5-4.7-8.5c-9.2,0-22.4,26.2-25.1,27.7c-0.9,0.2-2.5,0.2-2-0.9
	c11.9-30.4,34-45.9,47-45.9c9.4,0,12.3,6.7,12.3,15.7c0,11.4-6.7,31.6-18.1,63.8c-0.7,1.1,2.9,1.8,2.9,1.1
	c23-56.2,39.6-81.5,60-81.5c10.3,0,15.7,7.2,15.7,16.6C525.9,473,517.6,485,509.1,485z"/>
<path fill="#FFFFFF" d="M625,578.1c-9.4,0-28.6-3.4-36-7.4c-2.7-1.6-2.7-23-2.5-35.4c0-2.5,2.9-2,3.6-0.7c5.8,18.6,24.2,36,39.4,36
	c13.2,0,20.6-8.1,20.6-21.3c0-26.6-60.9-24.6-60.9-64.7c0-24.6,20.6-39.4,45.9-39.4c7.6,0,25.7,2.5,29.8,4.9c2.7,1.6,2,21,2,31.6
	c0,2.5-2.9,2-3.6,0.7c-5.8-15.7-18.3-29.8-32.2-29.8c-10.7,0-17.2,7.4-17.2,20.1c0,26.9,60.9,22.4,60.9,64
	C674.9,559.3,657,578.1,625,578.1z"/>
<path fill="#FFFFFF" d="M741.8,578.1c-24.8,0-32.4-13.7-32.4-37.6c0-24.2,0.9-55.3,1.6-78.5c-9.2-0.2-16.6-0.7-23.7,0
	c-1.6,0-1.1-2.7,0.7-3.8c17.2-10.7,38.9-30.4,52.4-44.5c0.9-1.1,3.4,0,2.9,1.6c-0.2,3.6-1.6,21.9-1.8,32.9c0,0.9,0.7,1.8,2.7,1.8
	c20.6,0,24.6-0.7,35.4-1.1c2.9-0.2,2,14.8-1.8,14.5c-11-0.7-16.8-1.1-37.8-1.1c0,13.9-0.7,48.3-0.7,71.4c0,21.5,3.8,31.3,17.5,31.3
	c9.2,0,16.6-3.4,22.2-5.8c1.1-0.7,2,1.6,1.6,2C772.7,568.5,756.8,578.1,741.8,578.1z"/>
<path fill="#FFFFFF" d="M859.5,578.1c-43.4,0-68-30.4-68-67.4c0-37.6,28.6-65.3,66.7-65.3c43.4,0,68.3,32,68.3,69.1
	C926.7,552.2,898,578.1,859.5,578.1z M857.1,452.1c-23,0-31.6,23.9-31.6,56.4c0,34.2,9.2,63.6,36,63.6c23.3,0,32-22.4,32-55
	C893.3,482.6,884.1,452.1,857.1,452.1z"/>
<path fill="#FFFFFF" d="M1031.6,479c-10.7,0-12.3-11.4-21.9-11.4c-7.6,0-13,4-18.3,11c-2,2.9-2.9,4-2.9,7.6l0.2,26.6
	c0.9,51.5,0.7,55,2.9,56.4c3.6,2,15,1.8,21.9,3.4c2,0.7,1.6,3.6,0.2,3.4c-8.5-0.7-26.2-0.9-39.8-0.9c-14.8,0-26,0.2-33.6,0.9
	c-1.6,0.2-2-2.7,0.2-3.4c6.7-1.6,11.2-1.1,14.8-3.4c2.5-1.1,3.6-4.9,3.6-56.4c0-35.4-0.9-42.7-3.6-45.4c-2.7-2.7-4.7-4.5-11.9-5.6
	c-2-0.7-1.6-2.5-0.2-2.7c14.1-2.7,34.2-11.9,43.6-18.3c1.8-1.1,3.6,0.9,3.4,2c-1.1,3.8-2.7,19.7-2.7,30.4c0,0.9,2.5,1.6,2.5,1.1
	c8.1-14.5,24.8-30.2,36.7-30.2c12.8,0,20.4,6.7,20.4,18.1C1046.8,470.3,1041,479,1031.6,479z"/>
<path fill="#FFFFFF" d="M1191.6,451.5c-7.4,1.6-10.1,0.9-14.1,3.4c-5.8,3.6-20.1,32.9-42.3,92.4c-33.1,88.4-46.3,98.7-65.8,98.7
	c-11.2,0-20.4-6.3-20.4-15.4c0-7.6,5.8-13.9,16.3-13.9c10.5,0,15,7.2,20.4,7.2c7.2,0,17.5-11.2,29.3-44.5
	c-23.9-57.3-51.9-121.5-58.2-124.4c-4.5-1.8-9-1.8-16.3-3.4c-2.5-0.7-1.6-3.4,0-3.4c7.6,0.7,17.2,1.1,32,1.1s37.1-0.7,45-1.1
	c1.6,0,2,2.7,0,3.4c-6.3,1.6-20.4,0.9-21.9,3.6c-2,4.7,11.2,37.6,33.6,87.5c18.8-47.7,26.6-75.9,26.6-82.8c0-3.6-4-6.5-17.5-8.3
	c-2-0.2-1.1-3.6,0.2-3.4c7.4,0.7,14.8,1.1,29.3,1.1c14.8,0,16.6-0.7,24.2-1.1C1193.4,448.1,1194.3,450.8,1191.6,451.5z"/>
<path fill="#FFFFFF" d="M1193.2,578.1c-10.7,0-18.6-7.2-18.6-16.8c0-12.3,8.5-20.1,20.1-20.1c10.1,0,17.7,7.6,17.7,18.3
	S1205.5,578.1,1193.2,578.1z"/>
<text transform="matrix(1 0 0 1 4.115921e-03 370.3558)" fill="#FFFFFF" font-family="'HoeflerTitling-HTF-BdRoman'" font-size="295.3846">Let us tell</text>
</svg>
