<?xml version="1.0" encoding="utf-8"?>
<!-- Generator: Adobe Illustrator 18.0.0, SVG Export Plug-In . SVG Version: 6.00 Build 0)  -->
<!DOCTYPE svg PUBLIC "-//W3C//DTD SVG 1.1//EN" "http://www.w3.org/Graphics/SVG/1.1/DTD/svg11.dtd">
<svg version="1.1" id="Layer_1" xmlns="http://www.w3.org/2000/svg" xmlns:xlink="http://www.w3.org/1999/xlink" x="0px" y="0px"
	 viewBox="0 0 359.1 54.5" enable-background="new 0 0 359.1 54.5" xml:space="preserve">
<g>
	<path fill="#FFFFFF" d="M198.1,3.3c6.3,0,7.4,5.3,7.7,6.5h1.9V1.1H183V3c3.1,0,3,1.9,3,3.7v37.1c0,1.8,0.1,3.7-3,3.7v1.9h24.7v-8.6
		h-1.9c-0.3,1.2-1.5,6.5-7.7,6.5h-6.2V25.5h5.6c2.8,0,3.4,2.2,3.7,3.7h2v-9.8h-2c-0.3,1.5-0.9,3.7-3.7,3.7h-5.6V3.3H198.1z"/>
	<path fill="#FFFFFF" d="M46.2,47.3h-5.5V25.2h5.5c6.5,0,7.4,7.9,7.4,11.4C53.6,40.1,52.6,47.3,46.2,47.3 M46.2,23h-5.5V3.3h5.5
		c6.5,0,7.4,5.9,7.4,9.5C53.6,16.3,52.6,23,46.2,23 M53.1,24.1c4.2-1.2,6.8-5.5,6.8-11.3c0-5.2-1.5-11.7-13.8-11.7H31.8V3
		c3.1,0,3,1.9,3,3.7v37.1c0,1.8,0.1,3.7-3,3.7v1.9h14.3c12.3,0,13.8-7.7,13.8-12.9C59.9,30.8,57.3,25.5,53.1,24.1"/>
	<path fill="#FFFFFF" d="M171.1,1.1V3c3.2,0,3.3,1.8,2.9,3.7l-8.1,37.6l-7.8-37.6c-0.4-1.9-0.8-3.7,2.2-3.7V1.1h-12.8V3
		c2.8,0,3.8,1.7,4.2,3.7l9.3,42.7h5.1h1.4L177,6.7c0.4-1.9,1.2-3.7,4.1-3.7V1.1H171.1z"/>
	<path fill="#FFFFFF" d="M14.3,47.9c-8.7,0-7.9-13-7.9-22.7c0-9.7-0.8-22.7,7.9-22.7c8.6,0,7.9,13,7.9,22.7
		C22.1,34.9,22.9,47.9,14.3,47.9 M14.3,0.2C5.4,0.2,0,5.6,0,25.2c0,21,5.5,25,14.3,25c8.6,0,14.3-4,14.3-25
		C28.5,3.3,22.6,0.2,14.3,0.2"/>
	<path fill="#FFFFFF" d="M299.9,47.9c-8.7,0-7.9-13-7.9-22.7c0-9.7-0.8-22.7,7.9-22.7c8.6,0,7.9,13,7.9,22.7
		C307.7,34.9,308.5,47.9,299.9,47.9 M299.9,0.2c-8.8,0-14.3,5.4-14.3,25c0,21,5.5,25,14.3,25c8.6,0,14.3-4,14.3-25
		C314.1,3.3,308.2,0.2,299.9,0.2"/>
	<path fill="#FFFFFF" d="M220.5,3.3h5.5c6.5,0,7.4,6.7,7.4,10.3c0,3.5-1,10.7-7.4,10.7h-5.5V3.3z M239.6,43.8l-7.8-18
		c4-0.8,8-5.8,8-12c0-5.2-1.5-12.7-13.8-12.7h-14.3V3c3.1,0,3,1.9,3,3.7v37.1c0,1.8,0.1,3.7-3,3.7v1.9h11.8v-1.9c-3.1,0-3-1.9-3-3.7
		V26.5h5.2l9.9,23h8.2v-1.9C241,47.6,240.3,45.7,239.6,43.8"/>
	<path fill="#FFFFFF" d="M104.9,3.3c6.3,0,7.4,5.3,7.7,6.5h1.9V1.1H89.9V3c3.1,0,3,1.9,3,3.7v37.1c0,1.8,0.1,3.7-3,3.7v1.9h24.7
		v-8.6h-1.9c-0.3,1.2-1.5,6.5-7.7,6.5h-6.2V25.5h5.6c2.8,0,3.4,2.2,3.7,3.7h2v-9.8h-2c-0.3,1.5-0.9,3.7-3.7,3.7h-5.6V3.3H104.9z"/>
	<path fill="#FFFFFF" d="M127.3,3.3h5.5c6.5,0,7.4,6.7,7.4,10.3c0,3.5-1,10.7-7.4,10.7h-5.5V3.3z M146.4,43.8l-7.8-18
		c4-0.8,8-5.8,8-12c0-5.2-1.5-12.7-13.8-12.7h-14.3V3c3.1,0,3,1.9,3,3.7v37.1c0,1.8,0.1,3.7-3,3.7v1.9h11.8v-1.9c-3.1,0-3-1.9-3-3.7
		V26.5h5.2l9.9,23h8.2v-1.9C147.8,47.6,147.1,45.7,146.4,43.8"/>
	<path fill="#FFFFFF" d="M87.4,38.1c0-15.5-18.2-17.4-18.2-29.5c0-4.2,3.6-6.1,6.8-6.1c5,0,7.1,4.2,7.1,7.3h2.4v-8
		c-7.9-3.7-21.2-2.5-21.2,9.8c0,12.1,18.2,16.1,18.2,27.5c0,4.2-3.1,8.2-8.4,8.2c-6.1,0-7.6-4.4-7.6-7.6h-2.4v8.5
		C72,51.9,87.4,50.4,87.4,38.1"/>
	<circle fill="#FFFFFF" cx="251.8" cy="45.9" r="4.1"/>
	<path fill="#FFFFFF" d="M320,43.8c0,1.8,0.1,3.7-3,3.7v1.9h8.9v-1.9c-3.1,0-3-1.9-3-3.7V7.5l11.8,41.9h3.7l11.7-41.9v36.3
		c0,1.8,0.1,3.7-3,3.7v1.9h11.9v-1.9c-3.1,0-3-1.9-3-3.7V6.7c0-1.8-0.1-3.7,3-3.7V1.1h-10L338,40.5L327.2,1.1H317V3
		c3.1,0,3,1.9,3,3.7V43.8z"/>
	<path fill="#FFFFFF" d="M263.1,25.2c0-9.7,0.3-22.7,8.9-22.7c5.3,0,7,4.2,7.3,8.6h2.8V4.3c-2.1-2.4-5.8-4.1-10.1-4.1
		c-8.8,0-15.3,5.4-15.3,25c0,19.6,6.5,25,15.3,25c4.3,0,8-1.7,10.1-4.1v-6.8h-2.8c-0.3,4.5-2,8.6-7.3,8.6
		C263.3,47.9,263.1,34.9,263.1,25.2z"/>
</g>
</svg>
