<?xml version="1.0" encoding="utf-8"?>
<!-- Generator: Adobe Illustrator 18.0.0, SVG Export Plug-In . SVG Version: 6.00 Build 0)  -->
<!DOCTYPE svg PUBLIC "-//W3C//DTD SVG 1.1//EN" "http://www.w3.org/Graphics/SVG/1.1/DTD/svg11.dtd">
<svg version="1.1" id="Layer_1" xmlns="http://www.w3.org/2000/svg" xmlns:xlink="http://www.w3.org/1999/xlink" x="0px" y="0px"
	 viewBox="0 0 987.2 1304.3" enable-background="new 0 0 987.2 1304.3" xml:space="preserve">
<path fill="#545455" d="M40.2,956.7c2.1,0,11.3-0.3,12.7-0.3c2.1,0,3.4-1.7,4.1-3.8c0-0.3,0.3,0,0.3,0c0,0.7-1.4,7.6-1.7,7.6
	c-1.4,0-7.9,0-10.3,0c-1.4,0-7.2,0-9.6,0.3c-0.3,0-0.3-0.3-0.3-0.3c12.7-12,15.8-17.9,15.8-22.7c0-3.8-1.7-7.2-6.9-7.2
	c-2.8,0-5.2,1.7-6.5,3.4c-0.3,0.3-0.7,0-0.3-0.3c2.1-3.4,5.8-5.8,9.3-5.8c5.2,0,8.6,3.4,8.6,8.9C55.7,941.6,52.2,944.3,40.2,956.7z"
	/>
<path fill="#545455" d="M71.2,947.8c0,10.3,0.3,11,0.7,11c0.7,0.3,3.4,0.3,4.5,0.7c0.3,0,0.3,0.7,0,0.7c-1.4,0-4.5-0.3-6.9-0.3
	c-2.4,0-5.8,0-7.2,0.3c-0.3,0-0.3-0.3,0-0.7c1-0.3,4.1-0.3,4.8-0.7c0.3-0.3,0.7-0.7,0.7-14.1c0-12.7,0-14.4-0.7-14.8
	c-0.3-0.3-3.1-0.3-4.1-0.3c-0.3,0-0.3-0.3,0-0.3c2.8-0.3,7.2-1.7,8.6-2.4c0.3,0,0.7,0,0.3,0.3c-0.3,0.7-0.3,2.8-0.3,3.8L71.2,947.8z
	"/>
<path fill="#545455" d="M101.8,926.4c-11,3.1-15.8,11.7-15.8,21c0,7.2,2.8,12.4,7.2,12.4c3.8,0,5.8-3.4,5.8-8.6
	c0-4.8-2.1-8.3-5.8-8.3c-1.4,0-2.8,0.3-3.8,1c-0.3,0-0.7-0.3-0.3-0.3c1.4-1.7,3.4-2.8,5.8-2.8c5.5,0,7.9,4.8,7.9,8.9
	c0,5.8-4.5,10.7-10.3,10.7c-7.2,0-10.3-6.9-10.3-12.7c0-9.6,6.2-19.3,19.9-22.4C101.8,925.8,102.1,926.4,101.8,926.4z"/>
<path fill="#545455" d="M139.9,959.8c-2.4,0-5.2,0-6.2,0.3c-0.3,0-0.3-0.7,0-0.7c1.7,0,3.1-0.3,3.1-1c0-0.3-6.2-8.3-10-12.4
	c-1.4-1.4-1.7-1.7-2.8-1.7c-1,0-1,0.3-1,0.7c0,12,0.3,13.8,0.7,14.1c0.7,0.3,1.7,0.3,2.8,0.7c0.3,0,0.3,0.7,0,0.7
	c-1.4,0-3.1-0.3-5.5-0.3c-2.4,0-4.5,0-5.5,0.3c-0.3,0-0.3-0.3,0-0.7c1-0.3,2.4-0.3,3.1-0.7c0.3-0.3,0.7-1.4,0.7-15.1
	c0-13.8-0.3-14.8-0.7-15.1c-0.7-0.3-2.1-0.3-3.1-0.7c-0.3,0-0.3-0.7,0-0.7c1.4,0,3.1,0.3,5.5,0.3c2.4,0,4.1,0,5.5-0.3
	c0.3,0,0.3,0.3,0,0.7c-1,0.3-2.4,0.3-2.8,0.7s-0.7,2.8-0.7,13.8c0,0.7,0,0.7,0.7,0.7c1,0,1.7-0.3,2.8-1.4
	c6.9-7.2,10.7-11.7,10.7-12.7c0-0.3-0.3-0.7-2.4-1c-0.3,0-0.3-0.7,0-0.7c1,0,3.1,0.3,5.5,0.3s2.4,0,3.4-0.3c0.3,0,0.3,0.3,0,0.7
	c-1,0.3-2.8,0.3-3.4,1c-0.7,0.3-7.9,8.3-12,12.7c4.5,5.8,13.1,16.5,14.4,17.2c0.7,0.3,1.7,0.3,2.8,0.7c0.3,0,0.3,0.7,0,0.7
	C144.7,959.8,142.3,959.8,139.9,959.8z"/>
<path fill="#545455" d="M451.4,635.9c2.1,0,11.3-0.3,12.7-0.3c2.1,0,3.4-1.7,4.1-3.8c0-0.3,0.3,0,0.3,0c0,0.7-1.4,7.6-1.7,7.6
	c-1.4,0-7.9,0-10.3,0c-1.4,0-7.2,0-9.6,0.3c-0.3,0-0.3-0.3-0.3-0.3c12.7-12,15.8-17.9,15.8-22.7c0-3.8-1.7-7.2-6.9-7.2
	c-2.8,0-5.2,1.7-6.5,3.4c-0.3,0.3-0.7,0-0.3-0.3c2.1-3.4,5.8-5.8,9.3-5.8c5.2,0,8.6,3.4,8.6,8.9
	C466.9,621.1,463.5,623.9,451.4,635.9z"/>
<path fill="#545455" d="M475.9,639.7c-1,0-2.1-0.7-2.1-2.1c0-1.4,1-2.4,2.1-2.4c1.4,0,2.1,1,2.1,2.1S477.2,639.7,475.9,639.7z"/>
<path fill="#545455" d="M498.2,630c0-4.1-2.8-6.9-7.2-6.9c-1.4,0-3.1,0.7-3.8,1c-0.3,0-0.3-0.3-0.3-0.3c7.6-4.5,8.9-6.9,8.9-9.6
	c0-3.1-1.7-5.5-5.8-5.5c-2.1,0-3.4,1-5.2,2.4c-0.3,0.3-0.7-0.3-0.3-0.3c2.1-2.8,4.8-4.5,7.9-4.5c4.8,0,7.2,3.1,7.2,6.9
	c0,3.1-2.1,5.2-6.5,7.2c5.5,1,8.6,4.5,8.6,8.9c0,6.5-8.9,12-15.5,12c-2.4,0-4.1-0.7-4.1-2.1c0-1,1-2.1,2.1-2.1
	c1.7,0,3.4,2.4,5.8,2.4C494.8,639.3,498.2,635.5,498.2,630z"/>
<path fill="#545455" d="M548.4,639c-2.4,0-4.5,0-5.8,0.3c-0.3,0-0.3-0.3,0-0.7c1-0.3,2.4-0.3,2.8-0.7c1-0.7,1.4-1.7,0.7-15.5
	c-0.3-4.1-0.3-7.9-0.3-10.7c0-0.3-0.3-0.3-0.3,0c-2.4,5.8-6.9,16.8-11.3,27.5c0,0.3-0.7,0.3-1,0c-3.4-8.6-8.9-22-11.3-27.2
	c0,0-0.3-0.3-0.3,0c0,2.8-0.3,6.2-0.3,10.7c-0.3,13.8,0,14.8,0.3,15.1c0.7,0.3,1.7,0.3,2.8,0.7c0.3,0,0.3,0.7,0,0.7
	c-1.4,0-2.4-0.3-4.8-0.3s-3.8,0-4.8,0.3c-0.3,0-0.3-0.3,0-0.7c1-0.3,2.4-0.3,3.1-0.7c1-0.7,1.4-1.4,2.1-15.1c0.7-13.1,0-14.1-1-14.8
	c-0.7-0.3-1.7-0.7-3.1-1c-0.3,0-0.3-0.7,0-0.7c1,0,3.1,0.3,5.2,0.3c1.7,0,2.1,0,2.8-0.3c0.3,0,0.3,0,0.3,0.3
	c1.4,4.1,7.6,18.2,11,26.5h0.3c3.4-8.3,7.9-19.3,10.7-26.5c0-0.3,0.3-0.3,0.3-0.3c1,0,2.1,0.3,3.8,0.3s3.1,0,4.1-0.3
	c0.3,0,0.3,0.7,0,0.7c-1.4,0.3-2.4,0.3-2.8,0.7c-1.4,1-1.4,2.1-1,15.1c0.7,13.8,0.7,14.8,1.4,15.1c0.7,0.3,2.1,0.3,3.1,0.7
	c0.3,0,0.3,0.7,0,0.7C553.2,639,550.8,639,548.4,639z"/>
<path fill="#545455" d="M253.7,807.8c0,10.3,0.3,11,0.7,11c0.7,0.3,3.4,0.3,4.5,0.7c0.3,0,0.3,0.7,0,0.7c-1.4,0-4.5-0.3-6.9-0.3
	c-2.4,0-5.8,0-7.2,0.3c-0.3,0-0.3-0.3,0-0.7c1-0.3,4.1-0.3,4.8-0.7c0.3-0.3,0.7-0.7,0.7-14.1c0-12.7,0-14.4-0.7-14.8
	c-0.3-0.3-3.1-0.3-4.1-0.3c-0.3,0-0.3-0.3,0-0.3c2.8-0.3,7.2-1.7,8.6-2.4c0.3,0,0.7,0,0.3,0.3c-0.3,0.7-0.3,2.8-0.3,3.8L253.7,807.8
	z"/>
<path fill="#545455" d="M266.1,820.2c-1,0-2.1-0.7-2.1-2.1c0-1.4,1-2.4,2.1-2.4c1.4,0,2.1,1,2.1,2.1S267.8,820.2,266.1,820.2z"/>
<path fill="#545455" d="M288.5,810.6c0-4.1-2.8-6.9-7.2-6.9c-1.4,0-3.1,0.7-3.8,1c-0.3,0-0.3-0.3-0.3-0.3c7.6-4.5,8.9-6.9,8.9-9.6
	c0-3.1-1.7-5.5-5.8-5.5c-2.1,0-3.4,1-5.2,2.4c-0.3,0.3-0.7-0.3-0.3-0.3c2.1-2.8,4.8-4.5,7.9-4.5c4.8,0,7.2,3.1,7.2,6.9
	c0,3.1-2.1,5.2-6.5,7.2c5.5,1,8.6,4.5,8.6,8.9c0,6.5-8.9,12-15.5,12c-2.4,0-4.1-0.7-4.1-2.1c0-1,1-2.1,2.1-2.1
	c1.7,0,3.4,2.4,5.8,2.4C285.4,819.8,288.5,816.1,288.5,810.6z"/>
<path fill="#545455" d="M339,819.8c-2.4,0-4.5,0-5.8,0.3c-0.3,0-0.3-0.3,0-0.7c1-0.3,2.4-0.3,2.8-0.7c1-0.7,1.4-1.7,0.7-15.5
	c-0.3-4.1-0.3-7.9-0.3-10.7c0-0.3-0.3-0.3-0.3,0c-2.4,5.8-6.9,16.8-11.3,27.5c0,0.3-0.7,0.3-1,0c-3.4-8.6-8.9-22-11.3-27.2
	c0,0-0.3-0.3-0.3,0c0,2.8-0.3,6.2-0.3,10.7c-0.3,13.8,0,14.8,0.3,15.1c0.7,0.3,1.7,0.3,2.8,0.7c0.3,0,0.3,0.7,0,0.7
	c-1.4,0-2.4-0.3-4.8-0.3c-2.4,0-3.8,0-4.8,0.3c-0.3,0-0.3-0.3,0-0.7c1-0.3,2.4-0.3,3.1-0.7c1-0.7,1.4-1.4,2.1-15.1
	c0.7-13.1,0-14.1-1-14.8c-0.7-0.3-1.7-0.7-3.1-1c-0.3,0-0.3-0.7,0-0.7c1,0,3.1,0.3,5.2,0.3c1.7,0,2.1,0,2.8-0.3c0.3,0,0.3,0,0.3,0.3
	c1.4,4.1,7.6,18.2,11,26.5h0.3c3.4-8.3,7.9-19.3,10.7-26.5c0-0.3,0.3-0.3,0.3-0.3c1,0,2.1,0.3,3.8,0.3s3.1,0,4.1-0.3
	c0.3,0,0.3,0.7,0,0.7c-1.4,0.3-2.4,0.3-2.8,0.7c-1.4,1-1.4,2.1-1,15.1c0.7,13.8,0.7,14.8,1.4,15.1c0.7,0.3,2.1,0.3,3.1,0.7
	c0.3,0,0.3,0.7,0,0.7C343.5,819.8,341.4,819.8,339,819.8z"/>
<path fill="#545455" d="M656.7,567.8c2.1,0,11.3-0.3,12.7-0.3c2.1,0,3.4-1.7,4.1-3.8c0-0.3,0.3,0,0.3,0c0,0.7-1.4,7.6-1.7,7.6
	c-1.4,0-7.9,0-10.3,0c-1.4,0-7.2,0-9.6,0.3c-0.3,0-0.3-0.3-0.3-0.3c12.7-12,15.8-17.9,15.8-22.7c0-3.8-1.7-7.2-6.9-7.2
	c-2.8,0-5.2,1.7-6.5,3.4c-0.3,0.3-0.7,0-0.3-0.3c2.1-3.4,5.8-5.8,9.3-5.8c5.2,0,8.6,3.4,8.6,8.9C672.2,553,668.8,555.8,656.7,567.8z
	"/>
<path fill="#545455" d="M681.1,571.6c-1,0-2.1-0.7-2.1-2.1c0-1.4,1-2.4,2.1-2.4c1.4,0,2.1,1,2.1,2.1S682.5,571.6,681.1,571.6z"/>
<path fill="#545455" d="M687.3,546.1c0,0.3-0.3,0-0.3,0c0.7-2.8,0.7-7.2,1-7.2c1.4,0,6.5,0.3,8.6,0.3c1.4,0,6.9,0,9.3-0.3
	c0.3,0,0.3,0.3,0.3,0.3c-1.7,4.5-13.4,31.6-13.8,32.7c-0.3,0.3-2.4,0.3-2.1-0.3c0.7-1,11.3-25.1,13.4-29.6c-1,0-11.7,0.3-13.4,0.3
	C689,542.4,688,543.4,687.3,546.1z"/>
<path fill="#545455" d="M752,570.9c-2.4,0-4.5,0-5.8,0.3c-0.3,0-0.3-0.3,0-0.7c1-0.3,2.4-0.3,2.8-0.7c1-0.7,1.4-1.7,0.7-15.5
	c-0.3-4.1-0.3-7.9-0.3-10.7c0-0.3-0.3-0.3-0.3,0c-2.4,5.8-6.9,16.8-11.3,27.5c0,0.3-0.7,0.3-1,0c-3.4-8.6-8.9-22-11.3-27.2
	c0,0-0.3-0.3-0.3,0c0,2.8-0.3,6.2-0.3,10.7c-0.3,13.8,0,14.8,0.3,15.1c0.7,0.3,1.7,0.3,2.8,0.7c0.3,0,0.3,0.7,0,0.7
	c-1.4,0-2.4-0.3-4.8-0.3s-3.8,0-4.8,0.3c-0.3,0-0.3-0.3,0-0.7c1-0.3,2.4-0.3,3.1-0.7c1-0.7,1.4-1.4,2.1-15.1c0.7-13.1,0-14.1-1-14.8
	c-0.7-0.3-1.7-0.7-3.1-1c-0.3,0-0.3-0.7,0-0.7c1,0,3.1,0.3,5.2,0.3c1.7,0,2.1,0,2.8-0.3c0.3,0,0.3,0,0.3,0.3
	c1.4,4.1,7.6,18.2,11,26.5h0.3c3.4-8.3,7.9-19.3,10.7-26.5c0-0.3,0.3-0.3,0.3-0.3c1,0,2.1,0.3,3.8,0.3s3.1,0,4.1-0.3
	c0.3,0,0.3,0.7,0,0.7c-1.4,0.3-2.4,0.3-2.8,0.7c-1.4,1-1.4,2.1-1,15.1c0.7,13.8,0.7,14.8,1.4,15.1c0.7,0.3,2.1,0.3,3.1,0.7
	c0.3,0,0.3,0.7,0,0.7C756.4,570.9,754.4,570.9,752,570.9z"/>
<path fill="#545455" d="M869.9,34.2c0,4.5,0,11,0,12c0,0-4.1,0.3-4.1,0c0-1,0-7.6,0-12c-0.7,0-1.4,0-2.1,0c-2.1,0-9.3,0-10.7,0.3
	c-0.3,0-0.7-0.7-0.3-1c4.5-5.8,11.7-15.5,15.8-21c0.3-0.3,1.4-0.3,1,0c0,1.4-0.3,13.4-0.3,15.5c0,0.3,0,3.1,0,3.8c2.1,0,5.2,0,5.8,0
	c0.3,0,0,2.8,0,2.8C875.1,34.2,872.3,34.2,869.9,34.2z M866.5,31.8c0-1,0-3.4,0-4.1c0-1.4,0-5.8,0-10c-2.8,3.4-7.6,10-10.3,13.8
	c2.4,0,6.9,0,8.6,0C864.8,31.8,865.4,31.8,866.5,31.8z"/>
<path fill="#545455" d="M881.3,45.8c-1,0-2.1-0.7-2.1-2.1s1-2.4,2.1-2.4c1.4,0,2.1,1,2.1,2.1C883.3,44.5,882.6,45.8,881.3,45.8z"/>
<path fill="#545455" d="M892.6,42.1c2.1,0,11.3-0.3,12.7-0.3c2.1,0,3.4-1.7,4.1-3.8c0-0.3,0.3,0,0.3,0c0,0.7-1.4,7.6-1.7,7.6
	c-1.4,0-7.9,0-10.3,0c-1.4,0-7.2,0-9.6,0.3c-0.3,0-0.3-0.3-0.3-0.3c12.7-12,15.8-17.9,15.8-22.7c0-3.8-1.7-7.2-6.9-7.2
	c-2.8,0-5.2,1.7-6.5,3.4c-0.3,0.3-0.7,0-0.3-0.3c2.1-3.4,5.8-5.8,9.3-5.8c5.2,0,8.6,3.4,8.6,8.9C908.1,27.3,904.6,30,892.6,42.1z"/>
<path fill="#545455" d="M956.2,45.2c-2.4,0-4.5,0-5.8,0.3c-0.3,0-0.3-0.3,0-0.7c1-0.3,2.4-0.3,2.8-0.7c1-0.7,1.4-1.7,0.7-15.5
	c-0.3-4.1-0.3-7.9-0.3-10.7c0-0.3-0.3-0.3-0.3,0c-2.4,5.8-6.9,16.8-11.3,27.5c0,0.3-0.7,0.3-1,0c-3.4-8.6-8.9-22-11.3-27.2
	c0,0-0.3-0.3-0.3,0c0,2.8-0.3,6.2-0.3,10.7c-0.3,13.8,0,14.8,0.3,15.1c0.7,0.3,1.7,0.3,2.8,0.7c0.3,0,0.3,0.7,0,0.7
	c-1.4,0-2.4-0.3-4.8-0.3c-2.4,0-3.8,0-4.8,0.3c-0.3,0-0.3-0.3,0-0.7c1-0.3,2.4-0.3,3.1-0.7c1-0.7,1.4-1.4,2.1-15.1
	c0.7-13.1,0-14.1-1-14.8c-0.7-0.3-1.7-0.7-3.1-1c-0.3,0-0.3-0.7,0-0.7c1,0,3.1,0.3,5.2,0.3c1.7,0,2.1,0,2.8-0.3c0.3,0,0.3,0,0.3,0.3
	c1.4,4.1,7.6,18.2,11,26.5h0.3c3.4-8.3,7.9-19.3,10.7-26.5c0-0.3,0.3-0.3,0.3-0.3c1,0,2.1,0.3,3.8,0.3s3.1,0,4.1-0.3
	c0.3,0,0.3,0.7,0,0.7c-1.4,0.3-2.4,0.3-2.8,0.7c-1.4,1-1.4,2.1-1,15.1c0.7,13.8,0.7,14.8,1.4,15.1c0.7,0.3,2.1,0.3,3.1,0.7
	c0.3,0,0.3,0.7,0,0.7C960.7,45.2,958.6,45.2,956.2,45.2z"/>
<path fill="#8B8B88" d="M8.2,7h8.6l10.3,30.3l0,0L37.1,7h8.6v38.2h-6.2V17l0,0c-0.7,2.8-1.4,5.2-2.4,7.9l-7.6,20.6h-5.8l-7.2-20.6
	c-1-3.1-1.7-4.8-2.4-8.3l0,0v28.9H8.2V7z"/>
<path fill="#8B8B88" d="M52.2,26.2c0-12.7,7.6-19.9,17.2-19.9s17.2,6.9,17.2,19.9s-7.6,19.9-17.2,19.9C59.8,45.8,52.2,39,52.2,26.2z
	 M80.1,26.2c0-8.9-4.1-13.8-10.7-13.8s-10.7,4.8-10.7,13.8s4.1,14.1,10.7,14.1C76,40,80.1,35.2,80.1,26.2z"/>
<path fill="#8B8B88" d="M93.5,7h6.5l17.9,27.2l0,0V7h6.2v38.2h-5.8L99.7,17.3l0,0v27.9h-5.8V7H93.5z"/>
<path fill="#8B8B88" d="M141.6,13.2H130V7h29.9v6.2h-11.7v32.3h-6.5V13.2z"/>
<path fill="#8B8B88" d="M165.7,7h6.5v15.1h17.2V7h6.5v38.2h-6.5V28.3h-17.2v16.8h-6.5V7z"/>
<path fill="#8B8B88" d="M204.6,7h6.5v32.3h17.5v5.8h-24.1V7z"/>
<path fill="#8B8B88" d="M239,28.7L225.9,7h6.9l9.6,16.5L252,7.3h6.9L245.8,29v16.5h-6.5V28.7H239z"/>
<path fill="#8B8B88" d="M274,31.4V7.3h6.5v23.7c0,5.8,2.4,9.3,8.3,9.3s8.3-3.4,8.3-9.3V7h6.2v24.1c0,8.6-4.8,14.4-14.8,14.4
	C278.1,45.8,274,40,274,31.4z"/>
<path fill="#8B8B88" d="M308.4,7h6.5l10,29.9l0,0l10-29.9h6.2l-13.4,38.2h-6.2L308.4,7z"/>
<path fill="#8B8B88" d="M340,41.4l3.4-3.8c2.1,1.7,5.2,3.1,8.6,3.1s5.5-1,5.5-3.1c0-2.1-2.8-2.8-6.2-3.8c-4.8-1-10.3-2.4-10.3-8.6
	c0-4.8,4.1-7.9,10.3-7.9c5.2,0,8.3,1.4,11.3,3.8l-3.1,4.1c-2.1-1.7-5.2-3.1-7.6-3.1c-3.4,0-4.5,1.4-4.5,2.8c0,2.1,2.8,2.8,5.8,3.4
	c4.8,1,10.3,2.1,10.3,8.6c0,5.8-5.2,8.6-11.3,8.6C347.3,45.8,342.4,44.1,340,41.4z"/>
<path fill="#8B8B88" d="M369.3,18h7.2v6.9h-7.2V18z M369.3,38.6h7.2v6.5h-7.2V38.6z"/>
<rect x="821.8" y="76.8" fill="#C4A65C" width="165.4" height="1227.5"/>
<rect x="619.2" y="604.6" fill="#8B8B88" width="165.4" height="700.1"/>
<rect x="414" y="673.7" fill="#8B8B88" width="165.4" height="630.6"/>
<rect x="208.3" y="853.9" fill="#8B8B88" width="165.4" height="450.8"/>
<rect x="3.8" y="996.2" fill="#8B8B88" width="165.4" height="308.1"/>
<path fill="#F2F2F0" d="M723.4,700.2v6.5l-29.9,10l0,0l29.9,10v6.2l-38.2-13.4v-6.2L723.4,700.2z"/>
<path fill="#F2F2F0" d="M723.8,751.1v6.2l-38.2,13.4v-6.5l8.9-3.1v-14.4l-8.9-3.1v-6.2L723.8,751.1z M700,759.3l15.5-5.2l0,0
	L700,749V759.3z"/>
<path fill="#F2F2F0" d="M723.4,781.7v6.5l-27.2,17.9l0,0h27.2v5.8h-38.2v-5.8l27.9-18.6l0,0h-27.9v-5.8H723.4z"/>
<path fill="#F2F2F0" d="M723.4,826.7v6.5h-38.2v-6.5H723.4z"/>
<path fill="#F2F2F0" d="M717.6,856.3v-11.7h5.8v29.9h-5.8v-12h-32.3V856h32.3V856.3z"/>
<path fill="#F2F2F0" d="M701.8,894.8l21.7-13.1v6.9l-16.2,9.6l16.2,9.6v6.9l-21.7-13.1h-16.5v-6.5h16.5V894.8z"/>
<path fill="#F2F2F0" d="M723.4,924.4v24.1h-5.8v-17.5h-10.3v12.7h-5.5v-12.7h-16.2v-6.5H723.4z"/>
<path fill="#F2F2F0" d="M723.8,966v6.2l-38.2,13.4V979l8.9-3.1v-14.4l-8.9-3.1v-6.2L723.8,966z M700,974.2l15.5-5.2l0,0l-15.5-5.2
	V974.2z"/>
<path fill="#F2F2F0" d="M723.4,996.9v6.5h-38.2v-6.5H723.4z"/>
<path fill="#F2F2F0" d="M723.4,1017.6v13.8c0,8.9-3.8,14.4-11.3,14.4c-6.2,0-9.6-3.1-10.7-8.6l-15.8,8.9v-6.9l15.1-8.6v-6.5h-15.1
	v-6.2h37.8V1017.6z M705.9,1031c0,5.5,1.4,8.3,5.8,8.3c4.5,0,5.8-2.8,5.8-8.3v-6.9h-11.7V1031z"/>
<path fill="#F2F2F0" d="M692.1,1057.8v7.2h-6.5v-7.2H692.1z"/>
<path fill="#F2F2F0" d="M704.5,1074c12.7,0,19.6,7.2,19.6,16.8c0,8.9-4.8,13.1-11.7,14.8l-1.7-6.2c5.2-1.4,7.6-3.8,7.6-8.6
	c0-6.5-5.2-10.3-13.8-10.3c-8.9,0-14.1,3.8-14.1,10.3c0,4.8,2.4,7.6,8.3,9.3l-1.4,6.2c-7.6-1.7-12.7-6.5-12.7-15.5
	C684.6,1080.8,691.5,1074,704.5,1074z"/>
<path fill="#F2F2F0" d="M704.5,1115.6c12.7,0,19.9,7.6,19.9,17.2s-6.9,17.2-19.9,17.2c-13.1,0-19.9-7.6-19.9-17.2
	C684.6,1123.1,691.5,1115.6,704.5,1115.6z M704.5,1143.4c8.9,0,13.8-4.1,13.8-10.7s-4.8-10.7-13.8-10.7c-8.9,0-14.1,4.1-14.1,10.7
	S695.6,1143.4,704.5,1143.4z"/>
<path fill="#F2F2F0" d="M723.4,1162v8.6l-30.3,10.3l0,0l30.3,10v8.6h-38.2v-6.2h28.5l0,0c-2.8-0.7-5.2-1.4-7.9-2.4l-20.6-7.6v-5.8
	l20.6-7.2c2.8-1,4.5-1.4,7.9-2.4l0,0h-28.9v-5.8L723.4,1162L723.4,1162z"/>
<path fill="#F2F2F0" d="M518.2,792.7v24.8h-5.8v-18.2h-9.6v13.4h-5.8v-13.4h-11v19.3H480v-25.8H518.2z"/>
<path fill="#F2F2F0" d="M488.9,827.1l2.8,5.2c-4.5,2.4-6.5,5.8-6.5,10.7s1.4,7.9,4.8,7.9s4.8-2.4,6.5-8.6
	c2.1-7.2,4.1-13.4,11.3-13.4c6.5,0,10.7,5.2,10.7,13.1c0,7.6-3.8,12-8.3,14.4l-3.1-4.8c3.8-2.4,5.5-5.5,5.5-9.6s-1.7-6.5-4.5-6.5
	c-3.4,0-4.8,2.8-6.5,8.9c-2.1,7.2-4.5,13.1-11.7,13.1c-6.2,0-11-5.2-11-14.4C479.3,834.6,483.1,829.5,488.9,827.1z"/>
<path fill="#F2F2F0" d="M479.6,880c1.4-7.6,8.3-13.8,19.3-13.8c12.7,0,19.9,7.9,19.9,17.2c0,9.3-6.9,17.2-19.9,17.2
	c-11.3,0-18.2-6.2-19.6-14.4c-3.8,0.7-4.1,3.4-4.1,8.3v2.8h-5.5v-5.2C470,884.1,474.1,880.4,479.6,880z M498.9,894.5
	c8.9,0,13.8-4.1,13.8-10.7s-4.8-10.7-13.8-10.7c-8.9,0-14.1,4.1-14.1,10.7C485.1,890,490,894.5,498.9,894.5z"/>
<path fill="#F2F2F0" d="M493.7,912h24.1v6.5h-23.7c-5.8,0-9.3,2.4-9.3,8.3c0,5.8,3.4,8.3,9.3,8.3h23.7v6.2h-24.1
	c-8.6,0-14.4-4.8-14.4-14.8C479.3,916.5,485.1,912,493.7,912z"/>
<path fill="#F2F2F0" d="M518.2,955.3v6.5H480v-6.5H518.2z"/>
<path fill="#F2F2F0" d="M518.2,976.3v13.8c0,8.9-3.8,14.4-11.3,14.4c-6.2,0-9.6-3.1-10.7-8.6l-15.8,8.9V998l15.1-8.6v-6.9h-15.1
	v-6.2L518.2,976.3L518.2,976.3z M500.6,989.7c0,5.5,1.4,8.3,5.8,8.3s5.8-2.8,5.8-8.3v-6.9h-11.7V989.7z"/>
<path fill="#F2F2F0" d="M518.2,1016.9v24.8h-5.8v-18.2h-9.6v13.4h-5.8v-13.4h-11v19.3H480v-25.8L518.2,1016.9L518.2,1016.9z"/>
<path fill="#F2F2F0" d="M486.5,1053.3v7.2H480v-7.2H486.5z"/>
<path fill="#F2F2F0" d="M499.2,1069.5c12.7,0,19.6,7.2,19.6,16.8c0,8.9-4.8,13.1-12,14.8l-1.7-6.2c5.2-1.4,7.6-3.8,7.6-8.6
	c0-6.5-5.2-10.3-13.8-10.3c-8.9,0-14.1,3.8-14.1,10.3c0,4.8,2.4,7.6,8.3,9.3l-1.4,6.2c-7.6-1.7-12.7-6.5-12.7-15.5
	C479.3,1076.7,485.8,1069.5,499.2,1069.5z"/>
<path fill="#F2F2F0" d="M498.9,1111.1c12.7,0,19.9,7.6,19.9,17.2s-6.9,17.2-19.9,17.2c-13.1,0-19.9-7.6-19.9-17.2
	C479.3,1118.7,486.2,1111.1,498.9,1111.1z M498.9,1139.3c8.9,0,13.8-4.1,13.8-10.7s-4.8-10.7-13.8-10.7c-8.9,0-14.1,4.1-14.1,10.7
	C485.1,1134.8,490,1139.3,498.9,1139.3z"/>
<path fill="#F2F2F0" d="M518.2,1157.5v8.6l-30.3,10.3l0,0l30.3,10v8.6H480v-6.2h28.5l0,0c-2.8-0.7-5.2-1.4-7.9-2.4l-20.6-7.6v-5.8
	l20.6-7.2c2.8-1,4.5-1.4,7.9-2.4l0,0h-28.9v-5.8L518.2,1157.5L518.2,1157.5z"/>
<path fill="#F2F2F0" d="M312.5,911v6.5l-29.9,10l0,0l29.9,10v6.2l-38.2-13.4v-5.8L312.5,911z"/>
<path fill="#F2F2F0" d="M293.6,950.5c12.7,0,19.9,7.6,19.9,17.2s-6.9,17.2-19.9,17.2s-19.9-7.6-19.9-17.2
	C273.7,958.1,280.6,950.5,293.6,950.5z M293.6,978.4c8.9,0,13.8-4.1,13.8-10.7s-4.8-10.7-13.8-10.7c-8.9,0-14.1,4.1-14.1,10.7
	C279.5,974.2,284.7,978.4,293.6,978.4z"/>
<path fill="#F2F2F0" d="M293.6,995.2c12.4,0,19.6,6.5,19.6,16.8c0,7.2-3.4,12.4-12,14.8l-1.7-5.8c5.8-1.7,7.6-4.5,7.6-8.9
	c0-4.5-2.8-10.3-13.4-10.3s-14.4,5.2-14.4,10.7c0,5.2,3.1,8.6,8.6,8.9v-7.6h5.2v13.8H274v-5.2h5.5l0,0c-2.8-1-6.2-4.5-6.2-10.3
	C273.7,1000.4,281.9,995.2,293.6,995.2z"/>
<path fill="#F2F2F0" d="M288.5,1039.6h24.1v6.5h-23.7c-5.8,0-9.3,2.4-9.3,8.3c0,5.8,3.4,8.3,9.3,8.3h23.7v6.2h-24.1
	c-8.6,0-14.4-4.8-14.4-14.8C274,1043.7,279.9,1039.6,288.5,1039.6z"/>
<path fill="#F2F2F0" d="M312.5,1082.2v24.8h-5.8v-18.2h-9.6v13.4h-5.8v-13.4h-11v19.3h-5.8v-25.8L312.5,1082.2L312.5,1082.2z"/>
<path fill="#F2F2F0" d="M281.2,1118.7v7.2h-6.5v-7.2H281.2z"/>
<path fill="#F2F2F0" d="M293.6,1135.2c12.7,0,19.6,7.2,19.6,16.8c0,8.9-4.8,13.1-12,14.8l-1.7-6.2c5.2-1.4,7.6-3.8,7.6-8.6
	c0-6.5-5.2-10.3-13.8-10.3c-8.9,0-14.1,3.8-14.1,10.3c0,4.8,2.4,7.6,8.3,9.3l-1.4,6.2c-7.6-1.7-12.7-6.5-12.7-15.5
	C273.7,1142,280.6,1135.2,293.6,1135.2z"/>
<path fill="#F2F2F0" d="M293.6,1176.8c12.7,0,19.9,7.6,19.9,17.2s-6.9,17.2-19.9,17.2s-19.9-7.6-19.9-17.2
	S280.6,1176.8,293.6,1176.8z M293.6,1204.6c8.9,0,13.8-4.1,13.8-10.7s-4.8-10.7-13.8-10.7c-8.9,0-14.1,4.1-14.1,10.7
	C279.5,1200.5,284.7,1204.6,293.6,1204.6z"/>
<path fill="#F2F2F0" d="M312.5,1223.2v8.6l-30.3,10.3l0,0l30.3,10v8.6h-38.2v-6.2h28.5l0,0c-2.8-0.7-5.2-1.4-7.9-2.4l-20.6-7.6v-5.8
	l20.6-7.2c2.8-1,4.5-1.4,7.9-2.4l0,0H274v-5.8L312.5,1223.2L312.5,1223.2z"/>
<path fill="#F2F2F0" d="M89,1036.1c12.4,0,19.6,6.5,19.6,16.8c0,7.2-3.4,12.4-12,14.8l-1.7-5.8c5.8-1.7,7.6-4.5,7.6-8.9
	c0-4.5-2.8-10.3-13.4-10.3s-14.4,5.2-14.4,10.7c0,5.2,3.1,8.6,8.6,8.9v-7.6h5.2v13.8H69.4v-5.2h5.5l0,0c-2.8-1-6.2-4.5-6.2-10.3
	C69.1,1041.3,77.3,1036.1,89,1036.1z"/>
<path fill="#F2F2F0" d="M69.4,1093.2c1.4-7.6,8.3-13.8,19.3-13.8c12.7,0,19.9,7.9,19.9,17.2c0,9.3-6.9,17.2-19.9,17.2
	c-11.3,0-18.2-6.2-19.6-14.4c-3.8,0.7-4.1,3.4-4.1,8.3v2.8h-5.5v-5.2C59.8,1097.3,63.9,1093.2,69.4,1093.2z M89,1107.6
	c8.9,0,13.8-4.1,13.8-10.7c0-6.5-4.8-10.7-13.8-10.7s-14.1,4.1-14.1,10.7C74.9,1103.2,80.1,1107.6,89,1107.6z"/>
<path fill="#F2F2F0" d="M76.7,1123.1v7.2h-6.5v-7.2H76.7z"/>
<path fill="#F2F2F0" d="M89,1139.6c12.7,0,19.6,7.2,19.6,16.8c0,8.9-4.8,13.1-12,14.8l-1.7-6.2c5.2-1.4,7.6-3.8,7.6-8.6
	c0-6.5-5.2-10.3-13.8-10.3c-8.9,0-14.1,3.8-14.1,10.3c0,4.8,2.4,7.6,8.3,9.3l-1.4,6.2c-7.6-1.7-12.7-6.5-12.7-15.5
	C69.1,1146.5,76,1139.6,89,1139.6z"/>
<path fill="#F2F2F0" d="M89,1181.2c12.7,0,19.9,7.6,19.9,17.2s-6.9,17.2-19.9,17.2s-19.9-7.6-19.9-17.2
	C69.1,1188.8,76,1181.2,89,1181.2z M89,1209.1c8.9,0,13.8-4.1,13.8-10.7s-4.8-10.7-13.8-10.7s-14.1,4.1-14.1,10.7
	C74.9,1204.6,80.1,1209.1,89,1209.1z"/>
<path fill="#F2F2F0" d="M107.9,1227.7v8.6l-30.3,10.3l0,0l30.3,10v8.6H69.8v-6.2h28.5l0,0c-2.8-0.7-5.2-1.4-7.9-2.4l-20.6-7.6v-5.8
	l20.6-7.2c2.8-1,4.5-1.4,7.9-2.4l0,0H69.4v-5.8L107.9,1227.7L107.9,1227.7z"/>
<path fill="#FFFFFF" d="M957.2,731.8c0,14.8-12.4,17.5-15.5,18.2v4.5h20.3v-58.5h-4.5c0,7.2-4.5,7.2-8.9,7.2h-88
	c-4.5,0-8.9,0.3-8.9-7.2h-4.5v58.5h20.3V750c-2.8-0.7-15.5-3.4-15.5-18.2V717h51.6v13.4c0,6.5-5.2,7.9-8.6,8.6v4.8h23.4V739
	c-3.4-0.7-8.6-2.1-8.6-8.6V717h46.8v14.8H957.2z"/>
<path fill="#FFFFFF" d="M853.1,372.5v-13.1h52.3v13.1c0,15.5-18.6,17.5-26.8,17.5C869.9,390,853.1,387.6,853.1,372.5 M910.5,372.5
	v-13.1h46.8v13.1c0,15.5-14.1,17.5-22.4,17.5C926.3,390,910.5,387.6,910.5,372.5 M907.7,388.7c2.8,10,13.1,16.2,26.8,16.2
	c12.4,0,27.5-3.4,27.5-32.7v-33.7h-4.5c0,7.2-4.5,7.2-8.9,7.2h-88c-4.5,0-8.9,0.3-8.9-7.2h-4.5v33.7c0,29.2,18.2,32.7,30.6,32.7
	C892.3,404.8,904.6,398.6,907.7,388.7"/>
<path fill="#FFFFFF" d="M962.4,668.2h-4.5c0,7.6-4.1,7.9-8.9,6.9l-89.1-19.3l89.1-18.6c4.5-1,8.9-1.7,8.9,5.2h4.5v-30.3h-4.5
	c0,6.5-3.8,8.9-8.9,10l-101.1,22v12v3.4l101.1,22c4.5,1,8.9,3.1,8.9,9.6h4.5V668.2z"/>
<path fill="#FFFFFF" d="M851.7,296.9c0-20.6,30.6-18.6,53.6-18.6s53.6-1.7,53.6,18.6c0,20.6-30.6,18.6-53.6,18.6
	S851.7,317.5,851.7,296.9 M964.5,296.9c0-21-12.7-33.7-59.1-33.7c-49.9,0-59.1,13.1-59.1,33.7c0,20.3,9.6,33.7,59.1,33.7
	C957.2,330.6,964.5,316.5,964.5,296.9"/>
<path fill="#FFFFFF" d="M851.7,972.9c0-20.6,30.6-18.6,53.6-18.6s53.6-1.7,53.6,18.6c0,20.6-30.6,18.6-53.6,18.6
	S851.7,993.5,851.7,972.9 M964.5,972.9c0-21-12.7-33.7-59.1-33.7c-49.9,0-59.1,13.1-59.1,33.7c0,20.3,9.6,33.7,59.1,33.7
	C957.2,1006.9,964.5,992.8,964.5,972.9"/>
<path fill="#FFFFFF" d="M957.2,785.1v13.1c0,15.5-15.8,17.5-24.4,17.5c-8.3,0-25.4-2.4-25.4-17.5v-13.1H957.2z M861.3,830.2
	l42.6-18.6c2.1,9.3,13.8,18.9,28.5,18.9c12.4,0,29.9-3.4,29.9-32.7v-33.7h-4.5c0,7.2-4.5,7.2-8.9,7.2h-88c-4.5,0-8.9,0.3-8.9-7.2
	h-4.5V792h4.5c0-7.2,4.5-7.2,8.9-7.2h41.3v12.4l-54.3,23.4v19.6h4.5C852.4,833.6,856.8,831.9,861.3,830.2"/>
<path fill="#FFFFFF" d="M957.2,511.4c0,14.8-12.4,17.5-15.5,18.2v4.5h20.3v-58.5h-4.5c0,7.2-4.5,7.2-8.9,7.2h-88
	c-4.5,0-8.9,0.3-8.9-7.2h-4.5v58.5h20.3v-4.5c-2.8-0.7-15.5-3.4-15.5-18.2v-14.8h51.6V510c0,6.5-5.2,7.9-8.6,8.6v4.8h23.4v-4.8
	c-3.4-0.7-8.6-2.1-8.6-8.6v-13.4h46.8v14.8H957.2z"/>
<path fill="#FFFFFF" d="M957.2,564.4v13.1c0,15.5-15.8,17.5-24.4,17.5c-8.3,0-25.4-2.4-25.4-17.5v-13.1H957.2z M861.3,609.8
	l42.6-18.6c2.1,9.3,13.8,18.9,28.5,18.9c12.4,0,29.9-3.4,29.9-32.7v-33.7h-4.5c0,7.2-4.5,7.2-8.9,7.2h-88c-4.5,0-8.9,0.3-8.9-7.2
	h-4.5v27.9h4.5c0-7.2,4.5-7.2,8.9-7.2h41.3v12.4l-54.3,23.4v19.6h4.5C852.4,612.9,856.8,611.5,861.3,609.8"/>
<path fill="#FFFFFF" d="M874.7,469.8c36.8,0,41.3-43,69.8-43c10,0,14.4,8.6,14.4,16.2c0,12-10,16.8-17.2,16.8v5.5h18.9
	c8.6-18.6,5.8-50.2-23-50.2c-28.5,0-38.2,43-65.3,43c-10,0-19.3-7.2-19.3-19.9c0-14.4,10.7-17.9,17.9-17.9v-5.5H851
	C842.1,433.4,845.8,469.8,874.7,469.8"/>
<circle fill="#FFFFFF" cx="856.5" cy="859" r="9.6"/>
<path fill="#FFFFFF" d="M861.3,1020.7c-4.5,0-8.9,0.3-8.9-7.2h-4.5v21h4.5c0-7.2,4.5-7.2,8.9-7.2h86l-99.4,27.9v8.9l99.4,27.9h-86
	c-4.5,0-8.9,0.3-8.9-7.2h-4.5v28.2h4.5c0-7.2,4.5-7.2,8.9-7.2h88c4.5,0,8.9-0.3,8.9,7.2h4.5v-23.4l-93.2-26.5l93.2-25.8v-24.1h-4.5
	c0,7.2-4.5,7.2-8.9,7.2h-88V1020.7z"/>
<path fill="#FFFFFF" d="M905.3,885.9c23,0,53.6,0.7,53.6,21c0,12.4-10,16.5-20.3,17.2v6.5h16.2c5.8-5.2,9.6-13.8,9.6-24.1
	c0-21-12.7-36.1-59.1-36.1c-46.4,0-59.1,15.1-59.1,36.1c0,10.3,4.1,18.9,9.6,24.1H872v-6.2c-10.7-0.7-20.3-4.8-20.3-17.2
	C851.7,886.6,882.3,885.9,905.3,885.9z"/>
<rect x="805.8" y="-1" fill="#FFFFFF" width="186.3" height="1316.6" idx="4"/>
<rect x="608.8" y="116" fill="#FFFFFF" width="186.3" height="1199.5" idx="3"/>
<rect x="400.4" y="116" fill="#FFFFFF" width="186.3" height="1199.5" idx="2"/>
<rect x="201.7" y="116" fill="#FFFFFF" width="204.8" height="1199.5" idx="1"/>
<rect x="0.3" y="116" fill="#FFFFFF" width="201.2" height="1199.5" idx="0"/>
</svg>
