<?xml version="1.0" encoding="utf-8"?>
<!-- Generator: Adobe Illustrator 18.0.0, SVG Export Plug-In . SVG Version: 6.00 Build 0)  -->
<!DOCTYPE svg PUBLIC "-//W3C//DTD SVG 1.1//EN" "http://www.w3.org/Graphics/SVG/1.1/DTD/svg11.dtd">
<svg version="1.1" id="Layer_1" xmlns="http://www.w3.org/2000/svg" xmlns:xlink="http://www.w3.org/1999/xlink" x="0px" y="0px"
	 viewBox="0 0 1280 800" enable-background="new 0 0 1280 800" xml:space="preserve">
<path fill="#8B8B88" d="M342.3,4.3h5.3l6.3,18.6l0,0L360,4.3h5.3v23.4h-3.8V10.4l0,0c-0.4,1.7-0.9,3.2-1.5,4.8l-4.7,12.6h-3.6
	l-4.4-12.6c-0.6-1.9-1-2.9-1.5-5.1l0,0v17.7h-3.6V4.3H342.3z"/>
<path fill="#8B8B88" d="M369.3,16.1c0-7.8,4.7-12.2,10.5-12.2s10.5,4.2,10.5,12.2s-4.7,12.2-10.5,12.2
	C373.9,28.1,369.3,23.9,369.3,16.1z M386.4,16.1c0-5.5-2.5-8.5-6.6-8.5s-6.6,2.9-6.6,8.5s2.5,8.6,6.6,8.6
	C383.9,24.5,386.4,21.6,386.4,16.1z"/>
<path fill="#8B8B88" d="M394.6,4.3h4l11,16.7l0,0V4.3h3.8v23.4h-3.6l-11.4-17.1l0,0v17.1h-3.6V4.3H394.6z"/>
<path fill="#8B8B88" d="M424.1,8.1H417V4.3h18.3v3.8h-7.2v19.8h-4L424.1,8.1L424.1,8.1z"/>
<path fill="#8B8B88" d="M438.9,4.3h4v9.3h10.5V4.3h4v23.4h-4V17.4h-10.5v10.3h-4V4.3z"/>
<path fill="#8B8B88" d="M462.7,4.3h4v19.8h10.7v3.6h-14.8L462.7,4.3L462.7,4.3z"/>
<path fill="#8B8B88" d="M483.8,17.6l-8-13.3h4.2l5.9,10.1l5.9-9.9h4.2l-8,13.3v10.1h-4V17.6H483.8z"/>
<path fill="#8B8B88" d="M505.3,19.3V4.5h4V19c0,3.6,1.5,5.7,5.1,5.7s5.1-2.1,5.1-5.7V4.3h3.8v14.8c0,5.3-2.9,8.8-9.1,8.8
	C507.8,28.1,505.3,24.5,505.3,19.3z"/>
<path fill="#8B8B88" d="M526.4,4.3h4l6.1,18.3l0,0l6.1-18.3h3.8l-8.2,23.4h-3.8L526.4,4.3z"/>
<path fill="#8B8B88" d="M545.8,25.4l2.1-2.3c1.3,1,3.2,1.9,5.3,1.9s3.4-0.6,3.4-1.9s-1.7-1.7-3.8-2.3c-2.9-0.6-6.3-1.5-6.3-5.3
	c0-2.9,2.5-4.8,6.3-4.8c3.2,0,5.1,0.9,6.9,2.3l-1.9,2.5c-1.3-1-3.2-1.9-4.7-1.9c-2.1,0-2.8,0.9-2.8,1.7c0,1.3,1.7,1.7,3.6,2.1
	c2.9,0.6,6.3,1.3,6.3,5.3c0,3.6-3.2,5.3-6.9,5.3C550.3,28.1,547.3,27,545.8,25.4z"/>
<path fill="#8B8B88" d="M563.8,11h4.4v4.2h-4.4V11z M563.8,23.7h4.4v4h-4.4V23.7z"/>
<rect x="841.3" y="47.1" fill="#C4A65C" width="101.4" height="752.9"/>
<rect x="717" y="370.8" fill="#8B8B88" width="101.4" height="429.4"/>
<rect x="591.2" y="413.2" fill="#8B8B88" width="101.4" height="386.8"/>
<rect x="465" y="523.7" fill="#8B8B88" width="101.4" height="276.5"/>
<rect x="339.6" y="611" fill="#8B8B88" width="101.4" height="189"/>
<path fill="#F2F2F0" d="M780.9,429.5v4l-18.3,6.1l0,0l18.3,6.1v3.8l-23.4-8.2v-3.8L780.9,429.5z"/>
<path fill="#F2F2F0" d="M781.2,460.7v3.8l-23.4,8.2v-4l5.5-1.9V458l-5.5-1.9v-3.8L781.2,460.7z M766.6,465.7l9.5-3.2l0,0l-9.5-3.1
	V465.7z"/>
<path fill="#F2F2F0" d="M780.9,479.5v4l-16.7,11l0,0h16.7v3.6h-23.4v-3.6l17.1-11.4l0,0h-17.1v-3.6H780.9L780.9,479.5z"/>
<path fill="#F2F2F0" d="M780.9,507.1v4h-23.4v-4H780.9z"/>
<path fill="#F2F2F0" d="M777.4,525.2V518h3.6v18.3h-3.6V529h-19.8v-4h19.8V525.2z"/>
<path fill="#F2F2F0" d="M767.7,548.8l13.3-8v4.2l-9.9,5.9l9.9,5.9v4.2l-13.3-8h-10.1v-4h10.1V548.8z"/>
<path fill="#F2F2F0" d="M780.9,567v14.8h-3.6V571H771v7.8h-3.4V571h-9.9v-4H780.9L780.9,567z"/>
<path fill="#F2F2F0" d="M781.2,592.5v3.8l-23.4,8.2v-4l5.5-1.9v-8.8l-5.5-1.9V584L781.2,592.5z M766.6,597.5l9.5-3.2l0,0l-9.5-3.2
	V597.5z"/>
<path fill="#F2F2F0" d="M780.9,611.5v4h-23.4v-4H780.9z"/>
<path fill="#F2F2F0" d="M780.9,624.2v8.5c0,5.5-2.3,8.8-6.9,8.8c-3.8,0-5.9-1.9-6.6-5.3l-9.7,5.5v-4.2l9.3-5.3v-4h-9.3v-3.8h23.2
	V624.2z M770.2,632.4c0,3.4,0.9,5.1,3.6,5.1c2.8,0,3.6-1.7,3.6-5.1v-4.2h-7.2L770.2,632.4L770.2,632.4z"/>
<path fill="#F2F2F0" d="M761.8,648.8v4.4h-4v-4.4H761.8z"/>
<path fill="#F2F2F0" d="M769.4,658.7c7.8,0,12,4.4,12,10.3c0,5.5-2.9,8-7.2,9.1l-1-3.8c3.2-0.9,4.7-2.3,4.7-5.3c0-4-3.2-6.3-8.5-6.3
	c-5.5,0-8.6,2.3-8.6,6.3c0,2.9,1.5,4.7,5.1,5.7l-0.9,3.8c-4.7-1-7.8-4-7.8-9.5C757.2,662.9,761.4,658.7,769.4,658.7z"/>
<path fill="#F2F2F0" d="M769.4,684.3c7.8,0,12.2,4.7,12.2,10.5c0,5.9-4.2,10.5-12.2,10.5s-12.2-4.7-12.2-10.5
	C757.2,688.9,761.4,684.3,769.4,684.3z M769.4,701.3c5.5,0,8.5-2.5,8.5-6.6c0-4-2.9-6.6-8.5-6.6c-5.5,0-8.6,2.5-8.6,6.6
	C760.7,698.8,763.9,701.3,769.4,701.3z"/>
<path fill="#F2F2F0" d="M780.9,712.7v5.3l-18.6,6.3l0,0l18.6,6.1v5.3h-23.4v-3.8H775l0,0c-1.7-0.4-3.2-0.9-4.8-1.5l-12.6-4.7v-3.6
	l12.6-4.4c1.7-0.6,2.8-0.9,4.8-1.5l0,0h-17.7v-3.6L780.9,712.7L780.9,712.7z"/>
<path fill="#F2F2F0" d="M655.1,486.2v15.2h-3.6v-11.2h-5.9v8.2H642v-8.2h-6.7V502h-3.7v-15.8H655.1L655.1,486.2z"/>
<path fill="#F2F2F0" d="M637.1,507.3l1.7,3.2c-2.8,1.5-4,3.6-4,6.6s0.9,4.8,2.9,4.8c2.1,0,2.9-1.5,4-5.3c1.3-4.4,2.5-8.2,6.9-8.2
	c4,0,6.6,3.2,6.6,8c0,4.7-2.3,7.4-5.1,8.8l-1.9-2.9c2.3-1.5,3.4-3.4,3.4-5.9s-1-4-2.8-4c-2.1,0-2.9,1.7-4,5.5c-1.3,4.4-2.8,8-7.2,8
	c-3.8,0-6.7-3.2-6.7-8.8C631.2,511.9,633.6,508.8,637.1,507.3z"/>
<path fill="#F2F2F0" d="M631.4,539.8c0.9-4.7,5.1-8.5,11.8-8.5c7.8,0,12.2,4.8,12.2,10.5s-4.2,10.5-12.2,10.5
	c-6.9,0-11.2-3.8-12-8.8c-2.3,0.4-2.5,2.1-2.5,5.1v1.7h-3.4v-3.2C625.5,542.3,628,540,631.4,539.8z M643.3,548.6
	c5.5,0,8.5-2.5,8.5-6.6s-2.9-6.6-8.5-6.6c-5.5,0-8.6,2.5-8.6,6.6C634.8,545.9,637.8,548.6,643.3,548.6z"/>
<path fill="#F2F2F0" d="M640.1,559.4h14.8v4h-14.5c-3.6,0-5.7,1.5-5.7,5.1s2.1,5.1,5.7,5.1h14.5v3.8h-14.8c-5.3,0-8.8-2.9-8.8-9.1
	S634.8,559.4,640.1,559.4z"/>
<path fill="#F2F2F0" d="M655.1,585.9v4h-23.4v-4H655.1z"/>
<path fill="#F2F2F0" d="M655.1,598.8v8.5c0,5.5-2.3,8.8-6.9,8.8c-3.8,0-5.9-1.9-6.6-5.3l-9.7,5.5v-4.2l9.3-5.3v-4.2h-9.3v-3.8H655.1
	L655.1,598.8z M644.3,607c0,3.4,0.9,5.1,3.6,5.1c2.7,0,3.6-1.7,3.6-5.1v-4.2h-7.2L644.3,607L644.3,607z"/>
<path fill="#F2F2F0" d="M655.1,623.7v15.2h-3.6v-11.2h-5.9v8.2H642v-8.2h-6.7v11.8h-3.7v-15.8H655.1L655.1,623.7z"/>
<path fill="#F2F2F0" d="M635.6,646v4.4h-4V646H635.6z"/>
<path fill="#F2F2F0" d="M643.4,656c7.8,0,12,4.4,12,10.3c0,5.5-2.9,8-7.4,9.1l-1-3.8c3.2-0.9,4.7-2.3,4.7-5.3c0-4-3.2-6.3-8.5-6.3
	c-5.5,0-8.6,2.3-8.6,6.3c0,2.9,1.5,4.7,5.1,5.7l-0.9,3.8c-4.7-1-7.8-4-7.8-9.5C631.2,660.4,635.2,656,643.4,656z"/>
<path fill="#F2F2F0" d="M643.3,681.5c7.8,0,12.2,4.7,12.2,10.5s-4.2,10.5-12.2,10.5s-12.2-4.7-12.2-10.5
	C631.2,686.2,635.5,681.5,643.3,681.5z M643.3,698.8c5.5,0,8.5-2.5,8.5-6.6c0-4-2.9-6.6-8.5-6.6c-5.5,0-8.6,2.5-8.6,6.6
	C634.8,696,637.8,698.8,643.3,698.8z"/>
<path fill="#F2F2F0" d="M655.1,710v5.3l-18.6,6.3l0,0l18.6,6.1v5.3h-23.4v-3.8h17.5l0,0c-1.7-0.4-3.2-0.9-4.8-1.5l-12.6-4.7v-3.6
	l12.6-4.4c1.7-0.6,2.8-0.9,4.8-1.5l0,0h-17.7V710H655.1L655.1,710z"/>
<path fill="#F2F2F0" d="M528.9,558.8v4l-18.3,6.1l0,0l18.3,6.1v3.8l-23.4-8.2V567L528.9,558.8z"/>
<path fill="#F2F2F0" d="M517.3,583c7.8,0,12.2,4.7,12.2,10.5s-4.2,10.5-12.2,10.5s-12.2-4.7-12.2-10.5S509.4,583,517.3,583z
	 M517.3,600.1c5.5,0,8.5-2.5,8.5-6.6s-2.9-6.6-8.5-6.6c-5.5,0-8.6,2.5-8.6,6.6C508.7,597.5,511.9,600.1,517.3,600.1z"/>
<path fill="#F2F2F0" d="M517.3,610.4c7.6,0,12,4,12,10.3c0,4.4-2.1,7.6-7.4,9.1l-1-3.6c3.6-1,4.7-2.8,4.7-5.5c0-2.8-1.7-6.3-8.2-6.3
	s-8.8,3.2-8.8,6.6c0,3.2,1.9,5.3,5.3,5.5v-4.7h3.2v8.5h-11.7v-3.2h3.4l0,0c-1.7-0.6-3.8-2.8-3.8-6.3
	C505.1,613.6,510.2,610.4,517.3,610.4z"/>
<path fill="#F2F2F0" d="M514.2,637.6H529v4h-14.5c-3.6,0-5.7,1.5-5.7,5.1s2.1,5.1,5.7,5.1H529v3.8h-14.8c-5.3,0-8.8-2.9-8.8-9.1
	C505.3,640.2,508.9,637.6,514.2,637.6z"/>
<path fill="#F2F2F0" d="M528.9,663.8V679h-3.6v-11.2h-5.9v8.2h-3.6v-8.2h-6.7v11.8h-3.6v-15.8H528.9L528.9,663.8z"/>
<path fill="#F2F2F0" d="M509.7,686.2v4.4h-4v-4.4H509.7z"/>
<path fill="#F2F2F0" d="M517.3,696.3c7.8,0,12,4.4,12,10.3c0,5.5-2.9,8-7.4,9.1l-1-3.8c3.2-0.9,4.7-2.3,4.7-5.3c0-4-3.2-6.3-8.5-6.3
	c-5.5,0-8.6,2.3-8.6,6.3c0,2.9,1.5,4.7,5.1,5.7l-0.9,3.8c-4.7-1-7.8-4-7.8-9.5C505.1,700.5,509.4,696.3,517.3,696.3z"/>
<path fill="#F2F2F0" d="M517.3,721.8c7.8,0,12.2,4.7,12.2,10.5c0,5.9-4.2,10.5-12.2,10.5s-12.2-4.7-12.2-10.5
	C505.1,726.5,509.4,721.8,517.3,721.8z M517.3,738.8c5.5,0,8.5-2.5,8.5-6.6s-2.9-6.6-8.5-6.6c-5.5,0-8.6,2.5-8.6,6.6
	S511.9,738.8,517.3,738.8z"/>
<path fill="#F2F2F0" d="M528.9,750.3v5.3l-18.6,6.3l0,0l18.6,6.1v5.3h-23.4v-3.8H523l0,0c-1.7-0.4-3.2-0.9-4.8-1.5l-12.6-4.7v-3.6
	l12.6-4.4c1.7-0.6,2.8-0.9,4.8-1.5l0,0h-17.7v-3.6L528.9,750.3L528.9,750.3z"/>
<path fill="#F2F2F0" d="M391.8,635.5c7.6,0,12,4,12,10.3c0,4.4-2.1,7.6-7.4,9.1l-1-3.6c3.6-1,4.7-2.8,4.7-5.5c0-2.8-1.7-6.3-8.2-6.3
	s-8.8,3.2-8.8,6.6c0,3.2,1.9,5.3,5.3,5.5v-4.7h3.2v8.5h-11.7v-3.2h3.4l0,0c-1.7-0.6-3.8-2.8-3.8-6.3
	C379.6,638.7,384.7,635.5,391.8,635.5z"/>
<path fill="#F2F2F0" d="M379.8,670.5c0.9-4.7,5.1-8.5,11.8-8.5c7.8,0,12.2,4.8,12.2,10.5s-4.2,10.5-12.2,10.5
	c-6.9,0-11.2-3.8-12-8.8c-2.3,0.4-2.5,2.1-2.5,5.1v1.7h-3.4v-3.2C373.9,673,376.4,670.5,379.8,670.5z M391.8,679.4
	c5.5,0,8.5-2.5,8.5-6.6c0-4-2.9-6.6-8.5-6.6s-8.6,2.5-8.6,6.6C383.2,676.7,386.4,679.4,391.8,679.4z"/>
<path fill="#F2F2F0" d="M384.3,688.9v4.4h-4v-4.4H384.3z"/>
<path fill="#F2F2F0" d="M391.8,699c7.8,0,12,4.4,12,10.3c0,5.5-2.9,8-7.4,9.1l-1-3.8c3.2-0.9,4.7-2.3,4.7-5.3c0-4-3.2-6.3-8.5-6.3
	c-5.5,0-8.6,2.3-8.6,6.3c0,2.9,1.5,4.7,5.1,5.7l-0.9,3.8c-4.7-1-7.8-4-7.8-9.5C379.6,703.2,383.9,699,391.8,699z"/>
<path fill="#F2F2F0" d="M391.8,724.5c7.8,0,12.2,4.7,12.2,10.5c0,5.9-4.2,10.5-12.2,10.5s-12.2-4.7-12.2-10.5
	C379.6,729.2,383.9,724.5,391.8,724.5z M391.8,741.6c5.5,0,8.5-2.5,8.5-6.6c0-4-2.9-6.6-8.5-6.6s-8.6,2.5-8.6,6.6
	C383.2,738.8,386.4,741.6,391.8,741.6z"/>
<path fill="#F2F2F0" d="M403.4,753v5.3l-18.6,6.3l0,0l18.6,6.1v5.3H380v-3.8h17.5l0,0c-1.7-0.4-3.2-0.9-4.8-1.5l-12.6-4.7v-3.6
	l12.6-4.4c1.7-0.6,2.8-0.9,4.8-1.5l0,0h-17.7v-3.6L403.4,753L403.4,753z"/>
<path fill="#FFFFFF" d="M924.4,448.9c0,9.1-7.6,10.7-9.5,11.2v2.8h12.5V427h-2.8c0,4.4-2.8,4.4-5.5,4.4h-54c-2.8,0-5.5,0.2-5.5-4.4
	h-2.8v35.9h12.5V460c-1.7-0.4-9.5-2.1-9.5-11.2v-9.1h31.6v8.2c0,4-3.2,4.8-5.3,5.3v2.9h14.4v-2.9c-2.1-0.4-5.3-1.3-5.3-5.3v-8.2H924
	v9.1h0.4V448.9z"/>
<path fill="#FFFFFF" d="M860.5,228.5v-8h32.1v8c0,9.5-11.4,10.7-16.4,10.7C870.8,239.2,860.5,237.7,860.5,228.5 M895.7,228.5v-8
	h28.7v8c0,9.5-8.6,10.7-13.7,10.7C905.4,239.2,895.7,237.7,895.7,228.5 M894,238.4c1.7,6.1,8,9.9,16.4,9.9c7.6,0,16.9-2.1,16.9-20.1
	v-20.7h-2.8c0,4.4-2.8,4.4-5.5,4.4h-54c-2.8,0-5.5,0.2-5.5-4.4h-2.8v20.7c0,17.9,11.2,20.1,18.8,20.1
	C884.5,248.3,892.1,244.5,894,238.4"/>
<path fill="#FFFFFF" d="M927.5,409.8h-2.8c0,4.7-2.5,4.8-5.5,4.2l-54.6-11.8l54.6-11.4c2.8-0.6,5.5-1,5.5,3.2h2.8v-18.6h-2.8
	c0,4-2.3,5.5-5.5,6.1l-62,13.5v7.4v2.1l62,13.5c2.8,0.6,5.5,1.9,5.5,5.9h2.8V409.8z"/>
<path fill="#FFFFFF" d="M859.6,182.1c0-12.6,18.8-11.4,32.9-11.4s32.9-1,32.9,11.4c0,12.6-18.8,11.4-32.9,11.4
	S859.6,194.7,859.6,182.1 M928.8,182.1c0-12.9-7.8-20.7-36.2-20.7c-30.6,0-36.2,8-36.2,20.7c0,12.5,5.9,20.7,36.2,20.7
	C924.4,202.8,928.8,194.1,928.8,182.1"/>
<path fill="#FFFFFF" d="M859.6,596.7c0-12.6,18.8-11.4,32.9-11.4s32.9-1,32.9,11.4c0,12.6-18.8,11.4-32.9,11.4
	S859.6,609.4,859.6,596.7 M928.8,596.7c0-12.9-7.8-20.7-36.2-20.7c-30.6,0-36.2,8-36.2,20.7c0,12.5,5.9,20.7,36.2,20.7
	C924.4,617.6,928.8,608.9,928.8,596.7"/>
<path fill="#FFFFFF" d="M924.4,481.5v8c0,9.5-9.7,10.7-15,10.7c-5.1,0-15.6-1.5-15.6-10.7v-8H924.4z M865.5,509.2l26.1-11.4
	c1.3,5.7,8.5,11.6,17.5,11.6c7.6,0,18.3-2.1,18.3-20.1v-20.7h-2.8c0,4.4-2.8,4.4-5.5,4.4h-54c-2.8,0-5.5,0.2-5.5-4.4h-2.8v17.1h2.8
	c0-4.4,2.8-4.4,5.5-4.4h25.3v7.6l-33.3,14.4v12h2.8C860.1,511.3,862.8,510.3,865.5,509.2"/>
<path fill="#FFFFFF" d="M924.4,313.7c0,9.1-7.6,10.7-9.5,11.2v2.8h12.5v-35.9h-2.8c0,4.4-2.8,4.4-5.5,4.4h-54
	c-2.8,0-5.5,0.2-5.5-4.4h-2.8v35.9h12.5v-2.8c-1.7-0.4-9.5-2.1-9.5-11.2v-9.1h31.6v8.2c0,4-3.2,4.8-5.3,5.3v2.9h14.4v-2.9
	c-2.1-0.4-5.3-1.3-5.3-5.3v-8.2H924v9.1H924.4L924.4,313.7z"/>
<path fill="#FFFFFF" d="M924.4,346.2v8c0,9.5-9.7,10.7-15,10.7c-5.1,0-15.6-1.5-15.6-10.7v-8H924.4z M865.5,374l26.1-11.4
	c1.3,5.7,8.5,11.6,17.5,11.6c7.6,0,18.3-2.1,18.3-20.1v-20.7h-2.8c0,4.4-2.8,4.4-5.5,4.4h-54c-2.8,0-5.5,0.2-5.5-4.4h-2.8v17.1h2.8
	c0-4.4,2.8-4.4,5.5-4.4h25.3v7.6l-33.3,14.4v12h2.8C860.1,375.9,862.8,375.1,865.5,374"/>
<path fill="#FFFFFF" d="M873.7,288.2c22.6,0,25.3-26.4,42.8-26.4c6.1,0,8.8,5.3,8.8,9.9c0,7.4-6.1,10.3-10.5,10.3v3.4h11.6
	c5.3-11.4,3.6-30.8-14.1-30.8c-17.5,0-23.4,26.4-40.1,26.4c-6.1,0-11.8-4.4-11.8-12.2c0-8.8,6.6-11,11-11v-3.4h-12.2
	C853.8,265.8,856,288.2,873.7,288.2"/>
<circle fill="#FFFFFF" cx="862.6" cy="526.9" r="5.9"/>
<path fill="#FFFFFF" d="M865.5,626.1c-2.8,0-5.5,0.2-5.5-4.4h-2.8v12.9h2.8c0-4.4,2.8-4.4,5.5-4.4h52.7l-61,17.1v5.5l61,17.1h-52.7
	c-2.8,0-5.5,0.2-5.5-4.4h-2.8v17.3h2.8c0-4.4,2.8-4.4,5.5-4.4h54c2.8,0,5.5-0.2,5.5,4.4h2.8v-14.4l-57.2-16.3l57.2-15.8v-14.8H925
	c0,4.4-2.8,4.4-5.5,4.4h-54V626.1z"/>
<path fill="#FFFFFF" d="M892.5,543.4c14.1,0,32.9,0.4,32.9,12.9c0,7.6-6.1,10.1-12.5,10.5v4h9.9c3.6-3.2,5.9-8.5,5.9-14.8
	c0-12.9-7.8-22.1-36.2-22.1s-36.2,9.3-36.2,22.1c0,6.3,2.5,11.6,5.9,14.8h9.9V567c-6.6-0.4-12.5-2.9-12.5-10.5
	C859.6,543.8,878.4,543.4,892.5,543.4z"/>
<path fill="#545455" d="M370,582.4c0-2.5-1.7-4.3-4.3-4.3c-0.8,0-1.9,0.3-2.3,0.6c-0.1,0.1-0.3-0.3-0.3-0.3c4.7-2.7,5.5-4.1,5.5-5.8
	c0-1.8-1-3.3-3.5-3.3c-1.2,0-2.2,0.6-3.1,1.5c-0.2,0.2-0.3-0.1-0.2-0.3c1.4-1.7,2.9-2.8,4.8-2.8c2.9,0,4.5,1.9,4.5,4.2
	c0,1.8-1.2,3.1-3.9,4.3c3.3,0.6,5.2,2.8,5.2,5.5c0,3.9-5.5,7.3-9.4,7.3c-1.6,0-2.6-0.4-2.6-1.3c0-0.7,0.6-1.2,1.3-1.2
	c1,0,2.2,1.4,3.6,1.4C368,588.1,370,585.8,370,582.4z"/>
<path fill="#545455" d="M377.2,586c1.3,0,6.9-0.2,7.8-0.3c1.4-0.1,2.2-0.9,2.6-2.4c0.1-0.2,0.3,0,0.3,0.1c-0.1,0.4-0.9,4.6-1.1,4.6
	c-0.9,0-4.8,0-6.3,0c-0.9,0-4.4,0-5.8,0.1c-0.1,0-0.3-0.2-0.3-0.3c7.7-7.3,9.6-10.9,9.6-13.9c0-2.3-1.1-4.5-4.1-4.5
	c-1.7,0-3.1,1-4,2c-0.1,0.1-0.4,0-0.3-0.1c1.2-2,3.6-3.6,5.7-3.6c3.1,0,5.2,2.2,5.2,5.4C386.5,576.9,384.5,578.6,377.2,586z"/>
<path fill="#545455" d="M399.1,582.4c0-2.5-1.7-4.3-4.3-4.3c-0.8,0-1.9,0.3-2.3,0.6c-0.1,0.1-0.3-0.3-0.3-0.3
	c4.7-2.7,5.5-4.1,5.5-5.8c0-1.8-1-3.3-3.5-3.3c-1.2,0-2.2,0.6-3.1,1.5c-0.2,0.2-0.3-0.1-0.2-0.3c1.4-1.7,2.9-2.8,4.8-2.8
	c2.9,0,4.5,1.9,4.5,4.2c0,1.8-1.2,3.1-3.9,4.3c3.3,0.6,5.2,2.8,5.2,5.5c0,3.9-5.5,7.3-9.4,7.3c-1.6,0-2.6-0.4-2.6-1.3
	c0-0.7,0.6-1.2,1.3-1.2c1,0,2.2,1.4,3.6,1.4C397.1,588.1,399.1,585.8,399.1,582.4z"/>
<path fill="#545455" d="M424.5,588c-1.4,0-3.1,0.1-3.8,0.1c-0.1,0-0.2-0.3,0-0.4c1-0.1,1.9-0.2,1.9-0.5c0-0.3-3.8-5.1-6-7.7
	c-0.8-0.9-1.1-1.1-1.7-1.1c-0.6,0-0.7,0.2-0.7,0.4c0,7.3,0.1,8.4,0.4,8.5c0.4,0.2,1.1,0.2,1.8,0.4c0.2,0.1,0.2,0.4,0,0.4
	c-0.8-0.1-1.8-0.1-3.3-0.1c-1.5,0-2.6,0-3.4,0.1c-0.2,0-0.2-0.3,0-0.4c0.7-0.2,1.5-0.1,1.8-0.4c0.3-0.1,0.4-0.9,0.4-9.2
	c0-8.4-0.1-9.1-0.4-9.2c-0.4-0.2-1.2-0.2-1.8-0.4c-0.2-0.1-0.2-0.4,0-0.4c0.8,0.1,1.9,0.1,3.4,0.1c1.5,0,2.6-0.1,3.3-0.1
	c0.1,0,0.2,0.3,0,0.4c-0.7,0.2-1.4,0.2-1.8,0.4c-0.2,0.1-0.4,1.6-0.4,8.4c0,0.4,0.1,0.5,0.3,0.5c0.6,0,1.1-0.2,1.7-0.8
	c4.2-4.5,6.5-7.2,6.5-7.8c0-0.3-0.2-0.5-1.5-0.7c-0.3,0-0.2-0.4,0-0.4c0.7,0.1,1.9,0.1,3.3,0.1c1.4,0,1.5-0.1,2.2-0.1
	c0.1,0,0.2,0.3,0,0.4c-0.7,0.2-1.7,0.3-2,0.5c-0.4,0.3-4.9,5-7.4,7.9c2.8,3.6,8,10.1,8.8,10.5c0.5,0.3,1.1,0.2,1.8,0.3
	c0.3,0.1,0.2,0.4,0,0.4C427.3,588,425.9,588,424.5,588z"/>
<path fill="#545455" d="M618.1,384.6c-0.1,6.3,0.1,6.6,0.4,6.7c0.4,0.2,2.1,0.3,2.8,0.4c0.2,0.1,0.2,0.4,0,0.4
	c-0.8-0.1-2.8-0.1-4.3-0.1c-1.5,0-3.6,0-4.3,0.1c-0.1,0-0.2-0.3,0-0.4c0.7-0.2,2.5-0.2,2.8-0.4c0.2-0.1,0.4-0.3,0.4-8.7
	c0-7.8-0.1-8.9-0.3-9c-0.3-0.2-1.9-0.1-2.6-0.2c-0.2,0-0.2-0.2,0-0.3c1.6-0.3,4.3-1.1,5.2-1.4c0.2-0.1,0.3,0.1,0.3,0.2
	c-0.1,0.4-0.2,1.7-0.2,2.3L618.1,384.6z"/>
<path fill="#545455" d="M625.7,392.4c-0.7,0-1.3-0.5-1.3-1.2c0-0.9,0.5-1.4,1.4-1.4c0.8,0,1.3,0.6,1.3,1.3S626.5,392.4,625.7,392.4z
	"/>
<path fill="#545455" d="M639.3,386.5c0-2.5-1.7-4.3-4.3-4.3c-0.8,0-1.9,0.3-2.3,0.6c-0.1,0.1-0.3-0.3-0.3-0.3
	c4.7-2.7,5.5-4.1,5.5-5.8c0-1.8-1-3.3-3.5-3.3c-1.2,0-2.2,0.6-3.1,1.5c-0.2,0.2-0.3-0.1-0.2-0.3c1.4-1.7,2.9-2.8,4.8-2.8
	c2.9,0,4.5,1.9,4.5,4.2c0,1.8-1.2,3.1-3.9,4.3c3.3,0.6,5.2,2.8,5.2,5.5c0,3.9-5.5,7.3-9.4,7.3c-1.6,0-2.6-0.4-2.6-1.3
	c0-0.7,0.6-1.2,1.3-1.2c1,0,2.2,1.4,3.6,1.4C637.3,392.1,639.3,389.8,639.3,386.5z"/>
<path fill="#545455" d="M670.1,392c-1.5,0-2.8,0-3.6,0.1c-0.2,0-0.2-0.3,0-0.4c0.7-0.2,1.4-0.2,1.8-0.4c0.6-0.3,0.8-1,0.4-9.4
	c-0.1-2.5-0.2-4.9-0.3-6.6c0-0.1-0.2-0.1-0.3-0.1c-1.5,3.6-4.3,10.4-6.9,16.9c-0.1,0.2-0.5,0.1-0.6,0c-2.1-5.3-5.4-13.3-7-16.7
	c0-0.1-0.2-0.1-0.2,0c-0.1,1.7-0.2,3.8-0.3,6.5c-0.2,8.4,0,9.1,0.2,9.2c0.3,0.2,1.1,0.2,1.8,0.4c0.2,0.1,0.2,0.4,0,0.4
	c-0.8-0.1-1.4-0.1-2.9-0.1c-1.5,0-2.3,0-3,0.1c-0.2,0-0.2-0.3,0-0.4c0.7-0.2,1.5-0.1,1.9-0.4c0.7-0.4,0.8-0.9,1.2-9.2
	c0.4-7.9,0.1-8.5-0.7-9.1c-0.4-0.3-0.9-0.4-1.8-0.5c-0.2,0-0.2-0.4,0-0.4c0.6,0.1,2,0.1,3.1,0.1c1,0,1.2-0.1,1.7-0.1
	c0.1,0,0.2,0.1,0.2,0.1c0.9,2.6,4.6,11.2,6.7,16.2c0,0.1,0.2,0.1,0.2,0c2.1-5,4.8-11.8,6.5-16.2c0-0.1,0.1-0.1,0.2-0.1
	c0.5,0.1,1.3,0.1,2.2,0.1c1.1,0,1.9-0.1,2.5-0.1c0.2,0,0.2,0.3,0,0.4c-0.9,0.1-1.5,0.3-1.7,0.4c-0.8,0.6-0.9,1.2-0.6,9.2
	c0.4,8.4,0.5,9.1,0.8,9.2c0.4,0.2,1.2,0.2,1.9,0.4c0.2,0.1,0.2,0.4,0,0.4C672.9,392,671.6,392,670.1,392z"/>
<path fill="#545455" d="M496.7,481.9c-6.7,1.9-9.7,7.1-9.7,12.8c0,4.4,1.6,7.6,4.3,7.6c2.2,0,3.5-2.1,3.5-5.2c0-2.9-1.2-5-3.6-5
	c-0.9,0-1.6,0.2-2.2,0.6c-0.1,0.1-0.3-0.2-0.2-0.3c0.9-1,2.2-1.6,3.6-1.6c3.4,0,4.8,2.9,4.8,5.4c0,3.6-2.8,6.6-6.4,6.6
	c-4.3,0-6.4-4.1-6.4-7.8c0-6,3.7-11.8,12.1-13.6C496.7,481.6,496.8,481.9,496.7,481.9z"/>
<path fill="#545455" d="M512.5,481.9c-6.7,1.9-9.7,7.1-9.7,12.8c0,4.4,1.6,7.6,4.3,7.6c2.2,0,3.5-2.1,3.5-5.2c0-2.9-1.2-5-3.6-5
	c-0.9,0-1.6,0.2-2.2,0.6c-0.1,0.1-0.3-0.2-0.2-0.3c0.9-1,2.2-1.6,3.6-1.6c3.4,0,4.8,2.9,4.8,5.4c0,3.6-2.8,6.6-6.4,6.6
	c-4.3,0-6.4-4.1-6.4-7.8c0-6,3.7-11.8,12.1-13.6C512.6,481.6,512.6,481.9,512.5,481.9z"/>
<path fill="#545455" d="M517.6,500.4c1.3,0,6.9-0.2,7.8-0.3c1.4-0.1,2.2-0.9,2.6-2.4c0.1-0.2,0.3,0,0.3,0.1
	c-0.1,0.4-0.9,4.6-1.1,4.6c-0.9,0-4.8,0-6.3,0c-0.9,0-4.4,0-5.8,0.1c-0.1,0-0.3-0.2-0.3-0.3c7.7-7.3,9.6-10.9,9.6-13.9
	c0-2.3-1.1-4.5-4.1-4.5c-1.7,0-3.1,1-4,2c-0.1,0.1-0.4,0-0.3-0.1c1.2-2,3.6-3.6,5.7-3.6c3.1,0,5.2,2.2,5.2,5.4
	C527,491.3,525,493,517.6,500.4z"/>
<path fill="#545455" d="M551.1,502.4c-1.4,0-3.1,0.1-3.8,0.1c-0.1,0-0.2-0.3,0-0.4c1-0.1,1.9-0.2,1.9-0.5c0-0.3-3.8-5.1-6-7.7
	c-0.8-0.9-1.1-1.1-1.7-1.1c-0.6,0-0.7,0.2-0.7,0.4c0,7.3,0.1,8.4,0.4,8.5c0.4,0.2,1.1,0.2,1.8,0.4c0.2,0.1,0.2,0.4,0,0.4
	c-0.8-0.1-1.8-0.1-3.3-0.1c-1.5,0-2.6,0-3.4,0.1c-0.2,0-0.2-0.3,0-0.4c0.7-0.2,1.5-0.1,1.8-0.4c0.3-0.1,0.4-0.9,0.4-9.2
	c0-8.4-0.1-9.1-0.4-9.2c-0.4-0.2-1.2-0.2-1.8-0.4c-0.2-0.1-0.2-0.4,0-0.4c0.8,0.1,1.9,0.1,3.4,0.1c1.5,0,2.6-0.1,3.3-0.1
	c0.1,0,0.2,0.3,0,0.4c-0.7,0.2-1.4,0.2-1.8,0.4c-0.2,0.1-0.4,1.6-0.4,8.4c0,0.4,0.1,0.5,0.3,0.5c0.6,0,1.1-0.2,1.7-0.8
	c4.2-4.5,6.5-7.2,6.5-7.8c0-0.3-0.2-0.5-1.5-0.7c-0.3,0-0.2-0.4,0-0.4c0.7,0.1,1.9,0.1,3.3,0.1c1.4,0,1.5-0.1,2.2-0.1
	c0.1,0,0.2,0.3,0,0.4c-0.7,0.2-1.7,0.3-2,0.5c-0.4,0.3-4.9,5-7.4,7.9c2.8,3.6,8,10.1,8.8,10.5c0.5,0.3,1.1,0.2,1.8,0.3
	c0.3,0.1,0.2,0.4,0,0.4C553.9,502.4,552.5,502.4,551.1,502.4z"/>
<path fill="#545455" d="M743.6,343c-0.1,6.3,0.1,6.6,0.4,6.7c0.4,0.2,2.1,0.3,2.8,0.4c0.2,0.1,0.2,0.4,0,0.4
	c-0.8-0.1-2.8-0.1-4.3-0.1s-3.6,0-4.3,0.1c-0.1,0-0.2-0.3,0-0.4c0.7-0.2,2.5-0.2,2.8-0.4c0.2-0.1,0.4-0.3,0.4-8.7
	c0-7.8-0.1-8.9-0.3-9c-0.2-0.2-1.9-0.1-2.6-0.2c-0.2,0-0.2-0.2,0-0.3c1.6-0.3,4.3-1.1,5.2-1.4c0.2-0.1,0.3,0.1,0.3,0.2
	c-0.1,0.4-0.2,1.7-0.2,2.3L743.6,343z"/>
<path fill="#545455" d="M751.1,350.7c-0.7,0-1.3-0.5-1.3-1.2c0-0.9,0.5-1.4,1.4-1.4c0.8,0,1.3,0.6,1.3,1.3S752,350.7,751.1,350.7z"
	/>
<path fill="#545455" d="M768.3,330c-6.7,1.9-9.7,7.1-9.7,12.8c0,4.4,1.6,7.6,4.3,7.6c2.2,0,3.5-2.1,3.5-5.2c0-2.9-1.2-5-3.6-5
	c-0.9,0-1.6,0.2-2.2,0.6c-0.1,0.1-0.3-0.2-0.2-0.3c0.9-1,2.2-1.6,3.6-1.6c3.4,0,4.8,2.9,4.8,5.4c0,3.6-2.8,6.6-6.4,6.6
	c-4.3,0-6.4-4.1-6.4-7.8c0-6,3.7-11.8,12.1-13.6C768.3,329.6,768.4,329.9,768.3,330z"/>
<path fill="#545455" d="M797,350.4c-1.5,0-2.8,0-3.6,0.1c-0.2,0-0.2-0.3,0-0.4c0.7-0.2,1.4-0.2,1.8-0.4c0.6-0.3,0.8-1,0.4-9.4
	c-0.1-2.5-0.2-4.9-0.3-6.6c0-0.1-0.3-0.1-0.3-0.1c-1.5,3.6-4.3,10.4-6.9,16.9c-0.1,0.2-0.5,0.1-0.6,0c-2.1-5.3-5.4-13.3-7-16.7
	c0-0.1-0.2-0.1-0.2,0c-0.1,1.7-0.2,3.8-0.3,6.5c-0.2,8.4,0,9.1,0.2,9.2c0.3,0.2,1.1,0.2,1.8,0.4c0.2,0.1,0.2,0.4,0,0.4
	c-0.8-0.1-1.4-0.1-2.9-0.1c-1.5,0-2.3,0-3,0.1c-0.2,0-0.2-0.3,0-0.4c0.7-0.2,1.5-0.1,1.9-0.4c0.7-0.4,0.8-0.9,1.2-9.2
	c0.4-7.9,0.1-8.5-0.7-9.1c-0.4-0.3-0.9-0.4-1.8-0.5c-0.2,0-0.2-0.4,0-0.4c0.6,0.1,1.9,0.1,3.1,0.1c1,0,1.2-0.1,1.7-0.1
	c0.1,0,0.2,0.1,0.2,0.1c0.9,2.6,4.6,11.2,6.7,16.2c0,0.1,0.2,0.1,0.2,0c2.1-5,4.8-11.8,6.5-16.2c0-0.1,0.1-0.1,0.2-0.1
	c0.5,0.1,1.3,0.1,2.2,0.1c1.1,0,1.9-0.1,2.5-0.1c0.2,0,0.2,0.3,0,0.4c-0.9,0.1-1.5,0.3-1.7,0.4c-0.8,0.6-0.9,1.2-0.6,9.2
	c0.4,8.4,0.5,9.1,0.8,9.2c0.4,0.2,1.2,0.2,1.9,0.4c0.2,0.1,0.2,0.4,0,0.4C799.8,350.4,798.5,350.4,797,350.4z"/>
<path fill="#545455" d="M862.6,27.3c1.3,0,6.9-0.2,7.8-0.3c1.4-0.1,2.2-0.9,2.6-2.4c0.1-0.2,0.3,0,0.2,0.1c-0.1,0.4-0.9,4.6-1.1,4.6
	c-0.9,0-4.8,0-6.3,0c-0.9,0-4.4,0-5.8,0.1c-0.1,0-0.3-0.2-0.3-0.3c7.7-7.3,9.6-10.9,9.6-13.9c0-2.3-1.1-4.5-4.1-4.5
	c-1.7,0-3.1,1-4,2c-0.1,0.1-0.4,0-0.3-0.1c1.2-2,3.6-3.6,5.7-3.6c3.1,0,5.2,2.2,5.2,5.4C871.9,18.2,869.9,19.8,862.6,27.3z"/>
<path fill="#545455" d="M877.4,29.6c-0.7,0-1.3-0.5-1.3-1.2c0-0.9,0.5-1.4,1.4-1.4c0.8,0,1.3,0.6,1.3,1.3S878.3,29.6,877.4,29.6z"/>
<path fill="#545455" d="M882.9,14c0-2.6,2.3-5,5.2-5c3.1,0,5.1,1.8,5.1,4.5c0,1.9-1.3,3.3-3.9,4.7c3.4,2.3,4.2,4.3,4.2,6.2
	c0,2.9-2.3,5.3-5.9,5.3s-5.7-2.3-5.7-5c0-2.3,1.5-4.2,4.4-5.6C883.7,17.4,882.9,15.7,882.9,14z M884.1,24.7c0,2.3,1.3,4.4,3.6,4.4
	c2.1,0,3.4-1.5,3.4-3.6c0-2.2-0.5-3.7-4.3-6.1C884.9,20.7,884.1,22.4,884.1,24.7z M891,13.4c0-2-1-3.7-3-3.7c-1.9,0-3,1.6-3,3.3
	c0,1.6,0.4,2.6,3.9,5C890.6,16.6,891,15.1,891,13.4z"/>
<path fill="#545455" d="M921.8,29.2c-1.5,0-2.8,0-3.6,0.1c-0.2,0-0.2-0.3,0-0.4c0.7-0.2,1.4-0.2,1.8-0.4c0.6-0.3,0.8-1,0.4-9.4
	c-0.1-2.5-0.2-4.9-0.3-6.6c0-0.1-0.2-0.1-0.3-0.1c-1.5,3.6-4.3,10.4-6.9,16.9c-0.1,0.2-0.5,0.1-0.6,0c-2.1-5.3-5.4-13.3-7-16.7
	c0-0.1-0.2-0.1-0.2,0c-0.1,1.7-0.2,3.8-0.3,6.5c-0.2,8.4,0,9.1,0.2,9.2c0.3,0.2,1.1,0.2,1.8,0.4c0.2,0.1,0.2,0.4,0,0.4
	c-0.8-0.1-1.4-0.1-2.9-0.1c-1.5,0-2.3,0-3,0.1c-0.2,0-0.2-0.3,0-0.4c0.7-0.2,1.5-0.1,1.9-0.4c0.7-0.4,0.8-0.9,1.2-9.2
	c0.4-7.9,0.1-8.5-0.7-9.1c-0.4-0.3-0.9-0.4-1.8-0.5c-0.2,0-0.2-0.4,0-0.4c0.6,0.1,2,0.1,3.1,0.1c1,0,1.2-0.1,1.7-0.1
	c0.1,0,0.2,0.1,0.2,0.1c0.9,2.6,4.6,11.2,6.7,16.2c0,0.1,0.2,0.1,0.2,0c2.1-5,4.8-11.8,6.5-16.2c0-0.1,0.1-0.1,0.2-0.1
	c0.5,0.1,1.3,0.1,2.2,0.1c1.1,0,1.9-0.1,2.5-0.1c0.2,0,0.2,0.3,0,0.4c-0.9,0.1-1.5,0.3-1.7,0.4c-0.8,0.6-0.9,1.2-0.6,9.2
	c0.4,8.4,0.5,9.1,0.8,9.2c0.4,0.2,1.2,0.2,1.9,0.4c0.2,0.1,0.2,0.4,0,0.4C924.6,29.3,923.3,29.2,921.8,29.2z"/>
</svg>
