<?xml version="1.0" encoding="utf-8"?>
<!-- Generator: Adobe Illustrator 17.1.0, SVG Export Plug-In . SVG Version: 6.00 Build 0)  -->
<!DOCTYPE svg PUBLIC "-//W3C//DTD SVG 1.1//EN" "http://www.w3.org/Graphics/SVG/1.1/DTD/svg11.dtd">
<svg version="1.1" id="Layer_1" xmlns="http://www.w3.org/2000/svg" xmlns:xlink="http://www.w3.org/1999/xlink" x="0px" y="0px"
	 viewBox="0 0 1000 1000" enable-background="new 0 0 1000 1000" xml:space="preserve">
<g id="Layer_1_1_">
</g>
<path fill="#C6A757" d="M810.8,402.3h76c15.8-11.6,26-30.4,26-51.6c0-35.3-28.7-64.1-64.1-64.1s-64.1,28.7-64.1,64.1
	C784.7,371.9,795,390.6,810.8,402.3"/>
<g>
	<path fill="#FFFFFF" d="M796.3,339.8v-9.6h1.2l5.1,7.6h0v-7.6h1.1v9.6h-1l-5.2-7.8h0v7.8H796.3z"/>
	<path fill="#FFFFFF" d="M812.7,338.6c-0.8,0.9-1.8,1.4-3,1.4c-1.2,0-2.2-0.5-3-1.4c-0.8-0.9-1.2-2.1-1.2-3.6s0.4-2.7,1.2-3.6
		c0.8-0.9,1.8-1.4,3-1.4c1.2,0,2.2,0.5,3,1.4c0.8,0.9,1.2,2.1,1.2,3.6S813.5,337.7,812.7,338.6z M809.8,338.9c0.9,0,1.6-0.4,2.2-1.1
		c0.5-0.7,0.8-1.7,0.8-2.9c0-1.2-0.3-2.2-0.8-2.9c-0.6-0.7-1.3-1.1-2.2-1.1c-0.9,0-1.6,0.4-2.2,1.1c-0.5,0.7-0.8,1.7-0.8,2.9
		c0,1.2,0.3,2.2,0.8,2.9C808.1,338.6,808.9,338.9,809.8,338.9z"/>
	<path fill="#FFFFFF" d="M815.8,339.8v-9.6h3.3c1.1,0,1.9,0.2,2.5,0.7c0.6,0.5,0.9,1.1,0.9,2c0,1.4-0.7,2.3-2.2,2.6l2.4,4.3h-1.2
		l-2.3-4.1h-2.2v4.1H815.8z M816.9,334.6h2.1c0.8,0,1.4-0.1,1.8-0.4c0.4-0.3,0.6-0.7,0.6-1.3c0-0.6-0.2-1-0.6-1.3
		c-0.4-0.3-1-0.4-1.8-0.4h-2.1V334.6z"/>
	<path fill="#FFFFFF" d="M826.6,339.8v-8.6h-3.1v-1.1h7.3v1.1h-3.1v8.6H826.6z"/>
	<path fill="#FFFFFF" d="M832.4,339.8v-9.6h1.1v4h5v-4h1.1v9.6h-1.1v-4.5h-5v4.5H832.4z"/>
	<path fill="#FFFFFF" d="M842.1,339.8v-9.6h5.9v1.1h-4.8v3h3.5v1h-3.5v3.5h5v1H842.1z"/>
	<path fill="#FFFFFF" d="M849.2,339.8l3.4-9.7h1.2l3.4,9.7H856l-0.9-2.8h-3.8l-0.9,2.8H849.2z M851.6,336h3.1l-1.5-4.5h0L851.6,336z
		"/>
	<path fill="#FFFFFF" d="M861.7,340c-0.9,0-1.7-0.2-2.3-0.7c-0.6-0.5-1.1-1.1-1.3-1.8l1-0.4c0.5,1.3,1.4,1.9,2.7,1.9
		c0.7,0,1.2-0.1,1.6-0.4c0.4-0.3,0.6-0.7,0.6-1.2c0-0.5-0.2-0.9-0.5-1.1s-1-0.6-1.9-0.9c-1.1-0.3-2-0.7-2.5-1.1
		c-0.5-0.4-0.7-1-0.7-1.7c0-0.7,0.3-1.3,0.9-1.8c0.6-0.5,1.3-0.7,2.2-0.7c0.9,0,1.6,0.2,2.1,0.6c0.6,0.4,1,0.9,1.2,1.6l-0.9,0.5
		c-0.5-1.1-1.3-1.6-2.5-1.6c-0.6,0-1.1,0.1-1.4,0.4c-0.4,0.3-0.5,0.6-0.5,1c0,0.5,0.2,0.9,0.5,1.1c0.3,0.3,1,0.5,2,0.8
		c1.1,0.3,1.8,0.7,2.3,1.1c0.5,0.4,0.7,1,0.7,1.8c0,0.8-0.3,1.4-0.9,1.9C863.5,339.7,862.7,340,861.7,340z"/>
	<path fill="#FFFFFF" d="M868.8,339.8v-8.6h-3.1v-1.1h7.3v1.1h-3.1v8.6H868.8z"/>
	<path fill="#FFFFFF" d="M876.6,339.8v-0.2c0-0.8,0.2-1.5,0.7-2.2s1.3-1.4,2.5-2.2c0.8-0.5,1.3-0.9,1.6-1.3c0.3-0.4,0.4-0.8,0.4-1.3
		c0-0.5-0.2-0.9-0.5-1.3c-0.3-0.3-0.8-0.5-1.3-0.5c-1,0-1.8,0.5-2.4,1.6l-0.9-0.5c0.8-1.4,1.9-2.1,3.3-2.1c0.9,0,1.6,0.2,2.1,0.7
		s0.8,1.1,0.8,1.9c0,0.6-0.2,1.2-0.5,1.7c-0.4,0.5-1,1-1.9,1.6c-1.6,1-2.5,2-2.6,2.8h5.1v1H876.6z"/>
	<path fill="#FFFFFF" d="M885,339.8l4-8.6h-4.9v-1h6.1v1l-4,8.7H885z"/>
	<path fill="#FFFFFF" d="M893.7,335.9c-0.7,0-1.3-0.3-1.7-0.8c-0.4-0.5-0.6-1.2-0.6-2.1c0-0.9,0.2-1.6,0.6-2.2
		c0.4-0.5,1-0.8,1.7-0.8c0.7,0,1.2,0.3,1.6,0.8c0.4,0.5,0.6,1.2,0.6,2.1c0,0.9-0.2,1.6-0.6,2.1C894.9,335.6,894.4,335.9,893.7,335.9
		z M893.7,335c0.4,0,0.7-0.2,0.9-0.6s0.3-0.9,0.3-1.5c0-0.6-0.1-1.2-0.3-1.5c-0.2-0.4-0.5-0.6-0.9-0.6c-0.4,0-0.7,0.2-0.9,0.6
		c-0.2,0.4-0.3,0.9-0.3,1.5c0,0.6,0.1,1.2,0.3,1.5C893,334.9,893.3,335,893.7,335z M893.8,339.8l5.7-9.6h1l-5.7,9.6H893.8z
		 M900.6,339.9c-0.7,0-1.2-0.3-1.6-0.8c-0.4-0.5-0.6-1.2-0.6-2.1c0-0.9,0.2-1.6,0.6-2.2c0.4-0.5,1-0.8,1.7-0.8
		c0.7,0,1.2,0.3,1.6,0.8c0.4,0.5,0.6,1.2,0.6,2.1c0,0.9-0.2,1.6-0.6,2.1S901.3,339.9,900.6,339.9z M900.6,339.1
		c0.4,0,0.7-0.2,0.9-0.6c0.2-0.4,0.3-0.9,0.3-1.5c0-0.6-0.1-1.2-0.3-1.5c-0.2-0.4-0.5-0.6-0.9-0.6s-0.7,0.2-0.9,0.6
		c-0.2,0.4-0.3,0.9-0.3,1.5c0,0.6,0.1,1.2,0.3,1.5C899.9,338.9,900.2,339.1,900.6,339.1z"/>
	<path fill="#FFFFFF" d="M805.6,355.4v-9.6h1.5l3,8.2h0l3-8.2h1.5v9.6h-1.1v-7.8h0c-0.1,0.2-0.2,0.8-0.6,1.8l-2.3,6h-1l-2.3-6
		c-0.3-0.7-0.5-1.3-0.6-1.8h0v7.8H805.6z"/>
	<path fill="#FFFFFF" d="M816.8,347.1V346h1.2v1.1H816.8z M816.9,355.4v-6.9h1.1v6.9H816.9z"/>
	<path fill="#FFFFFF" d="M822.5,355.5c-0.8,0-1.5-0.3-2-0.9c-0.5-0.6-0.8-1.5-0.8-2.6c0-1.2,0.3-2,0.8-2.7c0.5-0.6,1.2-0.9,2.1-0.9
		c0.8,0,1.5,0.3,2.1,1v-3.6h1.1v7.9c0,0.8,0.1,1.4,0.2,1.7h-1.2c-0.1-0.3-0.2-0.6-0.2-1C824.1,355.1,823.3,355.5,822.5,355.5z
		 M822.7,354.6c0.7,0,1.3-0.4,2-1.1v-3.1c-0.6-0.7-1.3-1-2-1c-0.6,0-1.1,0.2-1.4,0.7s-0.5,1.1-0.5,2c0,0.8,0.2,1.5,0.5,1.9
		C821.7,354.3,822.1,354.6,822.7,354.6z"/>
	<path fill="#FFFFFF" d="M830.2,355.5c-0.8,0-1.5-0.3-2-0.9c-0.5-0.6-0.8-1.5-0.8-2.6c0-1.2,0.3-2,0.8-2.7s1.2-0.9,2.1-0.9
		c0.8,0,1.5,0.3,2.1,1v-3.6h1.1v7.9c0,0.8,0.1,1.4,0.2,1.7h-1.2c-0.1-0.3-0.2-0.6-0.2-1C831.8,355.1,831.1,355.5,830.2,355.5z
		 M830.5,354.6c0.7,0,1.3-0.4,2-1.1v-3.1c-0.6-0.7-1.3-1-2-1c-0.6,0-1.1,0.2-1.4,0.7s-0.5,1.1-0.5,2c0,0.8,0.2,1.5,0.5,1.9
		S829.9,354.6,830.5,354.6z"/>
	<path fill="#FFFFFF" d="M835.7,355.4v-9.6h1.1v9.6H835.7z"/>
	<path fill="#FFFFFF" d="M841.6,355.5c-0.9,0-1.6-0.3-2.2-0.9s-0.9-1.5-0.9-2.6c0-0.6,0.1-1.1,0.3-1.6c0.2-0.5,0.4-0.8,0.7-1.1
		c0.3-0.3,0.6-0.5,1-0.6s0.7-0.2,1.1-0.2c0.9,0,1.5,0.3,2.1,0.9c0.5,0.6,0.8,1.5,0.8,2.7v0.2h-4.8c0,0.7,0.2,1.3,0.6,1.7
		s0.9,0.6,1.5,0.6c0.5,0,0.9-0.1,1.2-0.3s0.6-0.5,0.9-0.8l0.6,0.6C843.7,355,842.8,355.5,841.6,355.5z M839.6,351.4h3.8
		c0-0.6-0.2-1.1-0.5-1.5c-0.3-0.4-0.7-0.6-1.3-0.6c-0.5,0-0.9,0.2-1.3,0.5S839.7,350.7,839.6,351.4z"/>
	<path fill="#FFFFFF" d="M848.1,355.4l3.4-9.7h1.2l3.4,9.7h-1.2l-0.9-2.8h-3.8l-0.9,2.8H848.1z M850.5,351.6h3.1l-1.5-4.5h0
		L850.5,351.6z"/>
	<path fill="#FFFFFF" d="M859.7,355.5c-0.7,0-1.2-0.1-1.5-0.4c-0.3-0.3-0.4-0.7-0.4-1.3v-4.3h-1.2v-0.9h1.2v-2.4h1.1v2.4h1.8v0.9
		h-1.8v4c0,0.4,0.1,0.7,0.2,0.8s0.4,0.3,0.8,0.3c0.3,0,0.5,0,0.7-0.1v0.9C860.4,355.5,860.1,355.5,859.7,355.5z"/>
	<path fill="#FFFFFF" d="M862.2,355.4v-9.6h1.1v9.6H862.2z"/>
	<path fill="#FFFFFF" d="M866.9,355.5c-0.6,0-1.1-0.2-1.4-0.5c-0.3-0.3-0.5-0.7-0.5-1.3c0-0.7,0.4-1.3,1.1-1.8
		c0.7-0.5,1.9-0.8,3.5-1.1v-0.3c0-0.8-0.4-1.3-1.3-1.3c-0.9,0-1.7,0.3-2.5,1l-0.6-0.7c0.9-0.8,2-1.3,3.2-1.3c1.5,0,2.3,0.8,2.3,2.3
		v3c0,0.8,0.1,1.4,0.2,1.7h-1.1c-0.1-0.3-0.2-0.6-0.2-0.9C868.8,355.1,868,355.5,866.9,355.5z M867.3,354.6c0.9,0,1.6-0.3,2.3-1
		v-1.9c-1.3,0.2-2.2,0.5-2.7,0.8c-0.5,0.3-0.8,0.7-0.8,1.1c0,0.3,0.1,0.6,0.3,0.8C866.6,354.5,866.9,354.6,867.3,354.6z"/>
	<path fill="#FFFFFF" d="M872.6,355.4v-6.9h1.1v1c0.8-0.8,1.7-1.2,2.6-1.2c0.7,0,1.2,0.2,1.5,0.5c0.4,0.4,0.5,0.9,0.5,1.5v5h-1.1
		v-4.7c0-0.5-0.1-0.8-0.3-1c-0.2-0.2-0.5-0.3-1-0.3c-0.7,0-1.4,0.4-2.2,1.1v4.9H872.6z"/>
	<path fill="#FFFFFF" d="M882.7,355.5c-0.7,0-1.2-0.1-1.5-0.4c-0.3-0.3-0.4-0.7-0.4-1.3v-4.3h-1.2v-0.9h1.2v-2.4h1.1v2.4h1.8v0.9
		h-1.8v4c0,0.4,0.1,0.7,0.2,0.8c0.2,0.2,0.4,0.3,0.8,0.3c0.3,0,0.5,0,0.7-0.1v0.9C883.4,355.5,883,355.5,882.7,355.5z"/>
	<path fill="#FFFFFF" d="M885.2,347.1V346h1.2v1.1H885.2z M885.2,355.4v-6.9h1.1v6.9H885.2z"/>
	<path fill="#FFFFFF" d="M891.1,355.5c-0.8,0-1.6-0.3-2.2-0.9c-0.6-0.6-0.9-1.5-0.9-2.6c0-1.2,0.3-2.1,0.9-2.7
		c0.6-0.6,1.4-0.9,2.2-0.9c1.3,0,2.2,0.6,2.7,1.9l-0.9,0.4c-0.3-0.9-0.9-1.4-1.8-1.4c-0.6,0-1,0.2-1.4,0.6c-0.4,0.4-0.6,1.1-0.6,2
		c0,0.8,0.2,1.5,0.5,1.9c0.4,0.5,0.8,0.7,1.4,0.7c0.4,0,0.8-0.1,1.1-0.3c0.3-0.2,0.5-0.6,0.8-1.1l0.9,0.4c-0.3,0.6-0.7,1.1-1.1,1.4
		C892.3,355.4,891.8,355.5,891.1,355.5z"/>
	<path fill="#FFFFFF" d="M811.4,371v-9.6h1.2l5.1,7.6h0v-7.6h1.1v9.6h-1l-5.2-7.8h0v7.8H811.4z"/>
	<path fill="#FFFFFF" d="M823.6,371.1c-0.9,0-1.6-0.3-2.2-0.9s-0.9-1.5-0.9-2.6c0-0.6,0.1-1.1,0.3-1.6c0.2-0.5,0.4-0.8,0.7-1.1
		c0.3-0.3,0.6-0.5,1-0.6c0.4-0.1,0.7-0.2,1.1-0.2c0.9,0,1.5,0.3,2.1,0.9c0.5,0.6,0.8,1.5,0.8,2.7v0.2h-4.8c0,0.7,0.2,1.3,0.6,1.7
		s0.9,0.6,1.5,0.6c0.5,0,0.9-0.1,1.2-0.3s0.6-0.5,0.9-0.8l0.7,0.6C825.8,370.6,824.8,371.1,823.6,371.1z M821.7,367h3.8
		c0-0.6-0.2-1.1-0.5-1.5c-0.3-0.4-0.7-0.6-1.3-0.6c-0.5,0-0.9,0.2-1.3,0.5C822,365.8,821.7,366.3,821.7,367z"/>
	<path fill="#FFFFFF" d="M829.4,371l-2.1-6.9h1.2l0.9,3.2c0.3,1,0.5,1.7,0.6,2.3h0c0.2-0.8,0.4-1.5,0.6-2.3l0.9-3.2h1l0.9,3.3
		c0.2,0.7,0.4,1.4,0.6,2.2h0c0.2-0.9,0.4-1.6,0.6-2.2l0.9-3.3h1.1l-2.1,6.9h-1l-1.5-5.4h0l-1.5,5.4H829.4z"/>
	<path fill="#FFFFFF" d="M841,371v-9.6h5.9v1.1h-4.8v3h3.5v1h-3.5v3.5h5v1H841z"/>
	<path fill="#FFFFFF" d="M848.6,371v-6.9h1.1v1c0.8-0.8,1.7-1.2,2.6-1.2c0.7,0,1.2,0.2,1.5,0.5c0.4,0.4,0.5,0.9,0.5,1.5v5h-1.1v-4.7
		c0-0.5-0.1-0.8-0.3-1c-0.2-0.2-0.5-0.3-1-0.3c-0.7,0-1.4,0.4-2.2,1.1v4.9H848.6z"/>
	<path fill="#FFFFFF" d="M858.8,373.6c-2.2,0-3.3-0.6-3.3-1.7c0-0.7,0.4-1.2,1.2-1.5c-0.4-0.2-0.6-0.5-0.6-0.9
		c0-0.4,0.3-0.8,0.9-1.1c-0.7-0.5-1.1-1.1-1.1-2c0-0.7,0.3-1.3,0.8-1.8c0.5-0.5,1.2-0.7,2-0.7s1.5,0.2,2,0.7c0.5-0.4,1-0.6,1.6-0.6
		v1c-0.4,0-0.9,0.1-1.2,0.2c0.2,0.3,0.4,0.7,0.4,1.2c0,0.7-0.3,1.3-0.8,1.8c-0.5,0.4-1.2,0.7-2,0.7c-0.3,0-0.7-0.1-1.1-0.2
		c-0.3,0.1-0.5,0.3-0.5,0.5c0,0.1,0.1,0.3,0.2,0.3s0.4,0.1,0.7,0.2l1.4,0.1c1.8,0.1,2.6,0.7,2.6,1.8c0,0.6-0.3,1.1-0.9,1.5
		C860.6,373.5,859.8,373.6,858.8,373.6z M858.9,372.8c0.7,0,1.2-0.1,1.6-0.3c0.4-0.2,0.6-0.4,0.6-0.8s-0.1-0.5-0.4-0.7
		c-0.3-0.1-0.8-0.2-1.5-0.3l-1.3-0.1l-0.4,0c-0.7,0.2-1,0.6-1,1.1c0,0.3,0.2,0.6,0.6,0.8S858.1,372.8,858.9,372.8z M857.5,367.6
		c0.3,0.3,0.7,0.4,1.3,0.4s0.9-0.1,1.3-0.4c0.3-0.3,0.5-0.7,0.5-1.2c0-0.5-0.2-0.9-0.5-1.2c-0.3-0.3-0.7-0.4-1.3-0.4
		c-0.5,0-0.9,0.1-1.3,0.4c-0.3,0.3-0.5,0.7-0.5,1.2C857,367,857.1,367.4,857.5,367.6z"/>
	<path fill="#FFFFFF" d="M863.8,371v-9.6h1.1v9.6H863.8z"/>
	<path fill="#FFFFFF" d="M868.5,371.1c-0.6,0-1.1-0.2-1.4-0.5c-0.3-0.3-0.5-0.7-0.5-1.3c0-0.7,0.4-1.3,1.1-1.8
		c0.7-0.5,1.9-0.8,3.5-1.1v-0.3c0-0.8-0.4-1.3-1.3-1.3c-0.9,0-1.7,0.3-2.5,1l-0.6-0.7c0.9-0.8,2-1.3,3.2-1.3c1.5,0,2.3,0.8,2.3,2.3
		v3c0,0.8,0.1,1.4,0.2,1.7h-1.1c-0.1-0.3-0.2-0.6-0.2-0.9C870.4,370.7,869.5,371.1,868.5,371.1z M868.8,370.2c0.9,0,1.6-0.3,2.3-1
		v-1.9c-1.3,0.2-2.2,0.5-2.7,0.8s-0.8,0.7-0.8,1.1c0,0.3,0.1,0.6,0.3,0.8C868.1,370.1,868.4,370.2,868.8,370.2z"/>
	<path fill="#FFFFFF" d="M874.1,371v-6.9h1.1v1c0.8-0.8,1.7-1.2,2.6-1.2c0.7,0,1.2,0.2,1.5,0.5c0.4,0.4,0.5,0.9,0.5,1.5v5h-1.1v-4.7
		c0-0.5-0.1-0.8-0.3-1c-0.2-0.2-0.5-0.3-1-0.3c-0.7,0-1.4,0.4-2.2,1.1v4.9H874.1z"/>
	<path fill="#FFFFFF" d="M884.2,371.1c-0.8,0-1.5-0.3-2-0.9c-0.5-0.6-0.8-1.5-0.8-2.6c0-1.2,0.3-2,0.8-2.7s1.2-0.9,2.1-0.9
		c0.8,0,1.5,0.3,2.1,1v-3.6h1.1v7.9c0,0.8,0.1,1.4,0.2,1.7h-1.2c-0.1-0.3-0.2-0.6-0.2-1C885.8,370.7,885,371.1,884.2,371.1z
		 M884.5,370.2c0.7,0,1.3-0.4,2-1.1V366c-0.6-0.7-1.3-1-2-1c-0.6,0-1.1,0.2-1.4,0.7s-0.5,1.1-0.5,2c0,0.8,0.2,1.5,0.5,1.9
		S883.9,370.2,884.5,370.2z"/>
</g>
</svg>
