<?xml version="1.0" encoding="utf-8"?>
<!-- Generator: Adobe Illustrator 17.1.0, SVG Export Plug-In . SVG Version: 6.00 Build 0)  -->
<!DOCTYPE svg PUBLIC "-//W3C//DTD SVG 1.1//EN" "http://www.w3.org/Graphics/SVG/1.1/DTD/svg11.dtd">
<svg version="1.1" id="Layer_1" xmlns="http://www.w3.org/2000/svg" xmlns:xlink="http://www.w3.org/1999/xlink" x="0px" y="0px"
	 viewBox="0 0 1000 1000" enable-background="new 0 0 1000 1000" xml:space="preserve">
<g id="Layer_1_1_">
</g>
<path fill="#C6A757" d="M677.4,664.2h76c15.8-11.6,26-30.4,26-51.6c0-35.3-28.7-64-64.1-64c-35.4,0-64.1,28.7-64.1,64
	C651.4,633.7,661.7,652.5,677.4,664.2"/>
<g>
	<path fill="#FFFFFF" d="M681.3,590.5c-0.9,0-1.7-0.2-2.3-0.7c-0.6-0.5-1.1-1.1-1.3-1.8l1-0.4c0.5,1.3,1.4,1.9,2.7,1.9
		c0.7,0,1.2-0.1,1.6-0.4c0.4-0.3,0.6-0.7,0.6-1.2c0-0.5-0.2-0.9-0.5-1.1s-1-0.6-1.9-0.9c-1.1-0.3-2-0.7-2.5-1.1
		c-0.5-0.4-0.7-1-0.7-1.7c0-0.7,0.3-1.3,0.9-1.8c0.6-0.5,1.3-0.7,2.2-0.7c0.9,0,1.6,0.2,2.1,0.6c0.6,0.4,1,0.9,1.2,1.6l-0.9,0.5
		c-0.5-1.1-1.3-1.6-2.5-1.6c-0.6,0-1.1,0.1-1.4,0.4c-0.4,0.3-0.5,0.6-0.5,1c0,0.5,0.2,0.9,0.5,1.1c0.3,0.3,1,0.5,2,0.8
		c1.1,0.3,1.8,0.7,2.3,1.1c0.5,0.4,0.7,1,0.7,1.8c0,0.8-0.3,1.4-0.9,1.9S682.4,590.5,681.3,590.5z"/>
	<path fill="#FFFFFF" d="M693.3,589.2c-0.8,0.9-1.8,1.4-3,1.4s-2.2-0.5-3-1.4c-0.8-0.9-1.2-2.1-1.2-3.6s0.4-2.7,1.2-3.6
		c0.8-0.9,1.8-1.4,3-1.4s2.2,0.5,3,1.4s1.2,2.1,1.2,3.6S694,588.3,693.3,589.2z M690.3,589.5c0.9,0,1.6-0.4,2.2-1.1
		c0.6-0.7,0.8-1.7,0.8-2.9c0-1.2-0.3-2.2-0.8-2.9c-0.5-0.7-1.3-1.1-2.2-1.1c-0.9,0-1.6,0.4-2.2,1.1s-0.8,1.7-0.8,2.9
		c0,1.2,0.3,2.2,0.8,2.9C688.7,589.1,689.4,589.5,690.3,589.5z"/>
	<path fill="#FFFFFF" d="M699.7,590.5c-1.2,0-2.1-0.3-2.7-1s-0.9-1.5-0.9-2.5v-6.3h1.1v6.1c0,0.8,0.2,1.4,0.6,1.9
		c0.4,0.5,1,0.7,1.8,0.7c0.8,0,1.4-0.2,1.8-0.7c0.4-0.5,0.6-1.1,0.6-1.9v-6.2h1.1v6.3c0,1-0.3,1.9-0.9,2.5
		C701.7,590.2,700.9,590.5,699.7,590.5z"/>
	<path fill="#FFFFFF" d="M707.8,590.3v-8.6h-3.1v-1.1h7.3v1.1H709v8.6H707.8z"/>
	<path fill="#FFFFFF" d="M713.7,590.3v-9.6h1.1v4h5v-4h1.1v9.6h-1.1v-4.5h-5v4.5H713.7z"/>
	<path fill="#FFFFFF" d="M725.7,590.3v-0.2c0-0.8,0.2-1.5,0.7-2.2c0.5-0.7,1.3-1.4,2.5-2.2c0.8-0.5,1.3-0.9,1.6-1.3s0.4-0.8,0.4-1.3
		c0-0.5-0.2-0.9-0.5-1.3c-0.3-0.3-0.8-0.5-1.3-0.5c-1,0-1.8,0.5-2.4,1.6l-0.9-0.5c0.8-1.4,1.9-2.1,3.3-2.1c0.9,0,1.6,0.2,2.1,0.7
		c0.5,0.5,0.8,1.1,0.8,1.9c0,0.6-0.2,1.2-0.5,1.7c-0.4,0.5-1,1-1.9,1.6c-1.6,1-2.5,2-2.6,2.8h5.1v1H725.7z"/>
	<path fill="#FFFFFF" d="M736.5,590.5c-0.7,0-1.3-0.1-1.9-0.4c-0.6-0.3-1-0.7-1.4-1.2l0.8-0.7c0.7,0.9,1.5,1.3,2.5,1.3
		c0.7,0,1.3-0.2,1.7-0.7c0.4-0.4,0.6-1,0.6-1.7c0-0.7-0.2-1.3-0.6-1.7s-0.9-0.6-1.5-0.6c-0.9,0-1.6,0.4-2.1,1.1l-0.8-0.3l0.4-5.1
		h5.2l-0.1,1h-4.2l-0.2,3.1c0.5-0.6,1.2-0.8,2.1-0.8c0.9,0,1.6,0.3,2.2,0.9c0.5,0.6,0.8,1.3,0.8,2.3c0,1-0.3,1.8-0.9,2.4
		C738.4,590.2,737.6,590.5,736.5,590.5z"/>
	<path fill="#FFFFFF" d="M743.4,586.5c-0.7,0-1.3-0.3-1.7-0.8c-0.4-0.5-0.6-1.2-0.6-2.1c0-0.9,0.2-1.6,0.6-2.2
		c0.4-0.5,1-0.8,1.7-0.8c0.7,0,1.2,0.3,1.6,0.8c0.4,0.5,0.6,1.2,0.6,2.1c0,0.9-0.2,1.6-0.6,2.1C744.7,586.2,744.1,586.5,743.4,586.5
		z M743.5,585.6c0.4,0,0.7-0.2,0.9-0.6c0.2-0.4,0.3-0.9,0.3-1.5c0-0.6-0.1-1.2-0.3-1.5c-0.2-0.4-0.5-0.6-0.9-0.6
		c-0.4,0-0.7,0.2-0.9,0.6c-0.2,0.4-0.3,0.9-0.3,1.5c0,0.6,0.1,1.2,0.3,1.5C742.7,585.4,743.1,585.6,743.5,585.6z M743.5,590.3
		l5.7-9.6h1l-5.7,9.6H743.5z M750.4,590.5c-0.7,0-1.3-0.3-1.6-0.8c-0.4-0.5-0.6-1.2-0.6-2.1c0-0.9,0.2-1.6,0.6-2.2
		c0.4-0.5,1-0.8,1.7-0.8c0.7,0,1.2,0.3,1.6,0.8c0.4,0.5,0.6,1.2,0.6,2.1c0,0.9-0.2,1.6-0.6,2.1S751.1,590.5,750.4,590.5z
		 M750.4,589.6c0.4,0,0.7-0.2,0.9-0.6c0.2-0.4,0.3-0.9,0.3-1.5c0-0.6-0.1-1.2-0.3-1.5c-0.2-0.4-0.5-0.6-0.9-0.6s-0.7,0.2-0.9,0.6
		c-0.2,0.4-0.3,0.9-0.3,1.5c0,0.7,0.1,1.2,0.3,1.5C749.7,589.4,750,589.6,750.4,589.6z"/>
	<path fill="#FFFFFF" d="M660.2,605.9l-2.6-9.6h1.2l1.4,5.6c0.3,1,0.5,1.8,0.6,2.4h0c0.1-0.7,0.3-1.5,0.5-2.3l1.3-5.6h1.2l1.4,5.6
		c0.3,1.3,0.5,2,0.5,2.3h0c0.1-0.3,0.2-1.1,0.5-2.3l1.4-5.7h1.1l-2.5,9.6h-1.1l-1.9-8h0l-2,8H660.2z"/>
	<path fill="#FFFFFF" d="M672,606.1c-0.9,0-1.6-0.3-2.2-0.9c-0.6-0.6-0.9-1.5-0.9-2.6c0-0.6,0.1-1.1,0.3-1.6
		c0.2-0.5,0.4-0.8,0.7-1.1c0.3-0.3,0.6-0.5,1-0.6c0.4-0.1,0.7-0.2,1.1-0.2c0.9,0,1.5,0.3,2.1,0.9c0.5,0.6,0.8,1.5,0.8,2.7v0.2h-4.8
		c0,0.7,0.2,1.3,0.6,1.7c0.4,0.4,0.9,0.6,1.5,0.6c0.5,0,0.9-0.1,1.2-0.3c0.3-0.2,0.6-0.5,0.9-0.8l0.7,0.6
		C674.2,605.6,673.2,606.1,672,606.1z M670.1,601.9h3.8c0-0.6-0.2-1.1-0.5-1.5c-0.3-0.4-0.7-0.6-1.3-0.6c-0.5,0-0.9,0.2-1.3,0.5
		C670.4,600.7,670.2,601.3,670.1,601.9z"/>
	<path fill="#FFFFFF" d="M678.7,606.1c-0.6,0-1.1-0.1-1.6-0.3c-0.5-0.2-0.9-0.5-1.2-0.9l0.7-0.7c0.6,0.6,1.3,0.9,2.1,0.9
		c1.1,0,1.7-0.4,1.7-1.1c0-0.3-0.1-0.6-0.4-0.7c-0.3-0.2-0.7-0.3-1.4-0.5c-0.8-0.2-1.5-0.4-1.9-0.7s-0.6-0.7-0.6-1.3
		c0-0.5,0.2-1,0.7-1.3s1-0.5,1.7-0.5c1,0,1.9,0.3,2.6,1l-0.6,0.7c-0.6-0.5-1.3-0.8-2-0.8c-0.5,0-0.8,0.1-1,0.3
		c-0.2,0.2-0.3,0.4-0.3,0.7c0,0.3,0.1,0.5,0.4,0.7c0.2,0.2,0.7,0.3,1.2,0.4c0.4,0.1,0.8,0.2,1.1,0.3s0.5,0.2,0.8,0.4
		c0.3,0.2,0.4,0.4,0.6,0.6c0.1,0.2,0.2,0.5,0.2,0.9c0,0.6-0.3,1.1-0.8,1.5C680.2,605.9,679.5,606.1,678.7,606.1z"/>
	<path fill="#FFFFFF" d="M685.3,606c-0.7,0-1.2-0.1-1.5-0.4c-0.3-0.3-0.4-0.7-0.4-1.3V600h-1.2v-0.9h1.2v-2.4h1.1v2.4h1.8v0.9h-1.8
		v4c0,0.4,0.1,0.7,0.2,0.8c0.2,0.2,0.4,0.3,0.8,0.3c0.3,0,0.5,0,0.7-0.1v0.9C686,606,685.7,606,685.3,606z"/>
	<path fill="#FFFFFF" d="M694.2,606.1c-0.9,0-1.7-0.2-2.3-0.7c-0.6-0.5-1.1-1.1-1.3-1.8l1-0.4c0.5,1.3,1.4,1.9,2.7,1.9
		c0.7,0,1.2-0.1,1.6-0.4c0.4-0.3,0.6-0.7,0.6-1.2c0-0.5-0.2-0.9-0.5-1.1c-0.3-0.3-1-0.6-1.9-0.9c-1.1-0.3-2-0.7-2.5-1.1
		c-0.5-0.4-0.7-1-0.7-1.7c0-0.7,0.3-1.3,0.9-1.8c0.6-0.5,1.3-0.7,2.2-0.7c0.9,0,1.6,0.2,2.1,0.6c0.6,0.4,1,0.9,1.2,1.6l-0.9,0.5
		c-0.5-1.1-1.3-1.6-2.5-1.6c-0.6,0-1.1,0.1-1.4,0.4c-0.4,0.3-0.5,0.6-0.5,1c0,0.5,0.2,0.9,0.5,1.1c0.3,0.3,1,0.5,2,0.8
		c1.1,0.3,1.8,0.7,2.3,1.1c0.5,0.4,0.7,1,0.7,1.8c0,0.8-0.3,1.4-0.9,1.9S695.2,606.1,694.2,606.1z"/>
	<path fill="#FFFFFF" d="M704.3,605.1c-0.6,0.6-1.4,0.9-2.3,0.9s-1.6-0.3-2.3-0.9c-0.6-0.6-0.9-1.5-0.9-2.6s0.3-2,0.9-2.6
		c0.6-0.6,1.4-0.9,2.3-0.9c0.9,0,1.6,0.3,2.3,0.9c0.6,0.6,0.9,1.5,0.9,2.6S704.9,604.5,704.3,605.1z M702.1,605.1
		c0.6,0,1.1-0.2,1.5-0.7c0.4-0.5,0.5-1.1,0.5-1.9c0-0.8-0.2-1.4-0.5-1.9s-0.9-0.7-1.5-0.7c-0.7,0-1.2,0.2-1.5,0.7
		c-0.4,0.5-0.5,1.1-0.5,1.9c0,0.8,0.2,1.4,0.5,1.9C700.9,604.9,701.4,605.1,702.1,605.1z"/>
	<path fill="#FFFFFF" d="M708.8,606.1c-0.7,0-1.2-0.2-1.5-0.5c-0.4-0.4-0.5-0.9-0.5-1.5v-5h1.1v4.7c0,0.5,0.1,0.8,0.3,1
		c0.2,0.2,0.5,0.3,1,0.3c0.7,0,1.4-0.4,2.2-1.1v-5h1.1v6.9h-1.1v-1C710.6,605.7,709.7,606.1,708.8,606.1z"/>
	<path fill="#FFFFFF" d="M716.9,606c-0.7,0-1.2-0.1-1.5-0.4c-0.3-0.3-0.4-0.7-0.4-1.3V600h-1.2v-0.9h1.2v-2.4h1.1v2.4h1.8v0.9h-1.8
		v4c0,0.4,0.1,0.7,0.2,0.8c0.2,0.2,0.4,0.3,0.8,0.3c0.3,0,0.5,0,0.7-0.1v0.9C717.6,606,717.3,606,716.9,606z"/>
	<path fill="#FFFFFF" d="M719.4,605.9v-9.6h1.1v3.8c0.8-0.8,1.7-1.2,2.6-1.2c0.7,0,1.2,0.2,1.5,0.5c0.4,0.4,0.5,0.9,0.5,1.5v5H724
		v-4.7c0-0.5-0.1-0.8-0.3-1c-0.2-0.2-0.5-0.3-1-0.3c-0.7,0-1.4,0.4-2.2,1.1v4.9H719.4z"/>
	<path fill="#FFFFFF" d="M733.9,606.1c-1.2,0-2.2-0.4-3-1.3c-0.7-0.9-1.1-2.1-1.1-3.7c0-1.5,0.4-2.7,1.1-3.6c0.8-0.9,1.7-1.4,3-1.4
		c1.9,0,3.1,1,3.6,3l-1.1,0.3c-0.2-0.8-0.5-1.3-0.9-1.7c-0.4-0.4-0.9-0.5-1.6-0.5c-0.9,0-1.6,0.4-2.1,1.1c-0.5,0.7-0.8,1.6-0.8,2.8
		c0,1.3,0.3,2.2,0.8,3c0.5,0.7,1.2,1.1,2.2,1.1c1.3,0,2.2-0.8,2.6-2.3l1.1,0.2c-0.2,1-0.7,1.7-1.3,2.3
		C735.7,605.9,734.9,606.1,733.9,606.1z"/>
	<path fill="#FFFFFF" d="M741.8,606.1c-0.9,0-1.6-0.3-2.2-0.9c-0.6-0.6-0.9-1.5-0.9-2.6c0-0.6,0.1-1.1,0.3-1.6
		c0.2-0.5,0.4-0.8,0.7-1.1c0.3-0.3,0.6-0.5,1-0.6c0.4-0.1,0.7-0.2,1.1-0.2c0.9,0,1.5,0.3,2.1,0.9c0.5,0.6,0.8,1.5,0.8,2.7v0.2h-4.8
		c0,0.7,0.2,1.3,0.6,1.7c0.4,0.4,0.9,0.6,1.5,0.6c0.5,0,0.9-0.1,1.2-0.3c0.3-0.2,0.6-0.5,0.9-0.8l0.6,0.6
		C743.9,605.6,743,606.1,741.8,606.1z M739.9,601.9h3.8c0-0.6-0.2-1.1-0.5-1.5c-0.3-0.4-0.7-0.6-1.3-0.6c-0.5,0-0.9,0.2-1.3,0.5
		C740.2,600.7,739.9,601.3,739.9,601.9z"/>
	<path fill="#FFFFFF" d="M746.3,605.9v-6.9h1.1v1c0.8-0.8,1.7-1.2,2.6-1.2c0.7,0,1.2,0.2,1.5,0.5c0.4,0.4,0.5,0.9,0.5,1.5v5h-1.1
		v-4.7c0-0.5-0.1-0.8-0.3-1c-0.2-0.2-0.5-0.3-1-0.3c-0.7,0-1.4,0.4-2.2,1.1v4.9H746.3z"/>
	<path fill="#FFFFFF" d="M756.3,606c-0.7,0-1.2-0.1-1.5-0.4c-0.3-0.3-0.4-0.7-0.4-1.3V600h-1.2v-0.9h1.2v-2.4h1.1v2.4h1.8v0.9h-1.8
		v4c0,0.4,0.1,0.7,0.2,0.8c0.2,0.2,0.4,0.3,0.8,0.3c0.3,0,0.5,0,0.7-0.1v0.9C757,606,756.7,606,756.3,606z"/>
	<path fill="#FFFFFF" d="M758.8,605.9v-6.9h1.1v1.3h0c0.6-0.9,1.5-1.4,2.7-1.4h0.1l-0.1,1c0,0-0.1,0-0.3,0c-1.1,0-1.9,0.5-2.4,1.5
		v4.4H758.8z"/>
	<path fill="#FFFFFF" d="M765.3,606c-0.6,0-1.1-0.2-1.4-0.5s-0.5-0.7-0.5-1.3c0-0.7,0.4-1.3,1.1-1.8c0.7-0.5,1.9-0.8,3.5-1.1v-0.3
		c0-0.8-0.4-1.3-1.3-1.3c-0.9,0-1.7,0.3-2.5,1l-0.6-0.7c0.9-0.8,2-1.3,3.2-1.3c1.5,0,2.3,0.8,2.3,2.3v3c0,0.8,0.1,1.4,0.2,1.7h-1.1
		c-0.1-0.3-0.2-0.6-0.2-0.9C767.2,605.7,766.3,606,765.3,606z M765.6,605.2c0.9,0,1.6-0.3,2.3-1v-1.9c-1.3,0.2-2.2,0.5-2.7,0.8
		c-0.5,0.3-0.8,0.7-0.8,1.1c0,0.3,0.1,0.6,0.3,0.8C765,605.1,765.3,605.2,765.6,605.2z"/>
	<path fill="#FFFFFF" d="M771,605.9v-9.6h1.1v9.6H771z"/>
	<path fill="#FFFFFF" d="M660,621.5v-9.6h5.9v1.1h-4.8v3h3.5v1h-3.5v3.5h5v1H660z"/>
	<path fill="#FFFFFF" d="M669.1,621.6c-0.6,0-1.1-0.2-1.4-0.5c-0.3-0.3-0.5-0.7-0.5-1.3c0-0.7,0.4-1.3,1.1-1.8s1.9-0.8,3.5-1.1v-0.3
		c0-0.8-0.4-1.3-1.3-1.3c-0.9,0-1.7,0.3-2.5,1l-0.6-0.7c0.9-0.8,2-1.3,3.2-1.3c1.5,0,2.3,0.8,2.3,2.3v3c0,0.8,0.1,1.4,0.2,1.7h-1.1
		c-0.1-0.3-0.2-0.6-0.2-0.9C671,621.3,670.1,621.6,669.1,621.6z M669.4,620.8c0.9,0,1.6-0.3,2.3-1v-1.9c-1.3,0.2-2.2,0.5-2.7,0.8
		c-0.5,0.3-0.8,0.7-0.8,1.1c0,0.3,0.1,0.6,0.3,0.8C668.8,620.7,669,620.8,669.4,620.8z"/>
	<path fill="#FFFFFF" d="M677.1,621.7c-0.6,0-1.1-0.1-1.6-0.3c-0.5-0.2-0.9-0.5-1.2-0.9l0.7-0.7c0.6,0.6,1.3,0.9,2.1,0.9
		c1.1,0,1.7-0.4,1.7-1.1c0-0.3-0.1-0.6-0.4-0.7c-0.3-0.2-0.7-0.3-1.4-0.5c-0.8-0.2-1.5-0.4-1.9-0.7s-0.6-0.7-0.6-1.3
		c0-0.5,0.2-1,0.7-1.3c0.4-0.4,1-0.5,1.7-0.5c1,0,1.9,0.3,2.6,1l-0.6,0.7c-0.6-0.5-1.3-0.8-2-0.8c-0.5,0-0.8,0.1-1,0.3
		c-0.2,0.2-0.3,0.4-0.3,0.7c0,0.3,0.1,0.5,0.4,0.7s0.7,0.3,1.2,0.4c0.5,0.1,0.8,0.2,1.1,0.3c0.3,0.1,0.5,0.2,0.8,0.4
		s0.4,0.4,0.6,0.6c0.1,0.2,0.2,0.5,0.2,0.9c0,0.6-0.3,1.1-0.8,1.5C678.5,621.5,677.9,621.7,677.1,621.7z"/>
	<path fill="#FFFFFF" d="M683.7,621.6c-0.7,0-1.2-0.1-1.5-0.4c-0.3-0.3-0.4-0.7-0.4-1.3v-4.3h-1.2v-0.9h1.2v-2.4h1.1v2.4h1.8v0.9
		h-1.8v4c0,0.4,0.1,0.7,0.2,0.8c0.2,0.2,0.4,0.3,0.8,0.3c0.3,0,0.5,0,0.7-0.1v0.9C684.4,621.6,684.1,621.6,683.7,621.6z"/>
	<path fill="#FFFFFF" d="M692.6,621.7c-0.9,0-1.7-0.2-2.3-0.7s-1.1-1.1-1.3-1.8l1-0.4c0.5,1.3,1.4,1.9,2.7,1.9
		c0.7,0,1.2-0.1,1.6-0.4c0.4-0.3,0.6-0.7,0.6-1.2c0-0.5-0.2-0.9-0.5-1.1s-1-0.6-1.9-0.9c-1.1-0.3-2-0.7-2.5-1.1
		c-0.5-0.4-0.7-1-0.7-1.7c0-0.7,0.3-1.3,0.9-1.8c0.6-0.5,1.3-0.7,2.2-0.7c0.9,0,1.6,0.2,2.1,0.6c0.6,0.4,1,0.9,1.2,1.6l-0.9,0.5
		c-0.5-1.1-1.3-1.6-2.5-1.6c-0.6,0-1.1,0.1-1.4,0.4c-0.4,0.3-0.5,0.6-0.5,1c0,0.5,0.2,0.9,0.5,1.1c0.3,0.3,1,0.5,2,0.8
		c1.1,0.3,1.8,0.7,2.3,1.1c0.5,0.4,0.7,1,0.7,1.8c0,0.8-0.3,1.4-0.9,1.9C694.4,621.5,693.6,621.7,692.6,621.7z"/>
	<path fill="#FFFFFF" d="M702.7,620.7c-0.6,0.6-1.4,0.9-2.3,0.9s-1.6-0.3-2.3-0.9c-0.6-0.6-0.9-1.5-0.9-2.6c0-1.1,0.3-2,0.9-2.6
		c0.6-0.6,1.4-0.9,2.3-0.9c0.9,0,1.6,0.3,2.3,0.9c0.6,0.6,0.9,1.5,0.9,2.6C703.6,619.2,703.3,620.1,702.7,620.7z M700.4,620.7
		c0.6,0,1.1-0.2,1.5-0.7s0.5-1.1,0.5-1.9c0-0.8-0.2-1.4-0.5-1.9c-0.4-0.5-0.9-0.7-1.5-0.7c-0.6,0-1.2,0.2-1.5,0.7s-0.5,1.1-0.5,1.9
		c0,0.8,0.2,1.4,0.5,1.9C699.3,620.5,699.8,620.7,700.4,620.7z"/>
	<path fill="#FFFFFF" d="M707.2,621.7c-0.7,0-1.2-0.2-1.5-0.5c-0.4-0.4-0.5-0.9-0.5-1.5v-5h1.1v4.7c0,0.5,0.1,0.8,0.3,1
		c0.2,0.2,0.5,0.3,1,0.3c0.7,0,1.4-0.4,2.2-1.1v-5h1.1v6.9h-1.1v-1C709,621.3,708.1,621.7,707.2,621.7z"/>
	<path fill="#FFFFFF" d="M715.3,621.6c-0.7,0-1.2-0.1-1.5-0.4c-0.3-0.3-0.4-0.7-0.4-1.3v-4.3h-1.2v-0.9h1.2v-2.4h1.1v2.4h1.8v0.9
		h-1.8v4c0,0.4,0.1,0.7,0.2,0.8c0.2,0.2,0.4,0.3,0.8,0.3c0.3,0,0.5,0,0.7-0.1v0.9C716,621.6,715.6,621.6,715.3,621.6z"/>
	<path fill="#FFFFFF" d="M717.7,621.5v-9.6h1.1v3.8c0.8-0.8,1.7-1.2,2.6-1.2c0.6,0,1.2,0.2,1.5,0.5s0.5,0.9,0.5,1.5v5h-1.1v-4.7
		c0-0.5-0.1-0.8-0.3-1c-0.2-0.2-0.5-0.3-1-0.3c-0.7,0-1.4,0.4-2.2,1.1v4.9H717.7z"/>
	<path fill="#FFFFFF" d="M732.2,621.7c-1.2,0-2.2-0.4-3-1.3c-0.7-0.9-1.1-2.1-1.1-3.7c0-1.5,0.4-2.7,1.1-3.6c0.8-0.9,1.7-1.4,3-1.4
		c1.9,0,3.1,1,3.6,3l-1.1,0.3c-0.2-0.8-0.5-1.3-0.9-1.7c-0.4-0.4-0.9-0.5-1.6-0.5c-0.9,0-1.6,0.4-2.1,1.1s-0.8,1.6-0.8,2.8
		c0,1.3,0.3,2.2,0.8,3s1.2,1.1,2.2,1.1c1.3,0,2.2-0.8,2.6-2.3l1.1,0.2c-0.2,1-0.7,1.7-1.3,2.3C734,621.5,733.2,621.7,732.2,621.7z"
		/>
	<path fill="#FFFFFF" d="M740.2,621.7c-0.9,0-1.6-0.3-2.2-0.9s-0.9-1.5-0.9-2.6c0-0.6,0.1-1.1,0.3-1.6c0.2-0.5,0.4-0.8,0.7-1.1
		s0.6-0.5,1-0.6c0.4-0.1,0.7-0.2,1.1-0.2c0.9,0,1.5,0.3,2.1,0.9c0.5,0.6,0.8,1.5,0.8,2.7v0.2h-4.8c0,0.7,0.2,1.3,0.6,1.7
		c0.4,0.4,0.9,0.6,1.5,0.6c0.5,0,0.9-0.1,1.2-0.3c0.3-0.2,0.6-0.5,0.9-0.8l0.6,0.6C742.3,621.2,741.4,621.7,740.2,621.7z
		 M738.2,617.5h3.8c0-0.6-0.2-1.1-0.5-1.5c-0.3-0.4-0.7-0.6-1.3-0.6c-0.5,0-0.9,0.2-1.3,0.5S738.3,616.9,738.2,617.5z"/>
	<path fill="#FFFFFF" d="M744.6,621.5v-6.9h1.1v1c0.8-0.8,1.7-1.2,2.6-1.2c0.7,0,1.2,0.2,1.5,0.5c0.4,0.4,0.5,0.9,0.5,1.5v5h-1.1
		v-4.7c0-0.5-0.1-0.8-0.3-1c-0.2-0.2-0.5-0.3-1-0.3c-0.7,0-1.4,0.4-2.2,1.1v4.9H744.6z"/>
	<path fill="#FFFFFF" d="M754.7,621.6c-0.7,0-1.2-0.1-1.5-0.4c-0.3-0.3-0.4-0.7-0.4-1.3v-4.3h-1.2v-0.9h1.2v-2.4h1.1v2.4h1.8v0.9
		h-1.8v4c0,0.4,0.1,0.7,0.2,0.8c0.2,0.2,0.4,0.3,0.8,0.3c0.3,0,0.5,0,0.7-0.1v0.9C755.4,621.6,755.1,621.6,754.7,621.6z"/>
	<path fill="#FFFFFF" d="M757.2,621.5v-6.9h1.1v1.3h0c0.6-0.9,1.5-1.4,2.7-1.4h0.1l-0.1,1c0,0-0.1,0-0.3,0c-1.1,0-1.9,0.5-2.4,1.5
		v4.4H757.2z"/>
	<path fill="#FFFFFF" d="M763.7,621.6c-0.6,0-1.1-0.2-1.4-0.5c-0.3-0.3-0.5-0.7-0.5-1.3c0-0.7,0.4-1.3,1.1-1.8
		c0.7-0.5,1.9-0.8,3.5-1.1v-0.3c0-0.8-0.4-1.3-1.3-1.3c-0.9,0-1.7,0.3-2.5,1l-0.6-0.7c0.9-0.8,2-1.3,3.2-1.3c1.5,0,2.3,0.8,2.3,2.3
		v3c0,0.8,0.1,1.4,0.2,1.7h-1.1c-0.1-0.3-0.2-0.6-0.2-0.9C765.6,621.3,764.7,621.6,763.7,621.6z M764,620.8c0.9,0,1.6-0.3,2.3-1
		v-1.9c-1.3,0.2-2.2,0.5-2.7,0.8c-0.5,0.3-0.8,0.7-0.8,1.1c0,0.3,0.1,0.6,0.3,0.8C763.3,620.7,763.6,620.8,764,620.8z"/>
	<path fill="#FFFFFF" d="M769.4,621.5v-9.6h1.1v9.6H769.4z"/>
	<path fill="#FFFFFF" d="M676.8,637.3c-0.9,0-1.7-0.2-2.3-0.7s-1.1-1.1-1.3-1.8l1-0.4c0.5,1.3,1.4,1.9,2.7,1.9
		c0.7,0,1.2-0.1,1.6-0.4c0.4-0.3,0.6-0.7,0.6-1.2c0-0.5-0.2-0.9-0.5-1.1s-1-0.6-1.9-0.9c-1.1-0.3-2-0.7-2.5-1.1
		c-0.5-0.4-0.7-1-0.7-1.7c0-0.7,0.3-1.3,0.9-1.8c0.6-0.5,1.3-0.7,2.2-0.7c0.9,0,1.6,0.2,2.1,0.6c0.6,0.4,1,0.9,1.2,1.6L679,630
		c-0.5-1.1-1.3-1.6-2.5-1.6c-0.6,0-1.1,0.1-1.4,0.4c-0.4,0.3-0.5,0.6-0.5,1c0,0.5,0.2,0.9,0.5,1.1c0.3,0.3,1,0.5,2,0.8
		c1.1,0.3,1.8,0.7,2.3,1.1c0.5,0.4,0.7,1,0.7,1.8c0,0.8-0.3,1.4-0.9,1.9C678.6,637.1,677.8,637.3,676.8,637.3z"/>
	<path fill="#FFFFFF" d="M686.9,636.3c-0.6,0.6-1.4,0.9-2.3,0.9s-1.6-0.3-2.3-0.9c-0.6-0.6-0.9-1.5-0.9-2.6c0-1.1,0.3-2,0.9-2.6
		c0.6-0.6,1.4-0.9,2.3-0.9c0.9,0,1.6,0.3,2.3,0.9c0.6,0.6,0.9,1.5,0.9,2.6C687.8,634.8,687.5,635.7,686.9,636.3z M684.6,636.3
		c0.6,0,1.1-0.2,1.5-0.7s0.5-1.1,0.5-1.9c0-0.8-0.2-1.4-0.5-1.9c-0.4-0.5-0.9-0.7-1.5-0.7c-0.6,0-1.2,0.2-1.5,0.7s-0.5,1.1-0.5,1.9
		c0,0.8,0.2,1.4,0.5,1.9C683.5,636.1,684,636.3,684.6,636.3z"/>
	<path fill="#FFFFFF" d="M691.4,637.3c-0.7,0-1.2-0.2-1.5-0.5c-0.4-0.4-0.5-0.9-0.5-1.5v-5h1.1v4.7c0,0.5,0.1,0.8,0.3,1
		c0.2,0.2,0.5,0.3,1,0.3c0.7,0,1.4-0.4,2.2-1.1v-5h1.1v6.9h-1.1v-1C693.2,636.9,692.3,637.3,691.4,637.3z"/>
	<path fill="#FFFFFF" d="M699.5,637.2c-0.7,0-1.2-0.1-1.5-0.4c-0.3-0.3-0.4-0.7-0.4-1.3v-4.3h-1.2v-0.9h1.2v-2.4h1.1v2.4h1.8v0.9
		h-1.8v4c0,0.4,0.1,0.7,0.2,0.8c0.2,0.2,0.4,0.3,0.8,0.3c0.3,0,0.5,0,0.7-0.1v0.9C700.2,637.2,699.8,637.2,699.5,637.2z"/>
	<path fill="#FFFFFF" d="M702,637.1v-9.6h1.1v3.8c0.8-0.8,1.7-1.2,2.6-1.2c0.6,0,1.2,0.2,1.5,0.5s0.5,0.9,0.5,1.5v5h-1.1v-4.7
		c0-0.5-0.1-0.8-0.3-1c-0.2-0.2-0.5-0.3-1-0.3c-0.7,0-1.4,0.4-2.2,1.1v4.9H702z"/>
	<path fill="#FFFFFF" d="M711.7,637.1l3.4-9.7h1.2l3.4,9.7h-1.2l-0.9-2.8h-3.8l-0.9,2.8H711.7z M714.1,633.4h3.1l-1.5-4.5h0
		L714.1,633.4z"/>
	<path fill="#FFFFFF" d="M723.2,637.2c-0.7,0-1.2-0.1-1.5-0.4c-0.3-0.3-0.4-0.7-0.4-1.3v-4.3h-1.2v-0.9h1.2v-2.4h1.1v2.4h1.8v0.9
		h-1.8v4c0,0.4,0.1,0.7,0.2,0.8c0.2,0.2,0.4,0.3,0.8,0.3c0.3,0,0.5,0,0.7-0.1v0.9C723.9,637.2,723.6,637.2,723.2,637.2z"/>
	<path fill="#FFFFFF" d="M725.8,637.1v-9.6h1.1v9.6H725.8z"/>
	<path fill="#FFFFFF" d="M730.5,637.2c-0.6,0-1.1-0.2-1.4-0.5c-0.3-0.3-0.5-0.7-0.5-1.3c0-0.7,0.4-1.3,1.1-1.8
		c0.7-0.5,1.9-0.8,3.5-1.1v-0.3c0-0.8-0.4-1.3-1.3-1.3c-0.9,0-1.7,0.3-2.5,1l-0.6-0.7c0.9-0.8,2-1.3,3.2-1.3c1.5,0,2.3,0.8,2.3,2.3
		v3c0,0.8,0.1,1.4,0.2,1.7h-1.1c-0.1-0.3-0.2-0.6-0.2-0.9C732.4,636.9,731.5,637.2,730.5,637.2z M730.8,636.4c0.9,0,1.6-0.3,2.3-1
		v-1.9c-1.3,0.2-2.2,0.5-2.7,0.8c-0.5,0.3-0.8,0.7-0.8,1.1c0,0.3,0.1,0.6,0.3,0.8C730.2,636.3,730.5,636.4,730.8,636.4z"/>
	<path fill="#FFFFFF" d="M736.2,637.1v-6.9h1.1v1c0.8-0.8,1.7-1.2,2.6-1.2c0.6,0,1.2,0.2,1.5,0.5c0.4,0.4,0.5,0.9,0.5,1.5v5h-1.1
		v-4.7c0-0.5-0.1-0.8-0.3-1c-0.2-0.2-0.5-0.3-1-0.3c-0.7,0-1.4,0.4-2.2,1.1v4.9H736.2z"/>
	<path fill="#FFFFFF" d="M746.2,637.2c-0.7,0-1.2-0.1-1.5-0.4c-0.3-0.3-0.4-0.7-0.4-1.3v-4.3h-1.2v-0.9h1.2v-2.4h1.1v2.4h1.8v0.9
		h-1.8v4c0,0.4,0.1,0.7,0.2,0.8c0.2,0.2,0.4,0.3,0.8,0.3c0.3,0,0.5,0,0.7-0.1v0.9C746.9,637.2,746.6,637.2,746.2,637.2z"/>
	<path fill="#FFFFFF" d="M748.8,628.8v-1.1h1.2v1.1H748.8z M748.8,637.1v-6.9h1.1v6.9H748.8z"/>
	<path fill="#FFFFFF" d="M754.6,637.3c-0.8,0-1.6-0.3-2.2-0.9c-0.6-0.6-0.9-1.5-0.9-2.6c0-1.2,0.3-2.1,0.9-2.7
		c0.6-0.6,1.4-0.9,2.2-0.9c1.3,0,2.2,0.6,2.7,1.9l-0.9,0.4c-0.3-0.9-0.9-1.4-1.8-1.4c-0.6,0-1,0.2-1.4,0.6c-0.4,0.4-0.6,1.1-0.6,2
		c0,0.8,0.2,1.5,0.5,1.9c0.4,0.5,0.8,0.7,1.4,0.7c0.4,0,0.8-0.1,1.1-0.3c0.3-0.2,0.5-0.6,0.8-1.1l0.9,0.4c-0.3,0.6-0.7,1.1-1.1,1.4
		S755.3,637.3,754.6,637.3z"/>
</g>
</svg>
