<?xml version="1.0" encoding="utf-8"?>
<!-- Generator: Adobe Illustrator 18.0.0, SVG Export Plug-In . SVG Version: 6.00 Build 0)  -->
<!DOCTYPE svg PUBLIC "-//W3C//DTD SVG 1.1//EN" "http://www.w3.org/Graphics/SVG/1.1/DTD/svg11.dtd">
<svg version="1.1" xmlns="http://www.w3.org/2000/svg" xmlns:xlink="http://www.w3.org/1999/xlink" x="0px" y="0px"
	 viewBox="0 0 798.6 492.6" enable-background="new 0 0 798.6 492.6" xml:space="preserve">
<g id="Layer_1">
</g>
<g id="Layer_2">
	<g>
		<path fill="#C6A757" d="M388.8,212.9h60.7c12.6-9.3,20.8-24.3,20.8-41.2c0-28.2-22.9-51.1-51.2-51.1S368,143.5,368,171.8
			C368,188.6,376.2,203.6,388.8,212.9"/>
		<text transform="matrix(1 0 0 1 380.7081 161.3106)"><tspan x="0" y="0" fill="#FFFFFF" font-family="'BentonSansCond-Bold'" font-size="12.5492">MI</tspan><tspan x="13.2" y="0" fill="#FFFFFF" font-family="'BentonSansCond-Bold'" font-size="12.5492">D</tspan><tspan x="20.8" y="0" fill="#FFFFFF" font-family="'BentonSansCond-Bold'" font-size="12.5492">W</tspan><tspan x="30.9" y="0" fill="#FFFFFF" font-family="'BentonSansCond-Bold'" font-size="12.5492">E</tspan><tspan x="37.4" y="0" fill="#FFFFFF" font-family="'BentonSansCond-Bold'" font-size="12.5492">S</tspan><tspan x="44.5" y="0" fill="#FFFFFF" font-family="'BentonSansCond-Bold'" font-size="12.5492">T</tspan><tspan x="50.9" y="0" fill="#FFFFFF" font-family="'BentonSansCond-Bold'" font-size="12.5492"> 18%</tspan></text>
		<text transform="matrix(1 0 0 1 376.8458 175)"><tspan x="0" y="0" fill="#FFFFFF" font-family="'BentonSansCond-Book'" font-size="11.4084">W</tspan><tspan x="8.1" y="0" fill="#FFFFFF" font-family="'BentonSansCond-Book'" font-size="11.4084">e</tspan><tspan x="13.3" y="0" fill="#FFFFFF" font-family="'BentonSansCond-Book'" font-size="11.4084">s</tspan><tspan x="18.1" y="0" fill="#FFFFFF" font-family="'BentonSansCond-Book'" font-size="11.4084">t North </tspan><tspan x="51.9" y="0" fill="#FFFFFF" font-family="'BentonSansCond-Book'" font-size="11.4084">C</tspan><tspan x="58.5" y="0" fill="#FFFFFF" font-family="'BentonSansCond-Book'" font-size="11.4084">ent</tspan><tspan x="73" y="0" fill="#FFFFFF" font-family="'BentonSansCond-Book'" font-size="11.4084">r</tspan><tspan x="76.7" y="0" fill="#FFFFFF" font-family="'BentonSansCond-Book'" font-size="11.4084">al</tspan></text>
		<text transform="matrix(1 0 0 1 378.0313 188.6905)"><tspan x="0" y="0" fill="#FFFFFF" font-family="'BentonSansCond-Book'" font-size="11.4084">E</tspan><tspan x="5.6" y="0" fill="#FFFFFF" font-family="'BentonSansCond-Book'" font-size="11.4084">a</tspan><tspan x="10.9" y="0" fill="#FFFFFF" font-family="'BentonSansCond-Book'" font-size="11.4084">s</tspan><tspan x="15.7" y="0" fill="#FFFFFF" font-family="'BentonSansCond-Book'" font-size="11.4084">t North </tspan><tspan x="49.5" y="0" fill="#FFFFFF" font-family="'BentonSansCond-Book'" font-size="11.4084">C</tspan><tspan x="56.1" y="0" fill="#FFFFFF" font-family="'BentonSansCond-Book'" font-size="11.4084">ent</tspan><tspan x="70.6" y="0" fill="#FFFFFF" font-family="'BentonSansCond-Book'" font-size="11.4084">r</tspan><tspan x="74.3" y="0" fill="#FFFFFF" font-family="'BentonSansCond-Book'" font-size="11.4084">al</tspan></text>
	</g>
</g>
</svg>
