<?xml version="1.0" encoding="utf-8"?>
<!-- Generator: Adobe Illustrator 17.1.0, SVG Export Plug-In . SVG Version: 6.00 Build 0)  -->
<!DOCTYPE svg PUBLIC "-//W3C//DTD SVG 1.1//EN" "http://www.w3.org/Graphics/SVG/1.1/DTD/svg11.dtd">
<svg version="1.1" id="Layer_1" xmlns="http://www.w3.org/2000/svg" xmlns:xlink="http://www.w3.org/1999/xlink" x="0px" y="0px"
	 viewBox="0 0 1000 1000" enable-background="new 0 0 1000 1000" xml:space="preserve">
<path fill="#C6A757" d="M147.4,462.2h76c15.8-11.6,26-30.4,26-51.6c0-35.3-28.7-64-64.1-64s-63.9,28.7-63.9,64
	C121.5,431.8,131.6,450.5,147.4,462.2"/>
<g>
	<path fill="#FFFFFF" d="M155.4,401.5l-2.6-9.6h1.2l1.4,5.6c0.3,1,0.5,1.8,0.6,2.4h0c0.1-0.7,0.3-1.5,0.5-2.3l1.3-5.6h1.2l1.4,5.6
		c0.3,1.3,0.5,2,0.5,2.3h0c0.1-0.3,0.2-1.1,0.5-2.3l1.4-5.7h1.1l-2.5,9.6h-1.1l-1.9-8h0l-2,8H155.4z"/>
	<path fill="#FFFFFF" d="M165.7,401.5v-9.6h5.9v1.1h-4.8v3h3.5v1h-3.5v3.5h5v1H165.7z"/>
	<path fill="#FFFFFF" d="M176.5,401.7c-0.9,0-1.7-0.2-2.3-0.7c-0.6-0.5-1.1-1.1-1.3-1.8l1-0.4c0.5,1.3,1.4,1.9,2.7,1.9
		c0.7,0,1.2-0.1,1.6-0.4c0.4-0.3,0.6-0.7,0.6-1.2c0-0.5-0.2-0.9-0.5-1.1c-0.3-0.3-1-0.6-1.9-0.9c-1.1-0.3-2-0.7-2.5-1.1
		s-0.7-1-0.7-1.7c0-0.7,0.3-1.3,0.9-1.8c0.6-0.5,1.3-0.7,2.2-0.7c0.9,0,1.6,0.2,2.1,0.6c0.6,0.4,1,0.9,1.2,1.6l-0.9,0.5
		c-0.5-1.1-1.3-1.6-2.5-1.6c-0.6,0-1.1,0.1-1.4,0.4c-0.4,0.3-0.5,0.6-0.5,1c0,0.5,0.2,0.9,0.5,1.1c0.3,0.3,1,0.5,2,0.8
		c1.1,0.3,1.8,0.7,2.3,1.1c0.5,0.4,0.7,1,0.7,1.8c0,0.8-0.3,1.4-0.9,1.9C178.4,401.5,177.6,401.7,176.5,401.7z"/>
	<path fill="#FFFFFF" d="M183.7,401.5V393h-3.1v-1.1h7.3v1.1h-3.1v8.6H183.7z"/>
	<path fill="#FFFFFF" d="M194.7,401.7c-0.7,0-1.4-0.2-2-0.5s-1.1-0.7-1.4-1.3l0.8-0.6c0.6,0.9,1.5,1.4,2.6,1.4
		c0.7,0,1.2-0.2,1.6-0.5c0.4-0.3,0.6-0.8,0.6-1.3c0-0.7-0.2-1.2-0.7-1.5c-0.5-0.3-1.2-0.5-2.3-0.5h-0.4V396h0.5c1,0,1.6-0.1,2.1-0.4
		s0.6-0.7,0.6-1.3c0-1-0.6-1.5-1.9-1.5c-0.9,0-1.6,0.4-2.3,1.1l-0.7-0.7c0.8-0.9,1.8-1.4,3.1-1.4c1,0,1.7,0.2,2.2,0.7s0.7,1,0.7,1.7
		c0,0.6-0.2,1.1-0.5,1.5c-0.3,0.4-0.8,0.7-1.4,0.8c1.4,0.3,2.1,1.1,2.1,2.5c0,0.8-0.3,1.5-0.9,2
		C196.5,401.5,195.7,401.7,194.7,401.7z"/>
	<path fill="#FFFFFF" d="M205.7,400.4c-0.6,0.9-1.5,1.4-2.7,1.4c-1.1,0-2-0.5-2.7-1.4c-0.6-0.9-1-2.1-1-3.6s0.3-2.7,1-3.6
		c0.6-0.9,1.5-1.4,2.7-1.4c1.1,0,2,0.5,2.7,1.4c0.6,0.9,0.9,2.1,0.9,3.6S206.3,399.5,205.7,400.4z M203,400.7c0.8,0,1.4-0.3,1.8-1
		c0.4-0.7,0.6-1.7,0.6-3c0-1.3-0.2-2.3-0.7-3c-0.4-0.7-1-1-1.8-1c-0.8,0-1.4,0.3-1.8,1c-0.4,0.7-0.6,1.7-0.6,3c0,1.3,0.2,2.3,0.7,3
		S202.2,400.7,203,400.7z"/>
	<path fill="#FFFFFF" d="M210.3,397.6c-0.7,0-1.3-0.3-1.7-0.8c-0.4-0.5-0.6-1.2-0.6-2.1c0-0.9,0.2-1.6,0.6-2.2
		c0.4-0.5,1-0.8,1.7-0.8c0.7,0,1.2,0.3,1.6,0.8c0.4,0.5,0.6,1.2,0.6,2.1c0,0.9-0.2,1.6-0.6,2.1C211.5,397.4,211,397.6,210.3,397.6z
		 M210.3,396.8c0.4,0,0.7-0.2,0.9-0.6c0.2-0.4,0.3-0.9,0.3-1.5c0-0.6-0.1-1.2-0.3-1.5c-0.2-0.4-0.5-0.6-0.9-0.6
		c-0.4,0-0.7,0.2-0.9,0.6c-0.2,0.4-0.3,0.9-0.3,1.5c0,0.6,0.1,1.2,0.3,1.5C209.6,396.6,209.9,396.8,210.3,396.8z M210.4,401.5
		l5.7-9.6h1l-5.7,9.6H210.4z M217.2,401.7c-0.7,0-1.3-0.3-1.6-0.8c-0.4-0.5-0.6-1.2-0.6-2.1c0-0.9,0.2-1.6,0.6-2.2
		c0.4-0.5,1-0.8,1.7-0.8c0.7,0,1.2,0.3,1.6,0.8c0.4,0.5,0.6,1.2,0.6,2.1c0,0.9-0.2,1.6-0.6,2.1C218.5,401.4,217.9,401.7,217.2,401.7
		z M217.2,400.8c0.4,0,0.7-0.2,0.9-0.6c0.2-0.4,0.3-0.9,0.3-1.5c0-0.6-0.1-1.2-0.3-1.5c-0.2-0.4-0.5-0.6-0.9-0.6
		c-0.4,0-0.7,0.2-0.9,0.6c-0.2,0.4-0.3,0.9-0.3,1.5c0,0.6,0.1,1.2,0.3,1.5C216.5,400.6,216.8,400.8,217.2,400.8z"/>
	<path fill="#FFFFFF" d="M135.2,417.1v-9.6h3.3c1.1,0,1.9,0.2,2.5,0.7c0.6,0.5,0.9,1.1,0.9,2.1c0,1-0.3,1.7-1,2.1
		c-0.6,0.5-1.5,0.7-2.6,0.7h-2v4.1H135.2z M136.3,412.1h2.1c0.8,0,1.4-0.1,1.8-0.4c0.4-0.3,0.6-0.7,0.6-1.4c0-0.6-0.2-1-0.6-1.3
		c-0.4-0.3-1-0.4-1.8-0.4h-2.1V412.1z"/>
	<path fill="#FFFFFF" d="M144.5,417.2c-0.6,0-1.1-0.2-1.4-0.5c-0.3-0.3-0.5-0.7-0.5-1.3c0-0.7,0.4-1.3,1.1-1.8
		c0.7-0.5,1.9-0.8,3.5-1.1v-0.3c0-0.8-0.4-1.3-1.3-1.3c-0.9,0-1.7,0.3-2.5,1l-0.6-0.7c0.9-0.8,2-1.3,3.2-1.3c1.5,0,2.3,0.8,2.3,2.3
		v3c0,0.8,0.1,1.4,0.2,1.7h-1.1c-0.1-0.3-0.2-0.6-0.2-0.9C146.4,416.9,145.5,417.2,144.5,417.2z M144.8,416.4c0.9,0,1.6-0.3,2.3-1
		v-1.9c-1.3,0.2-2.2,0.5-2.7,0.8c-0.5,0.3-0.8,0.7-0.8,1.1c0,0.3,0.1,0.6,0.3,0.8S144.4,416.4,144.8,416.4z"/>
	<path fill="#FFFFFF" d="M152.8,417.3c-0.8,0-1.6-0.3-2.2-0.9c-0.6-0.6-0.9-1.5-0.9-2.6c0-1.2,0.3-2.1,0.9-2.7
		c0.6-0.6,1.4-0.9,2.2-0.9c1.3,0,2.2,0.6,2.7,1.9l-0.9,0.4c-0.3-0.9-0.9-1.4-1.8-1.4c-0.6,0-1,0.2-1.4,0.6c-0.4,0.4-0.6,1.1-0.6,2
		c0,0.8,0.2,1.5,0.5,1.9c0.4,0.5,0.8,0.7,1.4,0.7c0.4,0,0.8-0.1,1.1-0.3c0.3-0.2,0.5-0.6,0.8-1.1l0.9,0.4c-0.3,0.6-0.7,1.1-1.1,1.4
		C154.1,417.1,153.5,417.3,152.8,417.3z"/>
	<path fill="#FFFFFF" d="M157.2,408.8v-1.1h1.2v1.1H157.2z M157.2,417.1v-6.9h1.1v6.9H157.2z"/>
	<path fill="#FFFFFF" d="M160.9,417.1v-5.9h-1.2v-0.9h1.2v-0.9c0-0.6,0.2-1,0.5-1.4c0.3-0.3,0.8-0.5,1.5-0.5c0.1,0,0.2,0,0.3,0
		c0.2,0,0.2,0,0.3,0v0.9c-0.1,0-0.2,0-0.5,0c-0.7,0-1,0.3-1,1v0.9h1.4v0.9H162v5.9H160.9z M164.8,408.8v-1.1h1.1v1.1H164.8z
		 M164.8,417.1v-6.9h1.1v6.9H164.8z"/>
	<path fill="#FFFFFF" d="M170.7,417.3c-0.8,0-1.6-0.3-2.2-0.9c-0.6-0.6-0.9-1.5-0.9-2.6c0-1.2,0.3-2.1,0.9-2.7
		c0.6-0.6,1.4-0.9,2.2-0.9c1.3,0,2.2,0.6,2.7,1.9l-0.9,0.4c-0.3-0.9-0.9-1.4-1.8-1.4c-0.6,0-1,0.2-1.4,0.6c-0.4,0.4-0.6,1.1-0.6,2
		c0,0.8,0.2,1.5,0.5,1.9c0.4,0.5,0.8,0.7,1.4,0.7c0.4,0,0.8-0.1,1.1-0.3c0.3-0.2,0.5-0.6,0.8-1.1l0.9,0.4c-0.3,0.6-0.7,1.1-1.1,1.4
		C172,417.1,171.4,417.3,170.7,417.3z"/>
	<path fill="#FFFFFF" d="M174.3,417.1l5.6-9.6h1.2l-5.6,9.6H174.3z"/>
	<path fill="#FFFFFF" d="M182.6,417.1v-9.6h1.5l3,8.2h0l3-8.2h1.5v9.6h-1.1v-7.8h0c-0.1,0.2-0.2,0.8-0.6,1.8l-2.3,6h-1l-2.3-6
		c-0.3-0.7-0.5-1.3-0.6-1.8h0v7.8H182.6z"/>
	<path fill="#FFFFFF" d="M198.8,416.3c-0.6,0.6-1.4,0.9-2.3,0.9s-1.6-0.3-2.3-0.9s-0.9-1.5-0.9-2.6c0-1.1,0.3-2,0.9-2.6
		s1.4-0.9,2.3-0.9c0.9,0,1.6,0.3,2.3,0.9c0.6,0.6,0.9,1.5,0.9,2.6C199.8,414.8,199.5,415.7,198.8,416.3z M196.6,416.3
		c0.6,0,1.1-0.2,1.5-0.7c0.4-0.5,0.5-1.1,0.5-1.9c0-0.8-0.2-1.4-0.5-1.9c-0.4-0.5-0.9-0.7-1.5-0.7c-0.6,0-1.2,0.2-1.5,0.7
		c-0.4,0.5-0.5,1.1-0.5,1.9c0,0.8,0.2,1.4,0.5,1.9C195.4,416.1,195.9,416.3,196.6,416.3z"/>
	<path fill="#FFFFFF" d="M203.3,417.3c-0.7,0-1.2-0.2-1.5-0.5c-0.4-0.4-0.5-0.9-0.5-1.5v-5h1.1v4.7c0,0.5,0.1,0.8,0.3,1
		c0.2,0.2,0.5,0.3,1,0.3c0.7,0,1.4-0.4,2.2-1.1v-5h1.1v6.9h-1.1v-1C205.1,416.9,204.2,417.3,203.3,417.3z"/>
	<path fill="#FFFFFF" d="M209,417.1v-6.9h1.1v1c0.8-0.8,1.7-1.2,2.6-1.2c0.6,0,1.2,0.2,1.5,0.5c0.4,0.4,0.5,0.9,0.5,1.5v5h-1.1v-4.7
		c0-0.5-0.1-0.8-0.3-1c-0.2-0.2-0.5-0.3-1-0.3c-0.7,0-1.4,0.4-2.2,1.1v4.9H209z"/>
	<path fill="#FFFFFF" d="M219,417.2c-0.7,0-1.2-0.1-1.5-0.4c-0.3-0.3-0.4-0.7-0.4-1.3v-4.3h-1.2v-0.9h1.2v-2.4h1.1v2.4h1.8v0.9h-1.8
		v4c0,0.4,0.1,0.7,0.2,0.8c0.2,0.2,0.4,0.3,0.8,0.3c0.3,0,0.5,0,0.7-0.1v0.9C219.8,417.2,219.4,417.2,219,417.2z"/>
	<path fill="#FFFFFF" d="M223.1,417.2c-0.6,0-1.1-0.2-1.4-0.5c-0.3-0.3-0.5-0.7-0.5-1.3c0-0.7,0.4-1.3,1.1-1.8
		c0.7-0.5,1.9-0.8,3.5-1.1v-0.3c0-0.8-0.4-1.3-1.3-1.3c-0.9,0-1.7,0.3-2.5,1l-0.6-0.7c0.9-0.8,2-1.3,3.2-1.3c1.5,0,2.3,0.8,2.3,2.3
		v3c0,0.8,0.1,1.4,0.2,1.7h-1.1c-0.1-0.3-0.2-0.6-0.2-0.9C225,416.9,224.1,417.2,223.1,417.2z M223.4,416.4c0.9,0,1.6-0.3,2.3-1
		v-1.9c-1.3,0.2-2.2,0.5-2.7,0.8c-0.5,0.3-0.8,0.7-0.8,1.1c0,0.3,0.1,0.6,0.3,0.8S223,416.4,223.4,416.4z"/>
	<path fill="#FFFFFF" d="M228.8,408.8v-1.1h1.2v1.1H228.8z M228.8,417.1v-6.9h1.1v6.9H228.8z"/>
	<path fill="#FFFFFF" d="M232,417.1v-6.9h1.1v1c0.8-0.8,1.7-1.2,2.6-1.2c0.6,0,1.2,0.2,1.5,0.5c0.4,0.4,0.5,0.9,0.5,1.5v5h-1.1v-4.7
		c0-0.5-0.1-0.8-0.3-1c-0.2-0.2-0.5-0.3-1-0.3c-0.7,0-1.4,0.4-2.2,1.1v4.9H232z"/>
</g>
</svg>
