<?xml version="1.0" encoding="utf-8"?>
<!-- Generator: Adobe Illustrator 17.1.0, SVG Export Plug-In . SVG Version: 6.00 Build 0)  -->
<!DOCTYPE svg PUBLIC "-//W3C//DTD SVG 1.1//EN" "http://www.w3.org/Graphics/SVG/1.1/DTD/svg11.dtd">
<svg version="1.1" id="Layer_1" xmlns="http://www.w3.org/2000/svg" xmlns:xlink="http://www.w3.org/1999/xlink" x="0px" y="0px"
	 viewBox="0 0 1000 1000" enable-background="new 0 0 1000 1000" xml:space="preserve">
<g id="Layer_1_1_">
</g>
<path fill="#C6A757" d="M486.9,458.2h76c15.8-11.6,26-30.4,26-51.6c0-35.3-28.7-64-64.1-64c-35.4,0-64,28.7-64,64.1
	C460.8,427.7,471.1,446.5,486.9,458.2"/>
<g>
	<path fill="#FFFFFF" d="M481.7,394v-9.6h1.5l3,8.2h0l3-8.2h1.5v9.6h-1.1v-7.8h0c-0.1,0.2-0.2,0.8-0.6,1.8l-2.3,6h-1l-2.3-6
		c-0.3-0.7-0.5-1.3-0.6-1.8h0v7.8H481.7z"/>
	<path fill="#FFFFFF" d="M493.2,394v-9.6h1.1v9.6H493.2z"/>
	<path fill="#FFFFFF" d="M496.9,394v-9.6h2.5c1.6,0,2.8,0.4,3.6,1.2s1.2,2,1.2,3.6c0,1.6-0.4,2.8-1.3,3.6c-0.8,0.8-2,1.2-3.6,1.2
		H496.9z M498,392.9h1.5c1.2,0,2.1-0.3,2.7-0.9c0.6-0.6,0.9-1.6,0.9-2.9c0-1.3-0.3-2.2-0.9-2.8c-0.6-0.6-1.5-0.9-2.7-0.9H498V392.9z
		"/>
	<path fill="#FFFFFF" d="M507.6,394l-2.6-9.6h1.2l1.4,5.6c0.3,1,0.5,1.8,0.6,2.4h0c0.1-0.7,0.3-1.5,0.5-2.3l1.3-5.6h1.2l1.4,5.6
		c0.3,1.3,0.5,2,0.5,2.3h0c0.1-0.3,0.2-1.1,0.5-2.3l1.4-5.7h1.1l-2.5,9.6h-1.1l-1.9-8h0l-2,8H507.6z"/>
	<path fill="#FFFFFF" d="M517.9,394v-9.6h5.9v1.1H519v3h3.5v1H519v3.5h5v1H517.9z"/>
	<path fill="#FFFFFF" d="M528.8,394.2c-0.9,0-1.7-0.2-2.3-0.7c-0.6-0.5-1.1-1.1-1.3-1.8l1-0.4c0.5,1.3,1.4,1.9,2.7,1.9
		c0.7,0,1.2-0.1,1.6-0.4s0.6-0.7,0.6-1.2c0-0.5-0.2-0.9-0.5-1.1c-0.3-0.3-1-0.6-1.9-0.9c-1.1-0.3-2-0.7-2.5-1.1
		c-0.5-0.4-0.7-1-0.7-1.7c0-0.7,0.3-1.3,0.9-1.8s1.3-0.7,2.2-0.7c0.9,0,1.6,0.2,2.1,0.6c0.6,0.4,1,0.9,1.2,1.6l-0.9,0.5
		c-0.5-1.1-1.3-1.6-2.5-1.6c-0.6,0-1.1,0.1-1.4,0.4c-0.4,0.3-0.5,0.6-0.5,1c0,0.5,0.2,0.9,0.5,1.1c0.3,0.3,1,0.5,2,0.8
		c1.1,0.3,1.8,0.7,2.3,1.1s0.7,1,0.7,1.8c0,0.8-0.3,1.4-0.9,1.9S529.8,394.2,528.8,394.2z"/>
	<path fill="#FFFFFF" d="M535.9,394v-8.6h-3.1v-1.1h7.3v1.1H537v8.6H535.9z"/>
	<path fill="#FFFFFF" d="M543.9,394v-1h1.8v-7.4c-0.6,0.3-1.1,0.4-1.8,0.4v-1c0.8,0,1.4-0.2,1.8-0.6h1.1v8.6h1.6v1H543.9z"/>
	<path fill="#FFFFFF" d="M552.8,394.2c-1.1,0-1.9-0.2-2.6-0.7s-0.9-1.1-0.9-1.8c0-0.6,0.2-1.1,0.6-1.6c0.4-0.4,1-0.8,1.8-1.2
		c-0.7-0.3-1.2-0.7-1.5-1c-0.3-0.4-0.5-0.8-0.5-1.4c0-0.6,0.3-1.2,0.8-1.7c0.6-0.5,1.3-0.7,2.2-0.7c0.9,0,1.7,0.2,2.2,0.7
		c0.5,0.5,0.8,1,0.8,1.7c0,0.5-0.2,1-0.5,1.3c-0.3,0.4-0.8,0.7-1.5,1c0.9,0.4,1.5,0.8,1.9,1.2c0.4,0.4,0.6,0.9,0.6,1.6
		c0,0.7-0.3,1.3-0.9,1.8C554.8,393.9,553.9,394.2,552.8,394.2z M551.1,392.8c0.4,0.3,1,0.5,1.7,0.5s1.3-0.2,1.7-0.5
		c0.4-0.3,0.7-0.7,0.7-1.2c0-0.5-0.2-0.9-0.6-1.2c-0.4-0.3-1-0.7-1.9-1c-0.8,0.4-1.4,0.7-1.8,1.1c-0.4,0.3-0.5,0.7-0.5,1.2
		C550.4,392.1,550.7,392.5,551.1,392.8z M552.9,388.4c0.7-0.3,1.2-0.6,1.5-0.9s0.4-0.6,0.4-1c0-0.4-0.2-0.7-0.5-1
		c-0.3-0.3-0.8-0.4-1.4-0.4c-0.6,0-1.1,0.1-1.4,0.4c-0.3,0.3-0.5,0.6-0.5,1c0,0.4,0.1,0.8,0.4,1
		C551.6,387.8,552.1,388.1,552.9,388.4z"/>
	<path fill="#FFFFFF" d="M559.8,390.1c-0.7,0-1.3-0.3-1.7-0.8c-0.4-0.5-0.6-1.2-0.6-2.1c0-0.9,0.2-1.6,0.6-2.2
		c0.4-0.5,1-0.8,1.7-0.8c0.7,0,1.2,0.3,1.6,0.8c0.4,0.5,0.6,1.2,0.6,2.1c0,0.9-0.2,1.6-0.6,2.1C561,389.8,560.5,390.1,559.8,390.1z
		 M559.8,389.2c0.4,0,0.7-0.2,0.9-0.6c0.2-0.4,0.3-0.9,0.3-1.5c0-0.6-0.1-1.2-0.3-1.5c-0.2-0.4-0.5-0.6-0.9-0.6
		c-0.4,0-0.7,0.2-0.9,0.6c-0.2,0.4-0.3,0.9-0.3,1.5c0,0.6,0.1,1.2,0.3,1.5C559.1,389,559.4,389.2,559.8,389.2z M559.9,394l5.7-9.6h1
		l-5.7,9.6H559.9z M566.7,394.1c-0.7,0-1.3-0.3-1.6-0.8c-0.4-0.5-0.6-1.2-0.6-2.1c0-0.9,0.2-1.6,0.6-2.2c0.4-0.5,1-0.8,1.7-0.8
		c0.7,0,1.2,0.3,1.6,0.8c0.4,0.5,0.6,1.2,0.6,2.1c0,0.9-0.2,1.6-0.6,2.1C568,393.8,567.4,394.1,566.7,394.1z M566.7,393.3
		c0.4,0,0.7-0.2,0.9-0.6s0.3-0.9,0.3-1.5c0-0.6-0.1-1.2-0.3-1.5c-0.2-0.4-0.5-0.6-0.9-0.6c-0.4,0-0.7,0.2-0.9,0.6
		c-0.2,0.4-0.3,0.9-0.3,1.5c0,0.6,0.1,1.2,0.3,1.5C566,393.1,566.3,393.3,566.7,393.3z"/>
	<path fill="#FFFFFF" d="M470.7,409.6l-2.6-9.6h1.2l1.4,5.6c0.3,1,0.5,1.8,0.6,2.4h0c0.1-0.7,0.3-1.5,0.5-2.3l1.3-5.6h1.2l1.4,5.6
		c0.3,1.3,0.5,2,0.5,2.3h0c0.1-0.3,0.2-1.1,0.5-2.3l1.4-5.7h1.1l-2.5,9.6h-1.1l-1.9-8h0l-2,8H470.7z"/>
	<path fill="#FFFFFF" d="M482.5,409.7c-0.9,0-1.6-0.3-2.2-0.9s-0.9-1.5-0.9-2.6c0-0.6,0.1-1.1,0.3-1.6c0.2-0.5,0.4-0.8,0.7-1.1
		s0.6-0.5,1-0.6c0.4-0.1,0.7-0.2,1.1-0.2c0.9,0,1.5,0.3,2.1,0.9c0.5,0.6,0.8,1.5,0.8,2.7v0.2h-4.8c0,0.7,0.2,1.3,0.6,1.7
		s0.9,0.6,1.5,0.6c0.5,0,0.9-0.1,1.2-0.3s0.6-0.5,0.9-0.8l0.6,0.6C484.7,409.2,483.7,409.7,482.5,409.7z M480.6,405.6h3.8
		c0-0.6-0.2-1.1-0.5-1.5c-0.3-0.4-0.7-0.6-1.3-0.6c-0.5,0-0.9,0.2-1.3,0.5C480.9,404.4,480.7,404.9,480.6,405.6z"/>
	<path fill="#FFFFFF" d="M489.2,409.7c-0.6,0-1.1-0.1-1.6-0.3s-0.9-0.5-1.2-0.9l0.7-0.7c0.6,0.6,1.3,0.9,2.1,0.9
		c1.1,0,1.7-0.4,1.7-1.1c0-0.3-0.1-0.6-0.4-0.7c-0.3-0.2-0.7-0.3-1.4-0.5c-0.8-0.2-1.5-0.4-1.9-0.7s-0.6-0.7-0.6-1.3
		c0-0.5,0.2-1,0.7-1.3c0.4-0.4,1-0.5,1.7-0.5c1,0,1.9,0.3,2.6,1l-0.6,0.7c-0.6-0.5-1.3-0.8-2-0.8c-0.5,0-0.8,0.1-1,0.3
		s-0.3,0.4-0.3,0.7c0,0.3,0.1,0.5,0.4,0.7c0.3,0.2,0.7,0.3,1.2,0.4c0.5,0.1,0.8,0.2,1.1,0.3c0.3,0.1,0.5,0.2,0.8,0.4
		c0.3,0.2,0.4,0.4,0.6,0.6c0.1,0.2,0.2,0.5,0.2,0.9c0,0.6-0.3,1.1-0.8,1.5S490,409.7,489.2,409.7z"/>
	<path fill="#FFFFFF" d="M495.8,409.7c-0.7,0-1.2-0.1-1.5-0.4c-0.3-0.3-0.4-0.7-0.4-1.3v-4.3h-1.2v-0.9h1.2v-2.4h1.1v2.4h1.8v0.9
		H495v4c0,0.4,0.1,0.7,0.2,0.8c0.2,0.2,0.4,0.3,0.8,0.3c0.3,0,0.5,0,0.7-0.1v0.9C496.5,409.6,496.2,409.7,495.8,409.7z"/>
	<path fill="#FFFFFF" d="M501.5,409.6V400h1.2l5.1,7.6h0V400h1.1v9.6h-1l-5.2-7.8h0v7.8H501.5z"/>
	<path fill="#FFFFFF" d="M516.1,408.8c-0.6,0.6-1.4,0.9-2.3,0.9s-1.6-0.3-2.3-0.9c-0.6-0.6-0.9-1.5-0.9-2.6c0-1.1,0.3-2,0.9-2.6
		s1.4-0.9,2.3-0.9c0.9,0,1.6,0.3,2.3,0.9c0.6,0.6,0.9,1.5,0.9,2.6C517.1,407.3,516.8,408.1,516.1,408.8z M513.9,408.8
		c0.6,0,1.1-0.2,1.5-0.7c0.4-0.5,0.5-1.1,0.5-1.9c0-0.8-0.2-1.4-0.5-1.9c-0.4-0.5-0.9-0.7-1.5-0.7c-0.6,0-1.2,0.2-1.5,0.7
		c-0.4,0.5-0.5,1.1-0.5,1.9c0,0.8,0.2,1.4,0.5,1.9C512.7,408.5,513.2,408.8,513.9,408.8z"/>
	<path fill="#FFFFFF" d="M518.7,409.6v-6.9h1.1v1.3h0c0.6-0.9,1.5-1.4,2.7-1.4h0.1l-0.1,1c0,0-0.1,0-0.3,0c-1.1,0-1.9,0.5-2.4,1.5
		v4.4H518.7z"/>
	<path fill="#FFFFFF" d="M526.3,409.7c-0.7,0-1.2-0.1-1.5-0.4c-0.3-0.3-0.4-0.7-0.4-1.3v-4.3h-1.2v-0.9h1.2v-2.4h1.1v2.4h1.8v0.9
		h-1.8v4c0,0.4,0.1,0.7,0.2,0.8s0.4,0.3,0.8,0.3c0.3,0,0.5,0,0.7-0.1v0.9C527,409.6,526.7,409.7,526.3,409.7z"/>
	<path fill="#FFFFFF" d="M528.8,409.6V400h1.1v3.8c0.8-0.8,1.7-1.2,2.6-1.2c0.6,0,1.2,0.2,1.5,0.5c0.4,0.4,0.5,0.9,0.5,1.5v5h-1.1
		v-4.7c0-0.5-0.1-0.8-0.3-1c-0.2-0.2-0.5-0.3-1-0.3c-0.7,0-1.4,0.4-2.2,1.1v4.9H528.8z"/>
	<path fill="#FFFFFF" d="M543.3,409.8c-1.2,0-2.2-0.4-3-1.3s-1.1-2.1-1.1-3.7c0-1.5,0.4-2.7,1.1-3.6s1.7-1.4,3-1.4
		c1.9,0,3.1,1,3.6,3l-1.1,0.3c-0.2-0.8-0.5-1.3-0.9-1.7c-0.4-0.4-0.9-0.5-1.6-0.5c-0.9,0-1.6,0.4-2.1,1.1c-0.5,0.7-0.8,1.6-0.8,2.8
		c0,1.3,0.3,2.2,0.8,3c0.5,0.7,1.2,1.1,2.2,1.1c1.3,0,2.2-0.8,2.6-2.3l1.1,0.2c-0.2,1-0.7,1.7-1.3,2.3S544.2,409.8,543.3,409.8z"/>
	<path fill="#FFFFFF" d="M551.2,409.7c-0.9,0-1.6-0.3-2.2-0.9s-0.9-1.5-0.9-2.6c0-0.6,0.1-1.1,0.3-1.6c0.2-0.5,0.4-0.8,0.7-1.1
		c0.3-0.3,0.6-0.5,1-0.6s0.7-0.2,1.1-0.2c0.9,0,1.5,0.3,2.1,0.9c0.5,0.6,0.8,1.5,0.8,2.7v0.2h-4.8c0,0.7,0.2,1.3,0.6,1.7
		s0.9,0.6,1.5,0.6c0.5,0,0.9-0.1,1.2-0.3s0.6-0.5,0.9-0.8l0.6,0.6C553.3,409.2,552.4,409.7,551.2,409.7z M549.2,405.6h3.8
		c0-0.6-0.2-1.1-0.5-1.5c-0.3-0.4-0.7-0.6-1.3-0.6c-0.5,0-0.9,0.2-1.3,0.5S549.3,404.9,549.2,405.6z"/>
	<path fill="#FFFFFF" d="M555.7,409.6v-6.9h1.1v1c0.8-0.8,1.7-1.2,2.6-1.2c0.6,0,1.2,0.2,1.5,0.5c0.4,0.4,0.5,0.9,0.5,1.5v5h-1.1
		v-4.7c0-0.5-0.1-0.8-0.3-1c-0.2-0.2-0.5-0.3-1-0.3c-0.7,0-1.4,0.4-2.2,1.1v4.9H555.7z"/>
	<path fill="#FFFFFF" d="M565.7,409.7c-0.7,0-1.2-0.1-1.5-0.4c-0.3-0.3-0.4-0.7-0.4-1.3v-4.3h-1.2v-0.9h1.2v-2.4h1.1v2.4h1.8v0.9
		h-1.8v4c0,0.4,0.1,0.7,0.2,0.8s0.4,0.3,0.8,0.3c0.3,0,0.5,0,0.7-0.1v0.9C566.4,409.6,566.1,409.7,565.7,409.7z"/>
	<path fill="#FFFFFF" d="M568.2,409.6v-6.9h1.1v1.3h0c0.6-0.9,1.5-1.4,2.7-1.4h0.1l-0.1,1c0,0-0.1,0-0.3,0c-1.1,0-1.9,0.5-2.4,1.5
		v4.4H568.2z"/>
	<path fill="#FFFFFF" d="M574.7,409.7c-0.6,0-1.1-0.2-1.4-0.5c-0.3-0.3-0.5-0.7-0.5-1.3c0-0.7,0.4-1.3,1.1-1.8
		c0.7-0.5,1.9-0.8,3.5-1.1v-0.3c0-0.8-0.4-1.3-1.3-1.3c-0.9,0-1.7,0.3-2.5,1l-0.6-0.7c0.9-0.8,2-1.3,3.2-1.3c1.5,0,2.3,0.8,2.3,2.3
		v3c0,0.8,0.1,1.4,0.2,1.7h-1.1c-0.1-0.3-0.2-0.6-0.2-0.9C576.6,409.3,575.7,409.7,574.7,409.7z M575,408.8c0.9,0,1.6-0.3,2.3-1
		v-1.9c-1.3,0.2-2.2,0.5-2.7,0.8s-0.8,0.7-0.8,1.1c0,0.3,0.1,0.6,0.3,0.8C574.3,408.7,574.6,408.8,575,408.8z"/>
	<path fill="#FFFFFF" d="M580.4,409.6V400h1.1v9.6H580.4z"/>
	<path fill="#FFFFFF" d="M470.5,425.2v-9.6h5.9v1.1h-4.8v3h3.5v1h-3.5v3.5h5v1H470.5z"/>
	<path fill="#FFFFFF" d="M479.6,425.3c-0.6,0-1.1-0.2-1.4-0.5c-0.3-0.3-0.5-0.7-0.5-1.3c0-0.7,0.4-1.3,1.1-1.8
		c0.7-0.5,1.9-0.8,3.5-1.1v-0.3c0-0.8-0.4-1.3-1.3-1.3c-0.9,0-1.7,0.3-2.5,1l-0.6-0.7c0.9-0.8,2-1.3,3.2-1.3c1.5,0,2.3,0.8,2.3,2.3
		v3c0,0.8,0.1,1.4,0.2,1.7h-1.1c-0.1-0.3-0.2-0.6-0.2-0.9C481.5,424.9,480.6,425.3,479.6,425.3z M479.9,424.4c0.9,0,1.6-0.3,2.3-1
		v-1.9c-1.3,0.2-2.2,0.5-2.7,0.8c-0.5,0.3-0.8,0.7-0.8,1.1c0,0.3,0.1,0.6,0.3,0.8S479.5,424.4,479.9,424.4z"/>
	<path fill="#FFFFFF" d="M487.6,425.3c-0.6,0-1.1-0.1-1.6-0.3s-0.9-0.5-1.2-0.9l0.7-0.7c0.6,0.6,1.3,0.9,2.1,0.9
		c1.1,0,1.7-0.4,1.7-1.1c0-0.3-0.1-0.6-0.4-0.7c-0.3-0.2-0.7-0.3-1.4-0.5c-0.8-0.2-1.5-0.4-1.9-0.7s-0.6-0.7-0.6-1.3
		c0-0.5,0.2-1,0.7-1.3c0.4-0.4,1-0.5,1.7-0.5c1,0,1.9,0.3,2.6,1l-0.6,0.7c-0.6-0.5-1.3-0.8-2-0.8c-0.5,0-0.8,0.1-1,0.3
		s-0.3,0.4-0.3,0.7c0,0.3,0.1,0.5,0.4,0.7c0.3,0.2,0.7,0.3,1.2,0.4c0.5,0.1,0.8,0.2,1.1,0.3c0.3,0.1,0.5,0.2,0.8,0.4
		c0.3,0.2,0.4,0.4,0.6,0.6c0.1,0.2,0.2,0.5,0.2,0.9c0,0.6-0.3,1.1-0.8,1.5S488.4,425.3,487.6,425.3z"/>
	<path fill="#FFFFFF" d="M494.2,425.3c-0.7,0-1.2-0.1-1.5-0.4c-0.3-0.3-0.4-0.7-0.4-1.3v-4.3h-1.2v-0.9h1.2v-2.4h1.1v2.4h1.8v0.9
		h-1.8v4c0,0.4,0.1,0.7,0.2,0.8c0.2,0.2,0.4,0.3,0.8,0.3c0.3,0,0.5,0,0.7-0.1v0.9C494.9,425.2,494.6,425.3,494.2,425.3z"/>
	<path fill="#FFFFFF" d="M499.9,425.2v-9.6h1.2l5.1,7.6h0v-7.6h1.1v9.6h-1l-5.2-7.8h0v7.8H499.9z"/>
	<path fill="#FFFFFF" d="M514.5,424.4c-0.6,0.6-1.4,0.9-2.3,0.9s-1.6-0.3-2.3-0.9c-0.6-0.6-0.9-1.5-0.9-2.6c0-1.1,0.3-2,0.9-2.6
		s1.4-0.9,2.3-0.9c0.9,0,1.6,0.3,2.3,0.9c0.6,0.6,0.9,1.5,0.9,2.6C515.4,422.9,515.1,423.7,514.5,424.4z M512.3,424.4
		c0.6,0,1.1-0.2,1.5-0.7c0.4-0.5,0.5-1.1,0.5-1.9c0-0.8-0.2-1.4-0.5-1.9c-0.4-0.5-0.9-0.7-1.5-0.7c-0.6,0-1.2,0.2-1.5,0.7
		c-0.4,0.5-0.5,1.1-0.5,1.9c0,0.8,0.2,1.4,0.5,1.9C511.1,424.1,511.6,424.4,512.3,424.4z"/>
	<path fill="#FFFFFF" d="M517,425.2v-6.9h1.1v1.3h0c0.6-0.9,1.5-1.4,2.7-1.4h0.1l-0.1,1c0,0-0.1,0-0.3,0c-1.1,0-1.9,0.5-2.4,1.5v4.4
		H517z"/>
	<path fill="#FFFFFF" d="M524.6,425.3c-0.7,0-1.2-0.1-1.5-0.4c-0.3-0.3-0.4-0.7-0.4-1.3v-4.3h-1.2v-0.9h1.2v-2.4h1.1v2.4h1.8v0.9
		h-1.8v4c0,0.4,0.1,0.7,0.2,0.8s0.4,0.3,0.8,0.3c0.3,0,0.5,0,0.7-0.1v0.9C525.3,425.2,525,425.3,524.6,425.3z"/>
	<path fill="#FFFFFF" d="M527.1,425.2v-9.6h1.1v3.8c0.8-0.8,1.7-1.2,2.6-1.2c0.6,0,1.2,0.2,1.5,0.5c0.4,0.4,0.5,0.9,0.5,1.5v5h-1.1
		v-4.7c0-0.5-0.1-0.8-0.3-1c-0.2-0.2-0.5-0.3-1-0.3c-0.7,0-1.4,0.4-2.2,1.1v4.9H527.1z"/>
	<path fill="#FFFFFF" d="M541.6,425.4c-1.2,0-2.2-0.4-3-1.3s-1.1-2.1-1.1-3.7c0-1.5,0.4-2.7,1.1-3.6s1.7-1.4,3-1.4
		c1.9,0,3.1,1,3.6,3l-1.1,0.3c-0.2-0.8-0.5-1.3-0.9-1.7c-0.4-0.4-0.9-0.5-1.6-0.5c-0.9,0-1.6,0.4-2.1,1.1c-0.5,0.7-0.8,1.6-0.8,2.8
		c0,1.3,0.3,2.2,0.8,3c0.5,0.7,1.2,1.1,2.2,1.1c1.3,0,2.2-0.8,2.6-2.3l1.1,0.2c-0.2,1-0.7,1.7-1.3,2.3S542.6,425.4,541.6,425.4z"/>
	<path fill="#FFFFFF" d="M549.6,425.3c-0.9,0-1.6-0.3-2.2-0.9s-0.9-1.5-0.9-2.6c0-0.6,0.1-1.1,0.3-1.6c0.2-0.5,0.4-0.8,0.7-1.1
		c0.3-0.3,0.6-0.5,1-0.6c0.4-0.1,0.7-0.2,1.1-0.2c0.9,0,1.5,0.3,2.1,0.9c0.5,0.6,0.8,1.5,0.8,2.7v0.2h-4.8c0,0.7,0.2,1.3,0.6,1.7
		s0.9,0.6,1.5,0.6c0.5,0,0.9-0.1,1.2-0.3s0.6-0.5,0.9-0.8l0.7,0.6C551.7,424.8,550.8,425.3,549.6,425.3z M547.6,421.2h3.8
		c0-0.6-0.2-1.1-0.5-1.5c-0.3-0.4-0.7-0.6-1.3-0.6c-0.5,0-0.9,0.2-1.3,0.5C547.9,420,547.7,420.5,547.6,421.2z"/>
	<path fill="#FFFFFF" d="M554,425.2v-6.9h1.1v1c0.8-0.8,1.7-1.2,2.6-1.2c0.7,0,1.2,0.2,1.5,0.5c0.4,0.4,0.5,0.9,0.5,1.5v5h-1.1v-4.7
		c0-0.5-0.1-0.8-0.3-1c-0.2-0.2-0.5-0.3-1-0.3c-0.7,0-1.4,0.4-2.2,1.1v4.9H554z"/>
	<path fill="#FFFFFF" d="M564.1,425.3c-0.7,0-1.2-0.1-1.5-0.4c-0.3-0.3-0.4-0.7-0.4-1.3v-4.3H561v-0.9h1.2v-2.4h1.1v2.4h1.8v0.9
		h-1.8v4c0,0.4,0.1,0.7,0.2,0.8s0.4,0.3,0.8,0.3c0.3,0,0.5,0,0.7-0.1v0.9C564.8,425.2,564.5,425.3,564.1,425.3z"/>
	<path fill="#FFFFFF" d="M566.6,425.2v-6.9h1.1v1.3h0c0.6-0.9,1.5-1.4,2.7-1.4h0.1l-0.1,1c0,0-0.1,0-0.3,0c-1.1,0-1.9,0.5-2.4,1.5
		v4.4H566.6z"/>
	<path fill="#FFFFFF" d="M573,425.3c-0.6,0-1.1-0.2-1.4-0.5c-0.3-0.3-0.5-0.7-0.5-1.3c0-0.7,0.4-1.3,1.1-1.8
		c0.7-0.5,1.9-0.8,3.5-1.1v-0.3c0-0.8-0.4-1.3-1.3-1.3c-0.9,0-1.7,0.3-2.5,1l-0.6-0.7c0.9-0.8,2-1.3,3.2-1.3c1.5,0,2.3,0.8,2.3,2.3
		v3c0,0.8,0.1,1.4,0.2,1.7h-1.1c-0.1-0.3-0.2-0.6-0.2-0.9C574.9,424.9,574.1,425.3,573,425.3z M573.4,424.4c0.9,0,1.6-0.3,2.3-1
		v-1.9c-1.3,0.2-2.2,0.5-2.7,0.8s-0.8,0.7-0.8,1.1c0,0.3,0.1,0.6,0.3,0.8C572.7,424.3,573,424.4,573.4,424.4z"/>
	<path fill="#FFFFFF" d="M578.8,425.2v-9.6h1.1v9.6H578.8z"/>
</g>
</svg>
