<?xml version="1.0" encoding="utf-8"?>
<!-- Generator: Adobe Illustrator 18.0.0, SVG Export Plug-In . SVG Version: 6.00 Build 0)  -->
<!DOCTYPE svg PUBLIC "-//W3C//DTD SVG 1.1//EN" "http://www.w3.org/Graphics/SVG/1.1/DTD/svg11.dtd">
<svg version="1.1" xmlns="http://www.w3.org/2000/svg" xmlns:xlink="http://www.w3.org/1999/xlink" x="0px" y="0px"
	 viewBox="0 0 798.6 492.6" enable-background="new 0 0 798.6 492.6" xml:space="preserve">
<g id="Layer_1">
</g>
<g id="Layer_2">
	<g>
		<path fill="#C6A757" d="M541,377.4h60.7c12.6-9.3,20.8-24.3,20.8-41.2c0-28.2-22.9-51.1-51.2-51.1s-51.2,22.9-51.2,51.1
			C520.2,353.1,528.4,368.1,541,377.4"/>
		<text transform="matrix(1 0 0 1 538.294 320.0528)"><tspan x="0" y="0" fill="#FFFFFF" font-family="'BentonSansCond-Bold'" font-size="12.5492">S</tspan><tspan x="7.3" y="0" fill="#FFFFFF" font-family="'BentonSansCond-Bold'" font-size="12.5492">OUTH 25%</tspan></text>
		<text transform="matrix(1 0 0 1 528.7383 333.7432)"><tspan x="0" y="0" fill="#FFFFFF" font-family="'BentonSansCond-Book'" font-size="11.4084">W</tspan><tspan x="8.1" y="0" fill="#FFFFFF" font-family="'BentonSansCond-Book'" font-size="11.4084">e</tspan><tspan x="13.3" y="0" fill="#FFFFFF" font-family="'BentonSansCond-Book'" font-size="11.4084">s</tspan><tspan x="18.1" y="0" fill="#FFFFFF" font-family="'BentonSansCond-Book'" font-size="11.4084">t </tspan><tspan x="23.9" y="0" fill="#FFFFFF" font-family="'BentonSansCond-Book'" font-size="11.4084">S</tspan><tspan x="30" y="0" fill="#FFFFFF" font-family="'BentonSansCond-Book'" font-size="11.4084">outh </tspan><tspan x="52.6" y="0" fill="#FFFFFF" font-family="'BentonSansCond-Book'" font-size="11.4084">C</tspan><tspan x="59.2" y="0" fill="#FFFFFF" font-family="'BentonSansCond-Book'" font-size="11.4084">ent</tspan><tspan x="73.8" y="0" fill="#FFFFFF" font-family="'BentonSansCond-Book'" font-size="11.4084">r</tspan><tspan x="77.4" y="0" fill="#FFFFFF" font-family="'BentonSansCond-Book'" font-size="11.4084">al</tspan></text>
		<text transform="matrix(1 0 0 1 529.9249 347.4337)"><tspan x="0" y="0" fill="#FFFFFF" font-family="'BentonSansCond-Book'" font-size="11.4084">E</tspan><tspan x="5.6" y="0" fill="#FFFFFF" font-family="'BentonSansCond-Book'" font-size="11.4084">a</tspan><tspan x="11" y="0" fill="#FFFFFF" font-family="'BentonSansCond-Book'" font-size="11.4084">s</tspan><tspan x="15.7" y="0" fill="#FFFFFF" font-family="'BentonSansCond-Book'" font-size="11.4084">t </tspan><tspan x="21.5" y="0" fill="#FFFFFF" font-family="'BentonSansCond-Book'" font-size="11.4084">S</tspan><tspan x="27.6" y="0" fill="#FFFFFF" font-family="'BentonSansCond-Book'" font-size="11.4084">outh </tspan><tspan x="50.3" y="0" fill="#FFFFFF" font-family="'BentonSansCond-Book'" font-size="11.4084">C</tspan><tspan x="56.8" y="0" fill="#FFFFFF" font-family="'BentonSansCond-Book'" font-size="11.4084">ent</tspan><tspan x="71.4" y="0" fill="#FFFFFF" font-family="'BentonSansCond-Book'" font-size="11.4084">r</tspan><tspan x="75" y="0" fill="#FFFFFF" font-family="'BentonSansCond-Book'" font-size="11.4084">al</tspan></text>
		<text transform="matrix(1 0 0 1 539.9756 361.1231)"><tspan x="0" y="0" fill="#FFFFFF" font-family="'BentonSansCond-Book'" font-size="11.4084">S</tspan><tspan x="6.1" y="0" fill="#FFFFFF" font-family="'BentonSansCond-Book'" font-size="11.4084">outh</tspan><tspan x="26.5" y="0" fill="#FFFFFF" font-family="'BentonSansCond-Book'" font-size="11.4084"> </tspan><tspan x="28.4" y="0" fill="#FFFFFF" font-family="'BentonSansCond-Book'" font-size="11.4084">A</tspan><tspan x="34.5" y="0" fill="#FFFFFF" font-family="'BentonSansCond-Book'" font-size="11.4084">tlantic</tspan></text>
	</g>
</g>
</svg>
