<?xml version="1.0" encoding="utf-8"?>
<!-- Generator: Adobe Illustrator 18.0.0, SVG Export Plug-In . SVG Version: 6.00 Build 0)  -->
<!DOCTYPE svg PUBLIC "-//W3C//DTD SVG 1.1//EN" "http://www.w3.org/Graphics/SVG/1.1/DTD/svg11.dtd">
<svg version="1.1" id="Layer_1" xmlns="http://www.w3.org/2000/svg" xmlns:xlink="http://www.w3.org/1999/xlink" x="0px" y="0px"
	 viewBox="0 0 1280 800" enable-background="new 0 0 1280 800" xml:space="preserve">
<polygon fill="#545455" points="640.3,538.8 525.1,616.8 746.6,616.8 "/>
<path fill="#8B8B88" d="M965.2,742h11.2v2.1h-11.2V742z M965.2,747.1h11.2v2.1h-11.2V747.1z"/>
<path fill="#8B8B88" d="M984.5,750.4h2.9v-11.2c-0.7,0.4-2.1,0.7-2.9,0.7v-2.5c1.3,0,2.4-0.4,3.1-1h2.7v13.9h2.7v2.5h-8.4
	L984.5,750.4L984.5,750.4z"/>
<path fill="#8B8B88" d="M994.1,741.4c0-3.1,1.6-5.2,4.1-5.2c2.5,0,4.1,2.1,4.1,5.2s-1.5,5.2-4.1,5.2S994.1,744.5,994.1,741.4z
	 M1000,741.4c0-2.1-0.6-3.2-1.8-3.2s-1.8,1.2-1.8,3.2c0,2.1,0.6,3.2,1.8,3.2C999.4,744.6,1000,743.3,1000,741.4z M1008.2,736.4h2.4
	l-9.7,16.4h-2.4L1008.2,736.4z M1006.9,747.9c0-3.1,1.6-5.2,4.1-5.2c2.5,0,4.1,2.1,4.1,5.2s-1.5,5.2-4.1,5.2
	S1006.9,751,1006.9,747.9z M1012.8,747.9c0-2.1-0.6-3.2-1.8-3.2c-1.3,0-1.8,1.2-1.8,3.2c0,2.1,0.6,3.2,1.8,3.2
	C1012.2,751.1,1012.8,749.8,1012.8,747.9z"/>
<path fill="#8B8B88" d="M1022.8,744.6c0-5.5,3.2-8.6,7.4-8.6c4.1,0,7.4,2.9,7.4,8.6c0,5.5-3.2,8.6-7.4,8.6
	C1026.1,753,1022.8,750.1,1022.8,744.6z M1034.8,744.6c0-3.8-1.8-5.9-4.6-5.9s-4.6,2.1-4.6,5.9s1.8,6,4.6,6
	C1033,750.5,1034.8,748.5,1034.8,744.6z"/>
<path fill="#8B8B88" d="M1040.5,736.4h10.3v2.5h-7.5v4.4h5.5v2.5h-5.5v6.9h-2.8V736.4z"/>
<path fill="#8B8B88" d="M1058.1,746.8v-10.3h2.8v10.2c0,2.5,1,4,3.5,4s3.5-1.5,3.5-4v-10.2h2.7v10.3c0,3.7-2.1,6.2-6.3,6.2
	C1059.8,753,1058.1,750.5,1058.1,746.8z"/>
<path fill="#8B8B88" d="M1073.1,749.9h3.1v2.9h-3.1V749.9z"/>
<path fill="#8B8B88" d="M1078.3,748.9l2.2-1.2c1,1.9,2.5,2.8,4.6,2.8c1.9,0,3.4-0.6,3.4-2.1s-1-2.1-3.7-2.9
	c-3.1-0.9-5.8-1.8-5.8-4.9c0-2.8,2.2-4.6,5.6-4.6c3.2,0,5.2,1.6,6.2,3.5l-2.1,1.3c-1-1.6-2.4-2.4-4.1-2.4c-1.8,0-2.8,0.7-2.8,1.9
	c0,1.5,1.2,2.1,3.8,2.8c3.1,0.9,5.6,1.9,5.6,5c0,2.7-2.2,4.7-6.2,4.7C1081.7,753,1079.3,751.4,1078.3,748.9z"/>
<path fill="#8B8B88" d="M1093.3,749.9h3.1v2.9h-3.1V749.9z"/>
<path fill="#8B8B88" d="M1104.7,736.4h5.8c3.5,0,6.3,1.2,6.3,5c0,4-3.1,5.2-6.3,5.2h-2.9v6.2h-2.8V736.4z M1110.4,744.2
	c2.5,0,3.5-0.7,3.5-2.7c0-1.8-1-2.7-3.5-2.7h-2.9v5.2h2.9V744.2z"/>
<path fill="#8B8B88" d="M1118.5,744.6c0-5.5,3.2-8.6,7.4-8.6s7.4,2.9,7.4,8.6c0,5.5-3.2,8.6-7.4,8.6
	C1121.8,753,1118.5,750.1,1118.5,744.6z M1130.5,744.6c0-3.8-1.8-5.9-4.6-5.9c-2.8,0-4.6,2.1-4.6,5.9s1.8,6,4.6,6
	C1128.7,750.5,1130.5,748.5,1130.5,744.6z"/>
<path fill="#8B8B88" d="M1136.2,736.4h5.8c3.5,0,6.3,1.2,6.3,5c0,4-3.1,5.2-6.3,5.2h-2.9v6.2h-2.8V736.4z M1142,744.2
	c2.5,0,3.5-0.7,3.5-2.7c0-1.8-1-2.7-3.5-2.7h-2.9v5.2h2.9V744.2z"/>
<path fill="#8B8B88" d="M1150.2,746.8v-10.3h2.8v10.2c0,2.5,1,4,3.5,4s3.5-1.5,3.5-4v-10.2h2.7v10.3c0,3.7-2.1,6.2-6.3,6.2
	C1152.1,753,1150.2,750.5,1150.2,746.8z"/>
<path fill="#8B8B88" d="M1166.5,736.4h2.8v13.9h7.5v2.5h-10.3V736.4z"/>
<path fill="#8B8B88" d="M1183.7,736.4h2.7l5.8,16.4h-2.8l-1.3-3.8h-6.2l-1.3,3.8h-2.7L1183.7,736.4z M1187.2,746.4l-2.2-6.6l0,0
	l-2.2,6.6H1187.2z"/>
<path fill="#8B8B88" d="M1196.4,739h-5v-2.5h12.8v2.5h-5v13.9h-2.8V739L1196.4,739z"/>
<path fill="#8B8B88" d="M1206.9,736.4h2.8v16.4h-2.8V736.4z"/>
<path fill="#8B8B88" d="M1212.8,744.6c0-5.5,3.2-8.6,7.4-8.6s7.4,2.9,7.4,8.6c0,5.5-3.2,8.6-7.4,8.6
	C1216,753,1212.8,750.1,1212.8,744.6z M1224.7,744.6c0-3.8-1.8-5.9-4.6-5.9c-2.8,0-4.6,2.1-4.6,5.9s1.8,6,4.6,6
	C1222.9,750.5,1224.7,748.5,1224.7,744.6z"/>
<path fill="#8B8B88" d="M1230.5,736.4h2.8l7.7,11.6l0,0v-11.6h2.5v16.4h-2.5l-8-11.9l0,0v11.9h-2.5V736.4z"/>
<path fill="#8B8B88" d="M949.7,722.5c0,2.2-1.8,4.1-4,4.1s-4.1-1.8-4.1-4s1.8-4.1,4-4.1C947.9,718.4,949.7,720.1,949.7,722.5"/>
<path fill="#8B8B88" d="M945.7,727.7h-5c0,0-3.2,0.3-4,4c-0.7,3.7-0.1,14.3-0.1,14.3s1.8,2.5,3.2-0.1l-0.1-12.1h0.9l0.3,31.1
	c0,0,0.7,3.2,2.7,2.7s1.8,0.3,1.9-2.7c0.1-3.1,0-17.3,0-17.3L945.7,727.7z"/>
<path fill="#8B8B88" d="M945.4,727.7h5c0,0,3.2,0.3,4.1,3.8c0.9,3.7,0.4,14.3,0.4,14.3s-1.8,2.5-3.2,0l-0.1-12.1h-0.9l0.3,31.1
	c0,0-0.6,3.2-2.7,2.7c-1.9-0.4-1.8,0.3-2.1-2.7c-0.1-2.9-0.3-17.3-0.3-17.3L945.4,727.7z"/>
<rect x="942.6" y="730.6" transform="matrix(-0.9999 1.055951e-02 -1.055951e-02 -0.9999 1899.4987 1467.5116)" fill="#8B8B88" width="6.6" height="16.4"/>
<path fill="#8B8B88" d="M1016.9,692.6h11.2v2.1h-11.2V692.6z M1016.9,697.7h11.2v2.1h-11.2V697.7z"/>
<path fill="#8B8B88" d="M1036.1,701h2.9v-11.1c-0.7,0.4-2.1,0.7-2.9,0.7v-2.5c1.3,0,2.4-0.4,3.1-1h2.7V701h2.7v2.5h-8.4L1036.1,701
	L1036.1,701z"/>
<path fill="#8B8B88" d="M1045.8,692c0-3.1,1.6-5.2,4.1-5.2s4.1,2.1,4.1,5.2c0,3.1-1.5,5.2-4.1,5.2
	C1047.3,697.1,1045.8,695.1,1045.8,692z M1051.7,692c0-2.1-0.6-3.2-1.8-3.2s-1.8,1.2-1.8,3.2s0.6,3.2,1.8,3.2
	S1051.7,693.9,1051.7,692z M1060,687h2.4l-9.7,16.4h-2.4L1060,687z M1058.5,698.5c0-3.1,1.6-5.2,4.1-5.2c2.5,0,4.1,2.1,4.1,5.2
	c0,3.1-1.5,5.2-4.1,5.2C1060.1,703.6,1058.5,701.6,1058.5,698.5z M1064.6,698.5c0-2.1-0.6-3.2-1.8-3.2c-1.3,0-1.8,1.2-1.8,3.2
	s0.6,3.2,1.8,3.2S1064.6,700.4,1064.6,698.5z"/>
<path fill="#8B8B88" d="M1074.6,695.2c0-5.5,3.2-8.6,7.4-8.6s7.4,2.9,7.4,8.6c0,5.5-3.2,8.6-7.4,8.6
	C1077.8,703.6,1074.6,700.7,1074.6,695.2z M1086.5,695.2c0-3.8-1.8-5.9-4.6-5.9c-2.8,0-4.6,2.1-4.6,5.9s1.8,6,4.6,6
	S1086.5,699.1,1086.5,695.2z"/>
<path fill="#8B8B88" d="M1092.3,687h10.3v2.5h-7.5v4.4h5.5v2.5h-5.5v6.9h-2.8V687z"/>
<path fill="#8B8B88" d="M1109.7,697.4v-10.3h2.8v10.2c0,2.5,1,4,3.5,4s3.5-1.5,3.5-4v-10.2h2.7v10.3c0,3.7-2.1,6.2-6.3,6.2
	C1111.6,703.6,1109.7,701.1,1109.7,697.4z"/>
<path fill="#8B8B88" d="M1124.9,700.5h3.1v2.9h-3.1V700.5z"/>
<path fill="#8B8B88" d="M1130,699.5l2.2-1.2c1,1.9,2.5,2.8,4.6,2.8c1.9,0,3.4-0.6,3.4-2.1c0-1.5-1-2.1-3.7-2.9
	c-3.1-0.9-5.8-1.8-5.8-4.9c0-2.8,2.2-4.6,5.6-4.6c3.2,0,5.2,1.6,6.2,3.5l-2.1,1.3c-1-1.6-2.4-2.4-4.1-2.4c-1.8,0-2.8,0.7-2.8,1.9
	c0,1.5,1.2,2.1,3.8,2.8c3.1,0.9,5.6,1.9,5.6,5c0,2.7-2.2,4.7-6.2,4.7C1133.4,703.6,1131.1,702,1130,699.5z"/>
<path fill="#8B8B88" d="M1145.1,700.5h3.1v2.9h-3.1V700.5z"/>
<path fill="#8B8B88" d="M1154.5,687h2.8l2.1,8.4c0.3,1.3,0.6,2.5,0.9,3.8l0,0c0.3-1.3,0.4-2.5,0.9-3.8l1.9-8.6h2.7l2.1,8.6
	c0.3,1.3,0.6,2.4,0.9,3.7l0,0c0.3-1.5,0.4-2.2,0.7-3.7l2.1-8.6h2.7l-4.3,16.4h-2.4l-2.9-12.5l0,0l-3.1,12.5h-2.5L1154.5,687z"/>
<path fill="#8B8B88" d="M1176.6,687h10.6v2.5h-7.8v4.1h5.8v2.5h-5.8v4.7h8.3v2.5h-11.1V687z"/>
<path fill="#8B8B88" d="M1194.9,687h2.7l5.8,16.4h-2.8l-1.3-3.8h-6.2l-1.3,3.8h-2.7L1194.9,687z M1198.5,697l-2.2-6.6l0,0l-2.2,6.6
	H1198.5z"/>
<path fill="#8B8B88" d="M1205.8,687h2.8v13.9h7.5v2.5h-10.3V687z"/>
<path fill="#8B8B88" d="M1220.4,689.6h-5v-2.5h12.8v2.5h-5v13.9h-2.8L1220.4,689.6L1220.4,689.6z"/>
<path fill="#8B8B88" d="M1230.6,687h2.8v6.5h7.4V687h2.8v16.4h-2.8v-7.2h-7.4v7.2h-2.8V687z"/>
<polygon fill="#8B8B88" points="948.9,703.2 1007.2,703 999.5,689.3 956,689.5 "/>
</svg>
