<?xml version="1.0" encoding="utf-8"?>
<!-- Generator: Adobe Illustrator 18.0.0, SVG Export Plug-In . SVG Version: 6.00 Build 0)  -->
<!DOCTYPE svg PUBLIC "-//W3C//DTD SVG 1.1//EN" "http://www.w3.org/Graphics/SVG/1.1/DTD/svg11.dtd">
<svg version="1.1" id="Layer_1" xmlns="http://www.w3.org/2000/svg" xmlns:xlink="http://www.w3.org/1999/xlink" x="0px" y="0px"
	 viewBox="0 0 1280 800" enable-background="new 0 0 1280 800" xml:space="preserve">
<line fill="none" stroke="#545455" stroke-width="3" stroke-miterlimit="10" x1="41.3" y1="539.5" x2="1230.2" y2="538.8"/>
<g>
	<path fill="#C4A65C" d="M1043.2,326.6c0,2.2-1.8,4.1-4.1,4.1c-2.2,0-4.1-1.8-4.1-4.1c0-2.2,1.8-4.1,4.1-4.1
		C1041.3,322.4,1043.2,324.2,1043.2,326.6"/>
	<path fill="#C4A65C" d="M1065.7,326.6c0,2.2-1.8,4.1-4.1,4.1c-2.2,0-4.1-1.8-4.1-4.1c0-2.2,1.8-4.1,4.1-4.1
		C1063.8,322.4,1065.7,324.4,1065.7,326.6"/>
	<path fill="#C4A65C" d="M1088.3,326.6c0,2.2-1.8,4.1-4.1,4.1c-2.2,0-4.1-1.8-4.1-4.1c0-2.2,1.8-4.1,4.1-4.1
		C1086.4,322.4,1088.3,324.4,1088.3,326.6"/>
	<path fill="#C4A65C" d="M1110.3,326.6c0,2.2-1.8,4.1-4.1,4.1c-2.2,0-4.1-1.8-4.1-4.1c0-2.2,1.8-4.1,4.1-4.1
		C1108.5,322.6,1110.3,324.4,1110.3,326.6"/>
	<path fill="#C4A65C" d="M1133.3,326.7c0,2.2-1.8,4.1-4.1,4.1c-2.2,0-4.1-1.8-4.1-4.1c0-2.2,1.8-4.1,4.1-4.1
		S1133.4,324.4,1133.3,326.7"/>
	<path fill="#C4A65C" d="M1155.1,326.7c0,2.2-1.8,4.1-4.1,4.1c-2.2,0-4.1-1.8-4.1-4.1c0-2.2,1.8-4.1,4.1-4.1
		S1155.1,324.4,1155.1,326.7"/>
	<path fill="#C4A65C" d="M1177.2,326.7c0,2.2-1.8,4.1-4.1,4.1c-2.2,0-4.1-1.8-4.1-4.1c0-2.2,1.8-4.1,4.1-4.1
		C1175.3,322.6,1177.2,324.5,1177.2,326.7"/>
	<path fill="#C4A65C" d="M1199.8,326.7c0,2.2-1.8,4.1-4.1,4.1c-2.2,0-4.1-1.8-4.1-4.1c0-2.2,1.8-4.1,4.1-4.1
		C1197.9,322.6,1199.8,324.5,1199.8,326.7"/>
	<path fill="#C4A65C" d="M1222.3,326.7c0,2.2-1.8,4.1-4.1,4.1c-2.2,0-4.1-1.8-4.1-4.1c0-2.2,1.8-4.1,4.1-4.1
		C1220.4,322.7,1222.3,324.5,1222.3,326.7"/>
	
		<rect x="1215.1" y="335" transform="matrix(-1 -1.421602e-03 1.421602e-03 -1 2436.3796 688.0366)" fill="#C4A65C" width="6.6" height="16.4"/>
	<path fill="#C4A65C" d="M797.5,484.2c0,2.2-1.8,4.1-4.1,4.1c-2.2,0-4.1-1.8-4.1-4.1c0-2.2,1.8-4.1,4.1-4.1
		C795.7,480.1,797.5,482,797.5,484.2"/>
	<path fill="#C4A65C" d="M819.6,484.2c0,2.2-1.8,4.1-4.1,4.1c-2.2,0-4.1-1.8-4.1-4.1c0-2.2,1.8-4.1,4.1-4.1
		C817.7,480.1,819.6,482,819.6,484.2"/>
	<path fill="#C4A65C" d="M842.2,484.2c0,2.2-1.8,4.1-4.1,4.1c-2.2,0-4.1-1.8-4.1-4.1c0-2.2,1.8-4.1,4.1-4.1
		C840.3,480.2,842.2,482,842.2,484.2"/>
	<path fill="#C4A65C" d="M864.7,484.4c0,2.2-1.8,4.1-4.1,4.1c-2.2,0-4.1-1.8-4.1-4.1c0-2.2,1.8-4.1,4.1-4.1
		C862.8,480.2,864.7,482,864.7,484.4"/>
	
		<rect x="857.5" y="492.5" transform="matrix(-1 -1.424940e-03 1.424940e-03 -1 1720.9465 1002.5175)" fill="#C4A65C" width="6.6" height="16.4"/>
	
		<rect x="879.5" y="492.5" transform="matrix(-1 -1.424940e-03 1.424940e-03 -1 1764.8912 1002.5486)" fill="#C4A65C" width="6.6" height="16.4"/>
	
		<rect x="902.5" y="492.5" transform="matrix(-1 -1.424940e-03 1.424940e-03 -1 1810.9006 1002.5812)" fill="#C4A65C" width="6.6" height="16.4"/>
	
		<rect x="924.3" y="492.5" transform="matrix(-1 -1.424940e-03 1.424940e-03 -1 1854.5503 1002.6125)" fill="#C4A65C" width="6.6" height="16.4"/>
	
		<rect x="946.4" y="492.6" transform="matrix(-1 -1.424940e-03 1.424940e-03 -1 1898.7897 1002.9391)" fill="#C4A65C" width="6.6" height="16.4"/>
	<circle fill="#C4A65C" cx="1016.9" cy="433.3" r="4.1"/>
	<path fill="#C4A65C" d="M1011.6,444.2v31.3c0,0,0.6,3.2,2.7,2.8c1.9-0.6,1.8,0.4,1.9-2.7c0.1-2.9,0.1-17.4,0.1-17.4v-0.7h0.9v0.7
		c0,0,0,14.3,0.1,17.4c0.1,3.1,0,2.2,1.9,2.8c1.9,0.6,2.7-2.8,2.7-2.8v-31.3h0.9v12.2c1.5,2.5,3.2,0.1,3.2,0.1s0.4-10.6-0.3-14.3
		s-3.7-4-3.7-4h-4.4l0,0h-5.3c0,0-3.4,0.3-4.3,4c-0.7,3.7-0.4,14.3-0.4,14.3s1.8,2.4,3.2-0.3v-12.2H1011.6z"/>
	<circle fill="#C4A65C" cx="1038.9" cy="433.3" r="4.1"/>
	<path fill="#C4A65C" d="M1033.6,444.2v31.3c0,0,0.6,3.2,2.7,2.8c1.9-0.6,1.8,0.4,1.9-2.7c0.1-2.9,0.1-17.4,0.1-17.4v-0.7h0.9v0.7
		c0,0,0,14.3,0.1,17.4c0.1,3.1,0,2.2,1.9,2.8c1.9,0.6,2.7-2.8,2.7-2.8v-31.3h0.9v12.2c1.5,2.5,3.2,0.1,3.2,0.1s0.4-10.6-0.3-14.3
		s-3.7-4-3.7-4h-4.4l0,0h-5.3c0,0-3.5,0.3-4.3,4c-0.7,3.7-0.4,14.3-0.4,14.3s1.8,2.4,3.2-0.3v-12.2H1033.6z"/>
	<circle fill="#C4A65C" cx="1061.5" cy="433.5" r="4.1"/>
	<path fill="#C4A65C" d="M1056.1,444.2v31.4c0,0,0.6,3.2,2.7,2.8c1.9-0.6,1.8,0.4,1.9-2.7c0.1-2.9,0.1-17.4,0.1-17.4v-0.7h0.9v0.7
		c0,0,0,14.3,0.1,17.4c0.1,3.1,0,2.2,1.9,2.8c1.9,0.6,2.7-2.8,2.7-2.8v-31.3h0.9v12.4c1.5,2.5,3.2,0.1,3.2,0.1s0.4-10.6-0.3-14.3
		c-0.7-3.7-4-4-4-4h-4.7l0,0h-5.2c0,0-3.4,0.3-4.1,4c-0.7,3.7-0.4,14.3-0.4,14.3s1.8,2.2,3.2-0.3v-12.2h1V444.2z"/>
	<circle fill="#C4A65C" cx="1084" cy="433.5" r="4.1"/>
	<path fill="#C4A65C" d="M1078.7,444.2v31.4c0,0,0.6,3.2,2.7,2.8c1.9-0.6,1.8,0.4,1.9-2.7c0.1-2.9,0.1-17.4,0.1-17.4v-0.7h0.9v0.9
		c0,0,0,14.3,0.1,17.4c0.1,3.1,0,2.2,1.9,2.8c1.9,0.6,2.7-2.8,2.7-2.8v-31.3h0.9v12.4c1.5,2.5,3.2,0.1,3.2,0.1s0.4-10.6-0.3-14.3
		s-4.1-4-4.1-4l-4.9-0.1l0,0h-5c0,0-3.2,0.4-4.1,4.1c-0.7,3.7-0.4,14.5-0.4,14.5s1.8,2.4,3.2-0.3v-12.2h1.2V444.2z"/>
	<circle fill="#C4A65C" cx="1106" cy="433.5" r="4.1"/>
	<path fill="#C4A65C" d="M1100.8,444.2v31.4c0,0,0.6,3.4,2.7,2.8c1.9-0.6,1.8,0.4,1.9-2.7c0.1-2.9,0.1-17.4,0.1-17.4v-0.7h0.9v0.9
		c0,0,0,14.3,0.1,17.4c0.1,3.1,0,2.2,1.9,2.8c1.9,0.6,2.7-2.9,2.7-2.9v-31.4h0.9v12.4c1.5,2.5,3.2,0.1,3.2,0.1s0.4-10.6-0.3-14.3
		c-0.7-3.7-4.1-4.1-4.1-4.1l-4.9-0.1l0,0h-5c0,0-3.2,0.4-4.1,4.1c-0.7,3.7-0.4,14.5-0.4,14.5s1.8,2.4,3.2-0.3v-12.2h1.2V444.2z"/>
	<circle fill="#C4A65C" cx="1129.1" cy="433.5" r="4.1"/>
	<path fill="#C4A65C" d="M1123.8,444.2v31.4c0,0,0.6,3.4,2.7,2.8c1.9-0.6,1.8,0.4,1.9-2.7c0.1-2.9,0.1-17.5,0.1-17.5v-0.9h0.9v0.9
		c0,0,0,14.3,0.1,17.4c0.1,3.1,0,2.2,1.9,2.8c1.9,0.6,2.7-2.9,2.7-2.9v-31.4h0.9v12.4c1.5,2.5,3.2,0.3,3.2,0.3s0.4-10.6-0.3-14.3
		s-3.7-4-3.7-4h-4.7l0,0h-5.2c0,0-3.4,0.3-4.3,4c-0.7,3.7-0.4,14.3-0.4,14.3s1.8,2.2,3.2-0.3v-12.4h0.9V444.2z"/>
	<circle fill="#C4A65C" cx="1151" cy="433.5" r="4.1"/>
	<path fill="#C4A65C" d="M1160.1,456.9c0,0,0.4-10.6-0.3-14.3c-0.7-3.7-4.1-4-4.1-4h-4.9l0,0h-5c0,0-3.2,0.3-4.1,4
		c-0.7,3.7-0.4,14.3-0.4,14.3s1.8,2.2,3.2-0.3v-12.4h0.9v31.4c0,0,0.6,3.4,2.7,2.8c1.9-0.6,1.8,0.4,1.9-2.7
		c0.1-2.9,0.1-17.5,0.1-17.5v-0.9h0.9v0.9c0,0,0,14.3,0.1,17.4c0.1,3.1,0,2.2,1.9,2.8c1.9,0.6,2.7-2.9,2.7-2.9v-31.4h0.9v12.4
		C1158.3,459.1,1160.1,456.9,1160.1,456.9z"/>
	<circle fill="#C4A65C" cx="1172.9" cy="433.6" r="4.1"/>
	<path fill="#C4A65C" d="M1167.6,444.2v31.4c0,0,0.6,3.4,2.7,2.8c1.9-0.6,1.8,0.4,1.9-2.7c0.1-2.9,0.1-17.5,0.1-17.5v-0.9h0.9v0.9
		c0,0,0,14.3,0.1,17.4c0.1,3.1,0,2.2,1.9,2.8c1.9,0.6,2.7-2.9,2.7-2.9v-31.4h0.9v12.4c1.5,2.5,3.2,0.3,3.2,0.3s0.4-10.6-0.3-14.3
		s-4.1-4.1-4.1-4.1l-4.9-0.1l0,0h-4.9c0,0-3.2,0.4-4.1,4.1c-0.7,3.7-0.4,14.5-0.4,14.5s1.8,2.2,3.2-0.3v-12.4h1V444.2z"/>
	<circle fill="#C4A65C" cx="1195.5" cy="433.6" r="4.1"/>
	<path fill="#C4A65C" d="M1190.2,444.2v31.4c0,0,0.6,3.4,2.7,2.8c1.9-0.6,1.8,0.4,1.9-2.7c0.1-2.9,0.1-17.5,0.1-17.5v-0.9h0.9v0.9
		c0,0,0,14.5,0.1,17.4c0.1,3.1,0,2.2,1.9,2.8c1.9,0.6,2.7-2.9,2.7-2.9v-31.4h0.9v12.4c1.5,2.5,3.2,0.3,3.2,0.3s0.4-10.6-0.3-14.3
		c-0.7-3.7-4.1-4-4.1-4h-4.9l0,0h-5c0,0-3.2,0.3-4.1,4c-0.7,3.7-0.4,14.3-0.4,14.3s1.8,2.2,3.2-0.4v-12.4h1.2V444.2z"/>
	<circle fill="#C4A65C" cx="1218.1" cy="433.6" r="4.1"/>
	<path fill="#C4A65C" d="M1212.8,444.2v31.4c0,0,0.6,3.4,2.7,2.8c1.9-0.6,1.8,0.4,1.9-2.7c0.1-2.9,0.1-17.5,0.1-17.5v-0.9h0.9v0.9
		c0,0,0,14.5,0.1,17.4c0.1,3.1,0,2.2,1.9,2.8c1.9,0.6,2.7-2.9,2.7-2.9v-31.4h0.9v12.4c1.5,2.5,3.2,0.3,3.2,0.3s0.4-10.6-0.3-14.3
		c-0.7-3.7-4.1-4-4.1-4h-4.9l0,0h-5c0,0-3.2,0.3-4.1,4c-0.7,3.7-0.4,14.3-0.4,14.3s1.8,2.2,3.2-0.4v-12.4h1.2V444.2z"/>
	<circle fill="#C4A65C" cx="1016.9" cy="379.5" r="4.1"/>
	<path fill="#C4A65C" d="M1026.1,402.9c0,0,0.4-10.6-0.3-14.3c-0.7-3.7-4.1-4-4.1-4h-4.9l0,0h-5c0,0-3.2,0.3-4.1,4
		c-0.7,3.7-0.4,14.3-0.4,14.3s1.8,2.7,3.2,0.1v-11.9h0.9v31c0,0,0.6,3.1,2.7,2.7c1.9-0.6,1.8,0.3,1.9-2.8c0.1-2.9,0.1-17.1,0.1-17.1
		v-0.4h0.9v0.4c0,0,0,14.2,0.1,17.1c0.1,3.1,0,2.1,1.9,2.7c1.9,0.6,2.7-2.5,2.7-2.5v-31h0.9v11.9
		C1024.3,405.6,1026.1,402.9,1026.1,402.9z"/>
	<circle fill="#C4A65C" cx="1039" cy="379.5" r="4.1"/>
	<path fill="#C4A65C" d="M1048.2,402.9c0,0,0.4-10.6-0.3-14.3c-0.7-3.7-4.1-4-4.1-4h-4.9l0,0h-5c0,0-3.2,0.3-4.1,4
		c-0.7,3.7-0.4,14.3-0.4,14.3s1.8,2.7,3.2,0.1v-11.9h0.9v31c0,0,0.6,3.1,2.7,2.7c1.9-0.6,1.8,0.3,1.9-2.8c0.1-2.9,0.1-17.1,0.1-17.1
		v-0.4h0.9v0.4c0,0,0,14.2,0.1,17.1c0.1,3.1,0,2.1,1.9,2.7s2.7-2.5,2.7-2.5v-31h0.9v11.9C1046.4,405.6,1048.2,402.9,1048.2,402.9z"
		/>
	<circle fill="#C4A65C" cx="1061.6" cy="379.6" r="4.1"/>
	<path fill="#C4A65C" d="M1070.7,403.1c0,0,0.4-10.6-0.3-14.3c-0.7-3.7-4.1-4-4.1-4h-4.9l0,0h-5c0,0-3.2,0.3-4.1,4
		c-0.7,3.7-0.4,14.3-0.4,14.3s1.8,2.7,3.2,0.1v-11.9h0.9v31c0,0,0.6,3.1,2.7,2.7c1.9-0.6,1.8,0.3,1.9-2.8c0.1-2.9,0.1-17.1,0.1-17.1
		v-0.4h0.9v0.4c0,0,0,14.2,0.1,17.1c0.1,3.1,0,2.1,1.9,2.7c1.9,0.6,2.7-2.5,2.7-2.5v-31h0.9v11.9
		C1069,405.6,1070.7,403.1,1070.7,403.1z"/>
	<circle fill="#C4A65C" cx="1084" cy="379.6" r="4.1"/>
	<path fill="#C4A65C" d="M1093.3,403.1c0,0,0.4-10.6-0.3-14.3c-0.7-3.7-4.1-4-4.1-4h-4.9l0,0h-5c0,0-3.2,0.3-4.1,4
		c-0.7,3.7-0.4,14.3-0.4,14.3s1.8,2.7,3.2,0v-11.9h0.9v31c0,0,0.6,3.1,2.7,2.7c1.9-0.6,1.8,0.3,1.9-2.7s0.1-17.1,0.1-17.1v-0.4h0.9
		v0.4c0,0,0,14.2,0.1,17.3c0.1,3.1,0,2.1,1.9,2.7s2.7-2.5,2.7-2.5v-31h0.9v11.9C1091.5,405.8,1093.3,403.1,1093.3,403.1z"/>
	<circle fill="#C4A65C" cx="1106.1" cy="379.6" r="4.1"/>
	<path fill="#C4A65C" d="M1115.3,403.1c0,0,0.4-10.6-0.3-14.3c-0.7-3.7-4.1-4-4.1-4h-4.9l0,0h-5c0,0-3.2,0.3-4.1,4
		c-0.7,3.7-0.4,14.3-0.4,14.3s1.8,2.7,3.2,0v-11.9h0.9v31c0,0,0.6,3.1,2.7,2.7c1.9-0.6,1.8,0.3,1.9-2.7s0.1-17.1,0.1-17.1v-0.4h0.9
		v0.4c0,0,0,14.2,0.1,17.3c0.1,3.1,0,2.1,1.9,2.7s2.7-2.5,2.7-2.5v-31h0.9v11.9C1113.5,405.8,1115.3,403.1,1115.3,403.1z"/>
	<circle fill="#C4A65C" cx="1129.1" cy="379.6" r="4.1"/>
	<path fill="#C4A65C" d="M1138.4,403.1c0,0,0.4-10.6-0.3-14.3c-0.7-3.7-4.1-4-4.1-4h-4.9l0,0h-5c0,0-3.2,0.3-4.1,4
		c-0.7,3.7-0.4,14.3-0.4,14.3s1.8,2.7,3.2,0v-11.9h0.9v31c0,0,0.6,3.1,2.7,2.7c1.9-0.6,1.8,0.3,1.9-2.7s0.1-17.1,0.1-17.1v-0.4h0.9
		v0.4c0,0,0,14.2,0.1,17.3c0.1,3.1,0,2.1,1.9,2.7s2.7-2.5,2.7-2.5v-31h0.9v11.9C1136.7,405.8,1138.4,403.1,1138.4,403.1z"/>
	<circle fill="#C4A65C" cx="1151" cy="379.6" r="4.1"/>
	<path fill="#C4A65C" d="M1145.7,422.1c0,0,0.6,3.1,2.7,2.7c1.9-0.6,1.8,0.3,1.9-2.7s0.1-17.1,0.1-17.1v-0.4h0.9v0.4
		c0,0,0,14.2,0.1,17.3c0.1,3.1,0,2.2,1.9,2.7c1.9,0.6,2.7-2.7,2.7-2.7v-31.1h0.9v11.9c1.5,2.5,3.2,0,3.2,0s0.4-10.6-0.3-14.3
		c-0.7-3.7-4.1-4-4.1-4h-4.9l0,0h-5c0,0-3.2,0.3-4.1,4c-0.7,3.7-0.4,14.3-0.4,14.3s1.8,2.7,3.2,0v-11.9h0.9L1145.7,422.1z"/>
	<circle fill="#C4A65C" cx="1173.1" cy="379.8" r="4.1"/>
	<path fill="#C4A65C" d="M1182.2,403.2c0,0,0.4-10.6-0.3-14.3s-4.1-4-4.1-4h-4.9l0,0h-5c0,0-3.2,0.3-4.1,4
		c-0.7,3.7-0.4,14.3-0.4,14.3s1.8,2.5,3.2,0v-12.1h0.9v31.1c0,0,0.6,3.1,2.7,2.7c1.9-0.6,1.8,0.3,1.9-2.7c0.1-2.9,0.1-17.3,0.1-17.3
		v-0.6h0.9v0.4c0,0,0,14.2,0.1,17.3c0.1,3.1,0,2.2,1.9,2.7c1.9,0.6,2.7-2.7,2.7-2.7V391h0.9v12.1
		C1180.5,405.8,1182.2,403.2,1182.2,403.2z"/>
	<circle fill="#C4A65C" cx="1195.6" cy="379.8" r="4.1"/>
	<path fill="#C4A65C" d="M1204.8,403.2c0,0,0.4-10.6-0.3-14.3c-0.7-3.7-4.1-4-4.1-4h-5l0,0h-4.9c0,0-3.2,0.3-4.1,4
		c-0.7,3.7-0.4,14.3-0.4,14.3s1.8,2.5,3.2,0v-12.1h0.9v31.1c0,0,0.6,3.2,2.7,2.7c1.9-0.6,1.8,0.3,1.9-2.7c0.1-2.9,0.1-17.3,0.1-17.3
		v-0.6h0.9v0.6c0,0,0,14.2,0.1,17.3c0.1,3.1,0,2.2,1.9,2.7c1.9,0.6,2.7-2.7,2.7-2.7v-31.1h0.9v12.1
		C1203,405.8,1204.8,403.2,1204.8,403.2z"/>
	<circle fill="#C4A65C" cx="1218.2" cy="379.8" r="4.1"/>
	<path fill="#C4A65C" d="M1222.9,385h-4.9l0,0h-5c0,0-3.2,0.3-4.1,4c-0.7,3.7-0.4,14.3-0.4,14.3s1.8,2.5,3.2,0v-12.1h0.9v31.1
		c0,0,0.6,3.2,2.7,2.7c1.9-0.6,1.8,0.3,1.9-2.7c0.1-2.9,0.1-17.3,0.1-17.3v-0.6h0.9v0.6c0,0,0,14.2,0.1,17.3c0.1,3.1,0,2.2,1.9,2.7
		c1.9,0.6,2.7-2.7,2.7-2.7v-31.1h0.9v12.1c1.5,2.5,3.2,0,3.2,0s0.4-10.6-0.3-14.3C1226.2,385.3,1222.9,385,1222.9,385z"/>
	<circle fill="#C4A65C" cx="1017.1" cy="326.4" r="4.1"/>
	<path fill="#C4A65C" d="M1010.7,350v-11.9h0.9v31c0,0,0.6,3.1,2.7,2.7c1.9-0.6,1.8,0.3,1.9-2.8c0.1-2.9,0.1-17.1,0.1-17.1v-0.4h0.9
		v0.4c0,0,0,14.2,0.1,17.1c0.1,3.1,0,2.1,1.9,2.7c1.9,0.6,2.7-2.5,2.7-2.5v-31h0.9V350c1.5,2.5,3.2,0,3.2,0s0.4-10.8-0.3-14.3
		c-0.7-3.7-4.1-4-4.1-4h-4.9l0,0h-5c0,0-3.2,0.3-4.1,4c-0.7,3.7-0.4,14.5-0.4,14.5S1009.3,352.5,1010.7,350z"/>
	<path fill="#C4A65C" d="M1032.8,350v-11.9h0.9v31c0,0,0.6,3.1,2.7,2.7c1.9-0.6,1.8,0.3,1.9-2.8c0.1-2.9,0.1-17.1,0.1-17.1v-0.4h0.9
		v0.4c0,0,0,14.2,0.1,17.1c0.1,3.1,0,2.1,1.9,2.7c1.9,0.6,2.7-2.5,2.7-2.5v-31h0.9V350c1.5,2.5,3.2,0,3.2,0s0.4-10.6-0.3-14.3
		c-0.7-3.7-4.4-4-4.4-4h-5.3l0,0h-4.4c0,0-3.1,0.3-4,4c-0.7,3.7-0.3,14.5-0.3,14.5S1031.4,352.5,1032.8,350z"/>
	<path fill="#C4A65C" d="M1055.4,350v-11.9h0.9v31c0,0,0.6,3.1,2.7,2.7c1.9-0.6,1.8,0.3,1.9-2.7s0.1-17.1,0.1-17.1v-0.4h0.9v0.4
		c0,0,0,14.2,0.1,17.3c0.1,3.1,0,2.1,1.9,2.7c1.9,0.6,2.7-2.5,2.7-2.5v-31h0.9v11.9c1.5,2.5,3.2,0,3.2,0s0.4-10.6-0.3-14.3
		c-0.7-3.7-3.8-4-3.8-4h-4.9l0,0h-5c0,0-3.4,0.3-4.1,4c-0.7,3.7-0.4,14.5-0.4,14.5S1053.9,352.5,1055.4,350z"/>
	<path fill="#C4A65C" d="M1078,350v-11.9h0.9v31c0,0,0.6,3.1,2.7,2.7c1.9-0.6,1.8,0.3,1.9-2.7c0.1-2.9,0.1-17.1,0.1-17.1v-0.4h0.9
		v0.4c0,0,0,14.2,0.1,17.3s0,2.1,1.9,2.7c1.9,0.6,2.7-2.5,2.7-2.5v-31h0.9v11.9c1.5,2.5,3.2,0,3.2,0s0.4-10.6-0.3-14.3
		c-0.7-3.7-4.1-4-4.1-4h-4.9l0,0h-5c0,0-3.2,0.3-4.1,4c-0.7,3.7-0.4,14.5-0.4,14.5S1076.5,352.7,1078,350z"/>
	<path fill="#C4A65C" d="M1099.9,350v-11.9h0.9v31c0,0,0.6,3.1,2.7,2.7c1.9-0.6,1.8,0.3,1.9-2.7c0.1-2.9,0.1-17.1,0.1-17.1v-0.4h0.9
		v0.4c0,0,0,14.2,0.1,17.3s0,2.1,1.9,2.7c1.9,0.6,2.7-2.5,2.7-2.5v-31h0.9v11.9c1.5,2.5,3.2,0,3.2,0s0.4-10.6-0.3-14.3
		c-0.7-3.7-4.1-4-4.1-4h-5l0,0h-4.9c0,0-3.2,0.3-4.1,4c-0.7,3.7-0.4,14.5-0.4,14.5S1098.5,352.7,1099.9,350z"/>
	<path fill="#C4A65C" d="M1123.1,350v-11.9h0.9v31c0,0,0.6,3.1,2.7,2.7c1.9-0.6,1.8,0.3,1.9-2.7c0.1-2.9,0.1-17.1,0.1-17.1v-0.4h0.9
		v0.4c0,0,0,14.2,0.1,17.3s0,2.1,1.9,2.7c1.9,0.6,2.7-2.7,2.7-2.7v-31.1h0.9V350c1.5,2.5,3.2,0,3.2,0s0.4-10.6-0.3-14.3
		c-0.7-3.7-4.1-4-4.1-4h-4.9l0,0h-5c0,0-3.2,0.3-4.1,4c-0.7,3.7-0.4,14.5-0.4,14.5S1121.6,352.7,1123.1,350z"/>
	<path fill="#C4A65C" d="M1144.8,350.2v-12.1h0.9v31.1c0,0,0.6,3.1,2.7,2.7c1.9-0.6,1.8,0.3,1.9-2.7s0.1-17.3,0.1-17.3v-0.6h0.9v0.4
		c0,0,0,14.2,0.1,17.3c0.1,3.1,0,2.2,1.9,2.7c1.9,0.6,2.7-2.7,2.7-2.7v-31.1h0.9V350c1.5,2.5,3.2,0,3.2,0s0.4-10.6-0.3-14.3
		c-0.7-3.7-4.4-4-4.4-4h-5.3l0,0h-4.4c0,0-3.1,0.3-4,4c-0.7,3.7-0.3,14.5-0.3,14.5S1143.3,352.7,1144.8,350.2z"/>
	<path fill="#C4A65C" d="M1166.9,350.2v-12.1h0.9v31.1c0,0,0.6,3.1,2.7,2.7c1.9-0.6,1.8,0.3,1.9-2.7c0.1-2.9,0.1-17.3,0.1-17.3v-0.6
		h0.9v0.6c0,0,0,14.2,0.1,17.3s0,2.2,1.9,2.7c1.9,0.6,2.7-2.7,2.7-2.7v-31.1h0.9v12.1c1.5,2.5,3.2,0,3.2,0s0.4-10.6-0.3-14.3
		c-0.7-3.7-4.1-4-4.1-4h-4.9l0,0h-5c0,0-3.2,0.3-4.1,4c-0.7,3.7-0.4,14.3-0.4,14.3S1165.4,352.7,1166.9,350.2z"/>
	<path fill="#C4A65C" d="M1189.5,350.2v-12.1h0.9v31.1c0,0,0.6,3.2,2.7,2.7c1.9-0.6,1.8,0.3,1.9-2.7s0.1-17.3,0.1-17.3v-0.6h0.9v0.6
		c0,0,0,14.2,0.1,17.3c0.1,3.1,0,2.2,1.9,2.7c1.9,0.6,2.7-2.7,2.7-2.7v-31.1h0.9v12.1c1.5,2.5,3.2,0,3.2,0s0.4-10.6-0.3-14.3
		s-3.8-4-3.8-4h-4.7l0,0h-5c0,0-3.4,0.3-4.3,4c-0.7,3.7-0.4,14.3-0.4,14.3S1188,352.7,1189.5,350.2z"/>
	<path fill="#C4A65C" d="M1212,350.2v-12.1h0.9v31.1c0,0,0.6,3.2,2.7,2.7c1.9-0.6,1.8,0.3,1.9-2.7c0.1-2.9,0.1-17.3,0.1-17.3
		l0.4-15.9l0.4,15.9c0,0,0,14.3,0.1,17.3c0.1,3.1,0,2.2,1.9,2.7c1.9,0.6,2.7-2.7,2.7-2.7v-31.1h0.9v12.1c1.5,2.5,3.2,0.1,3.2,0.1
		s0.4-10.6-0.3-14.3c-0.7-3.7-4.1-4-4.1-4h-4.9l0,0h-5c0,0-3.2,0.3-4,4c-0.7,3.7-0.3,14.3-0.3,14.3S1210.5,352.7,1212,350.2z"/>
	<circle fill="#C4A65C" cx="1016.8" cy="484.5" r="4.1"/>
	<path fill="#C4A65C" d="M1021.6,489.7h-4.9l0,0h-5c0,0-3.2,0.3-4.1,4c-0.7,3.7-0.4,14.3-0.4,14.3s1.8,2.5,3.2,0v-12.1h0.9V527
		c0,0,0.6,3.2,2.7,2.7c1.9-0.6,1.8,0.3,1.9-2.7c0.1-2.9,0.1-17.3,0.1-17.3v-0.6h0.9v0.6c0,0,0,14.2,0.1,17.3c0.1,3.1,0,2.2,1.9,2.7
		c1.9,0.6,2.7-2.7,2.7-2.7v-31.1h0.9v12.1c1.5,2.5,3.2,0,3.2,0s0.4-10.6-0.3-14.3C1024.9,490,1021.6,489.7,1021.6,489.7z"/>
	<circle fill="#C4A65C" cx="1038.9" cy="484.5" r="4.1"/>
	<path fill="#C4A65C" d="M1043.6,489.7h-4.9l0,0h-5c0,0-3.2,0.3-4.1,4c-0.7,3.7-0.4,14.3-0.4,14.3s1.8,2.5,3.2,0v-12.1h0.9V527
		c0,0,0.6,3.2,2.7,2.7c1.9-0.6,1.8,0.3,1.9-2.7c0.1-2.9,0.1-17.3,0.1-17.3v-0.6h0.9v0.6c0,0,0,14.2,0.1,17.3s0,2.2,1.9,2.7
		c1.9,0.6,2.7-2.7,2.7-2.7v-31.1h0.9v12.1c1.5,2.5,3.2,0,3.2,0s0.4-10.6-0.3-14.3C1046.9,490,1043.6,489.7,1043.6,489.7z"/>
	<circle fill="#C4A65C" cx="1061.5" cy="484.5" r="4.1"/>
	<path fill="#C4A65C" d="M1066.2,489.7h-4.9l0,0h-5c0,0-3.2,0.3-4.1,4c-0.7,3.7-0.4,14.3-0.4,14.3s1.8,2.5,3.2,0v-12.1h0.9V527
		c0,0,0.6,3.2,2.7,2.7c1.9-0.6,1.8,0.3,1.9-2.7c0.1-2.9,0.1-17.3,0.1-17.3v-0.6h0.9v0.6c0,0,0,14.2,0.1,17.3c0.1,3.1,0,2.2,1.9,2.7
		c1.9,0.6,2.7-2.7,2.7-2.7v-31.1h0.9v12.1c1.5,2.5,3.2,0.1,3.2,0.1s0.4-10.6-0.3-14.3C1069.4,490,1066.2,489.7,1066.2,489.7z"/>
	<circle fill="#C4A65C" cx="1084" cy="484.6" r="4.1"/>
	<path fill="#C4A65C" d="M1088.7,489.8h-4.9l0,0h-5c0,0-3.2,0.3-4.1,4c-0.7,3.7-0.4,14.3-0.4,14.3s1.8,2.5,3.2,0V496h0.9v31.1
		c0,0,0.6,3.2,2.7,2.7c1.9-0.6,1.8,0.3,1.9-2.7c0.1-2.9,0.1-17.3,0.1-17.3v-0.6h0.9v0.6c0,0,0,14.2,0.1,17.3s0,2.2,1.9,2.7
		c1.9,0.6,2.7-2.7,2.7-2.7V496h0.9v12.1c1.5,2.5,3.2,0.1,3.2,0.1s0.4-10.6-0.3-14.3C1092,490,1088.7,489.8,1088.7,489.8z"/>
	<circle fill="#C4A65C" cx="1106" cy="484.6" r="4.1"/>
	<path fill="#C4A65C" d="M1110.7,489.8h-4.9l0,0h-5c0,0-3.2,0.3-4.1,4c-0.7,3.7-0.4,14.3-0.4,14.3s1.8,2.5,3.2,0V496h0.9v31.1
		c0,0,0.6,3.2,2.7,2.7c1.9-0.6,1.8,0.3,1.9-2.7c0.1-2.9,0.1-17.3,0.1-17.3v-0.6h0.9v0.6c0,0,0,14.3,0.1,17.3c0.1,3.1,0,2.2,1.9,2.7
		c1.9,0.6,2.7-2.7,2.7-2.7V496h0.9v12.1c1.5,2.5,3.2,0.1,3.2,0.1s0.4-10.6-0.3-14.3C1114.1,490.1,1110.7,489.8,1110.7,489.8z"/>
	<circle fill="#C4A65C" cx="1129" cy="484.6" r="4.1"/>
	<path fill="#C4A65C" d="M1133.9,489.8h-4.9l0,0h-5c0,0-3.2,0.3-4.1,4c-0.7,3.7-0.4,14.3-0.4,14.3s1.8,2.5,3.2-0.1v-12.1h0.9V527
		c0,0,0.6,3.2,2.7,2.7c1.9-0.6,1.8,0.3,1.9-2.7c0.1-2.9,0.1-17.3,0.1-17.3v-0.6h0.9v0.6c0,0,0,14.3,0.1,17.3c0.1,3.1,0,2.2,1.9,2.7
		c1.9,0.6,2.7-2.7,2.7-2.7v-31.1h0.9v12.1c1.5,2.5,3.2,0.1,3.2,0.1s0.4-10.6-0.3-14.3C1137.1,490.1,1133.9,489.8,1133.9,489.8z"/>
	<circle fill="#C4A65C" cx="1150.8" cy="484.6" r="4.1"/>
	<path fill="#C4A65C" d="M1155.7,489.8h-4.9l0,0h-5c0,0-3.2,0.3-4.1,4c-0.7,3.7-0.4,14.3-0.4,14.3s1.8,2.5,3.2-0.1v-12.1h0.9V527
		c0,0,0.6,3.2,2.7,2.7s1.8,0.3,1.9-2.7c0.1-2.9,0.1-17.3,0.1-17.3v-0.6h0.9v0.6c0,0,0,14.3,0.1,17.3c0.1,3.1,0,2.2,1.9,2.7
		c1.9,0.6,2.7-2.7,2.7-2.7v-31.1h0.9v12.1c1.5,2.5,3.2,0.1,3.2,0.1s0.4-10.6-0.3-14.3C1158.9,490.1,1155.7,489.8,1155.7,489.8z"/>
	<circle fill="#C4A65C" cx="1172.9" cy="484.6" r="4.1"/>
	<path fill="#C4A65C" d="M1177.7,489.8h-4.9l0,0h-5c0,0-3.2,0.3-4.1,4c-0.7,3.7-0.4,14.3-0.4,14.3s1.8,2.5,3.2-0.1v-12.1h0.9V527
		c0,0,0.6,3.2,2.7,2.7c1.9-0.6,1.8,0.3,1.9-2.7c0.1-2.9,0.1-17.3,0.1-17.3v-0.6h0.9v0.6c0,0,0,14.3,0.1,17.3c0.1,3.1,0,2.2,1.9,2.7
		c1.9,0.6,2.7-2.7,2.7-2.7v-31.1h0.9v12.1c1.5,2.5,3.2,0.1,3.2,0.1s0.4-10.6-0.3-14.3C1180.9,490.1,1177.7,489.8,1177.7,489.8z"/>
	<circle fill="#C4A65C" cx="1195.5" cy="484.8" r="4.1"/>
	<path fill="#C4A65C" d="M1200.2,490h-4.9l0,0h-5c0,0-3.2,0.3-4.1,4c-0.7,3.7-0.4,14.3-0.4,14.3s1.8,2.4,3.2-0.1V496h0.9v31.3
		c0,0,0.6,3.2,2.7,2.7c1.9-0.6,1.8,0.3,1.9-2.7c0.1-2.9,0.1-17.3,0.1-17.3v-0.6h0.9v0.6c0,0,0,14.3,0.1,17.3c0.1,3.1,0,2.2,1.9,2.7
		c1.9,0.6,2.7-2.7,2.7-2.7V496h0.9v12.2c1.5,2.5,3.2,0.1,3.2,0.1s0.4-10.6-0.3-14.3C1203.5,490.1,1200.2,490,1200.2,490z"/>
	<circle fill="#C4A65C" cx="1218.1" cy="484.8" r="4.1"/>
	<path fill="#C4A65C" d="M1226.9,493.9c-0.7-3.7-4.1-4-4.1-4h-4.9l0,0h-5c0,0-3.2,0.3-4.1,4c-0.7,3.7-0.4,14.3-0.4,14.3
		s1.8,2.4,3.2-0.1v-12.2h0.9v31.3c0,0,0.6,3.2,2.7,2.7c1.9-0.6,1.8,0.3,1.9-2.7c0.1-2.9,0.1-17.3,0.1-17.3v-0.6h0.9v0.7
		c0,0,0,14.3,0.1,17.3c0.1,3.1,0,2.2,1.9,2.7c1.9,0.6,2.7-2.8,2.7-2.8v-31.3h0.9v12.2c1.5,2.5,3.2,0.1,3.2,0.1
		S1227.6,497.6,1226.9,493.9z"/>
	<circle fill="#C4A65C" cx="793.5" cy="433" r="4.1"/>
	<path fill="#C4A65C" d="M788.2,444.2v31.1c0,0,0.6,3.2,2.7,2.7c1.9-0.6,1.8,0.3,1.9-2.7c0.1-2.9,0.1-17.3,0.1-17.3v-0.6h0.9v0.6
		c0,0,0,14.3,0.1,17.3c0.1,3.1,0,2.2,1.9,2.7c1.9,0.6,2.7-2.7,2.7-2.7v-31.1h0.9v12.1c1.5,2.5,3.2,0.1,3.2,0.1s0.4-10.6-0.3-14.3
		c-0.7-3.7-4.1-4-4.1-4h-4.9l0,0h-5c0,0-3.2,0.3-4.1,4c-0.7,3.7-0.4,14.3-0.4,14.3s1.8,2.5,3.2-0.1v-12.1H788.2z"/>
	<circle fill="#C4A65C" cx="815.6" cy="433" r="4.1"/>
	<path fill="#C4A65C" d="M810.3,444.2v31.1c0,0,0.6,3.2,2.7,2.7s1.8,0.3,1.9-2.7c0.1-2.9,0.1-17.3,0.1-17.3v-0.6h0.9v0.6
		c0,0,0,14.3,0.1,17.3c0.1,3.1,0,2.2,1.9,2.7c1.9,0.6,2.7-2.7,2.7-2.7v-31.1h0.9v12.1c1.5,2.5,3.2,0.1,3.2,0.1s0.4-10.6-0.3-14.3
		c-0.7-3.7-4.1-4-4.1-4h-4.9l0,0h-5c0,0-3.2,0.3-4.1,4c-0.7,3.7-0.4,14.3-0.4,14.3s1.8,2.5,3.2-0.1v-12.1H810.3z"/>
	<circle fill="#C4A65C" cx="838.2" cy="433.2" r="4.1"/>
	<path fill="#C4A65C" d="M832.9,444.2v31.1c0,0,0.6,3.2,2.7,2.7c1.9-0.6,1.8,0.3,1.9-2.7c0.1-2.9,0.1-17.3,0.1-17.3v-0.6h0.9v0.6
		c0,0,0,14.3,0.1,17.3c0.1,3.1,0,2.2,1.9,2.7c1.9,0.6,2.7-2.7,2.7-2.7v-31.1h0.9v12.1c1.5,2.5,3.2,0.1,3.2,0.1s0.4-10.6-0.3-14.3
		c-0.7-3.7-4.1-4-4.1-4H838l0,0h-5c0,0-3.2,0.3-4.1,4c-0.7,3.7-0.4,14.3-0.4,14.3s1.8,2.5,3.2-0.1v-12.1H832.9z"/>
	<circle fill="#C4A65C" cx="860.8" cy="433.2" r="4.1"/>
	<path fill="#C4A65C" d="M855.4,444.2v31.3c0,0,0.6,3.2,2.7,2.7c1.9-0.6,1.8,0.3,1.9-2.7c0.1-2.9,0.1-17.3,0.1-17.3v-0.6h0.9v0.6
		c0,0,0,14.3,0.1,17.3c0.1,3.1,0,2.2,1.9,2.7c1.9,0.6,2.7-2.8,2.7-2.8v-31.3h0.9v12.2c1.5,2.5,3.2,0.1,3.2,0.1s0.4-10.6-0.3-14.3
		c-0.7-3.7-4.1-4-4.1-4h-4.9l0,0h-5c0,0-3.2,0.3-4.1,4c-0.7,3.7-0.4,14.3-0.4,14.3s1.8,2.4,3.2-0.1v-12.2h1.2V444.2z"/>
	<circle fill="#C4A65C" cx="882.7" cy="433.2" r="4.1"/>
	<path fill="#C4A65C" d="M877.4,444.2v31.3c0,0,0.6,3.2,2.7,2.7c1.9-0.6,1.8,0.3,1.9-2.7c0.1-2.9,0.1-17.4,0.1-17.4v-0.7h0.9v0.7
		c0,0,0,14.3,0.1,17.3c0.1,3.1,0,2.2,1.9,2.7c1.9,0.6,2.7-2.8,2.7-2.8v-31.3h0.9v12.2c1.5,2.5,3.2,0.1,3.2,0.1s0.4-10.6-0.3-14.3
		c-0.7-3.7-4.1-4-4.1-4h-4.9l0,0h-5c0,0-3.2,0.3-4.1,4c-0.7,3.7-0.4,14.3-0.4,14.3s1.8,2.4,3.2-0.1v-12.2h1.2V444.2z"/>
	<circle fill="#C4A65C" cx="905.7" cy="433.2" r="4.1"/>
	<path fill="#C4A65C" d="M900.6,444.2v31.3c0,0,0.6,3.2,2.7,2.8c1.9-0.6,1.8,0.3,1.9-2.7c0.1-2.9,0.1-17.4,0.1-17.4v-0.7h0.9v0.7
		c0,0,0,14.3,0.1,17.3c0.1,3.1,0,2.2,1.9,2.7c1.9,0.6,2.7-2.8,2.7-2.8v-31.3h0.9v12.2c1.5,2.5,3.2,0.1,3.2,0.1s0.4-10.6-0.3-14.3
		c-0.7-3.7-4.1-4-4.1-4h-5l0,0h-4.7c0,0-3.2,0.3-4,4c-0.7,3.7-0.3,14.3-0.3,14.3s1.8,2.4,3.2-0.1v-12.2h0.7V444.2z"/>
	<circle fill="#C4A65C" cx="927.6" cy="433.2" r="4.1"/>
	<path fill="#C4A65C" d="M936.8,456.6c0,0,0.4-10.6-0.3-14.3c-0.7-3.7-4.1-4-4.1-4h-4.9l0,0h-5c0,0-3.2,0.3-4.1,4
		c-0.7,3.7-0.4,14.3-0.4,14.3s1.8,2.4,3.2-0.1v-12.2h0.9v31.3c0,0,0.6,3.2,2.7,2.8c1.9-0.6,1.8,0.3,1.9-2.7
		c0.1-2.9,0.1-17.4,0.1-17.4v-0.7h0.9v0.7c0,0,0,14.3,0.1,17.3c0.1,3.1,0,2.2,1.9,2.7c1.9,0.6,2.7-2.8,2.7-2.8v-31.3h0.9v12.2
		C935.1,459,936.8,456.6,936.8,456.6z"/>
	<circle fill="#C4A65C" cx="949.7" cy="433.3" r="4.1"/>
	<path fill="#C4A65C" d="M944.4,444.2v31.3c0,0,0.6,3.2,2.7,2.8c1.9-0.6,1.8,0.3,1.9-2.7c0.1-2.9,0.1-17.4,0.1-17.4v-0.7h0.9v0.7
		c0,0,0,14.3,0.1,17.3c0.1,3.1,0,2.2,1.9,2.7c1.9,0.6,2.7-2.8,2.7-2.8v-31.3h0.9v12.2c1.5,2.5,3.2,0.1,3.2,0.1s0.4-10.6-0.3-14.3
		c-0.7-3.7-4.1-4-4.1-4h-4.7l0,0h-4.9c0,0-3.4,0.3-4.1,4c-0.7,3.7-0.3,14.3-0.3,14.3s1.9,2.4,3.4-0.1v-12.1H944.4z"/>
	<circle fill="#C4A65C" cx="972.2" cy="433.3" r="4.1"/>
	<path fill="#C4A65C" d="M966.9,444.5v31.1c0,0,0.6,3.2,2.7,2.7c1.9-0.6,1.8,0.3,1.9-2.7c0.1-2.9,0.1-17.4,0.1-17.4v-0.7h0.9v0.7
		c0,0,0,14.3,0.1,17.4c0.1,3.1,0,2.2,1.9,2.7c1.9,0.6,2.7-2.8,2.7-2.8v-31.3h0.9v12.2c1.5,2.5,3.2,0.1,3.2,0.1s0.4-10.6-0.3-14.3
		c-0.7-3.7-4.1-4-4.1-4h-4.9l0,0l0,0h-0.1l0,0h-4.9c0,0-3.2,0.3-4.1,4c-0.7,3.7-0.4,14.3-0.4,14.3s1.8,2.5,3.2-0.1v-12.1
		L966.9,444.5z"/>
	<circle fill="#C4A65C" cx="994.8" cy="433.3" r="4.1"/>
	<path fill="#C4A65C" d="M989.5,444.2v31.3c0,0,0.6,3.2,2.7,2.8c1.9-0.6,1.8,0.4,1.9-2.7c0.1-2.9,0.1-17.4,0.1-17.4v-0.7h0.9v0.7
		c0,0,0,14.3,0.1,17.4c0.1,3.1,0,2.2,1.9,2.8c1.9,0.6,2.7-2.8,2.7-2.8v-31.3h0.9v12.2c1.5,2.5,3.2,0.1,3.2,0.1s0.4-10.6-0.3-14.3
		s-3.7-4-3.7-4h-4.4l0,0h-5.3c0,0-3.4,0.3-4.3,4c-0.7,3.7-0.4,14.3-0.4,14.3s1.8,2.4,3.2-0.3v-12.2H989.5z"/>
	<circle fill="#C4A65C" cx="793.7" cy="379.2" r="4.1"/>
	<path fill="#C4A65C" d="M788.4,391.2V422c0,0,0.6,3.1,2.7,2.5c1.9-0.6,1.8,0.3,1.9-2.8c0.1-2.9,0.1-17,0.1-17v-0.3h0.9v0.3
		c0,0,0,14,0.1,17.1c0.1,3.1,0,2.1,1.9,2.7c1.9,0.6,2.7-2.4,2.7-2.4v-30.8h0.9v11.8c1.5,2.5,3.2-0.1,3.2-0.1s0.4-10.8-0.3-14.5
		c-0.7-3.7-4.1-4-4.1-4h-4.9l0,0h-4.9c0,0-3.2,0.3-4,4c-0.7,3.7-0.3,14.3-0.3,14.3s1.8,2.8,3.2,0.3v-11.8h0.7V391.2z"/>
	<circle fill="#C4A65C" cx="815.6" cy="379.2" r="4.1"/>
	<path fill="#C4A65C" d="M824.8,402.7c0,0,0.4-10.6-0.3-14.3c-0.7-3.7-4.1-4-4.1-4h-4.9l0,0h-5c0,0-3.2,0.3-4.1,4
		c-0.7,3.7-0.4,14.3-0.4,14.3s1.8,2.8,3.2,0.3v-11.8h0.9V422c0,0,0.6,3.1,2.7,2.5c1.9-0.6,1.8,0.3,1.9-2.8c0.1-2.9,0.1-17,0.1-17
		v-0.3h0.9v0.3c0,0,0,14,0.1,17.1c0.1,3.1,0,2.1,1.9,2.7c1.9,0.6,2.7-2.4,2.7-2.4v-30.8h0.9v11.8
		C823.2,405.5,824.8,402.7,824.8,402.7z"/>
	<circle fill="#C4A65C" cx="838.2" cy="379.4" r="4.1"/>
	<path fill="#C4A65C" d="M847.3,402.7c0,0,0.4-10.6-0.3-14.3c-0.7-3.7-4.1-4-4.1-4h-5l0,0H833c0,0-3.2,0.3-4.1,4
		c-0.7,3.7-0.4,14.3-0.4,14.3s1.8,2.8,3.2,0.3v-11.8h0.9V422c0,0,0.6,3.1,2.7,2.5c1.9-0.6,1.8,0.3,1.9-2.8c0.1-2.9,0.1-17,0.1-17
		v-0.3h0.9v0.3c0,0,0,14,0.1,17.1c0.1,3.1,0,2.1,1.9,2.7c1.9,0.6,2.7-2.4,2.7-2.4v-30.8h0.9v11.8
		C845.6,405.5,847.3,402.7,847.3,402.7z"/>
	<circle fill="#C4A65C" cx="860.8" cy="379.4" r="4.1"/>
	<path fill="#C4A65C" d="M869.9,402.8c0,0,0.4-10.6-0.3-14.3c-0.7-3.7-4.1-4-4.1-4h-4.9l0,0h-5c0,0-3.2,0.3-4.1,4
		c-0.7,3.7-0.4,14.3-0.4,14.3s1.8,2.8,3.2,0.3v-11.8h0.9v30.8c0,0,0.6,3.1,2.7,2.5c1.9-0.6,1.8,0.3,1.9-2.8c0.1-2.9,0.1-17,0.1-17
		v-0.3h0.9v0.3c0,0,0,14.2,0.1,17.1c0.1,3.1,0,2.1,1.9,2.7c1.9,0.6,2.7-2.4,2.7-2.4v-30.8h0.9v11.8
		C868.1,405.6,869.9,402.8,869.9,402.8z"/>
	<circle fill="#C4A65C" cx="882.9" cy="379.4" r="4.1"/>
	<path fill="#C4A65C" d="M892,402.8c0,0,0.4-10.6-0.3-14.3c-0.7-3.7-4.1-4-4.1-4h-4.9l0,0h-5c0,0-3.2,0.3-4.1,4
		c-0.7,3.7-0.4,14.3-0.4,14.3s1.8,2.8,3.2,0.1v-11.8h0.9V422c0,0,0.6,3.1,2.7,2.5s1.8,0.3,1.9-2.8c0.1-2.9,0.1-17,0.1-17v-0.3h0.9
		v0.3c0,0,0,14.2,0.1,17.1c0.1,3.1,0,2.1,1.9,2.7s2.7-2.4,2.7-2.4v-30.8h0.9v11.8C890.2,405.6,892,402.8,892,402.8z"/>
	<circle fill="#C4A65C" cx="905.9" cy="379.4" r="4.1"/>
	<path fill="#C4A65C" d="M915,402.8c0,0,0.4-10.6-0.3-14.3c-0.7-3.7-4.1-4-4.1-4h-4.9l0,0h-5c0,0-3.2,0.3-4.1,4
		c-0.7,3.7-0.4,14.3-0.4,14.3s1.8,2.8,3.2,0.1v-11.8h0.9V422c0,0,0.6,3.1,2.7,2.5c1.9-0.6,1.8,0.3,1.9-2.8c0.1-2.9,0.1-17,0.1-17
		v-0.3h0.9v0.3c0,0,0,14.2,0.1,17.1c0.1,3.1,0,2.1,1.9,2.7s2.7-2.5,2.7-2.5v-31h0.9v11.8C913.3,405.6,915,402.8,915,402.8z"/>
	<circle fill="#C4A65C" cx="927.7" cy="379.4" r="4.1"/>
	<path fill="#C4A65C" d="M922.4,422c0,0,0.6,3.1,2.7,2.5c1.9-0.6,1.8,0.3,1.9-2.8c0.1-2.9,0.1-17.1,0.1-17.1v-0.4h0.9v0.3
		c0,0,0,14.2,0.1,17.1c0.1,3.1,0,2.1,1.9,2.7c1.9,0.6,2.7-2.5,2.7-2.5v-31h0.9v11.8c1.5,2.5,3.2,0,3.2,0s0.4-10.8-0.3-14.5
		c-0.7-3.7-4.1-4-4.1-4h-4.9l0,0h-5c0,0-3.2,0.3-4.1,4c-0.7,3.7-0.4,14.3-0.4,14.3s1.8,2.8,3.2,0.1v-11.8h0.9L922.4,422z"/>
	<circle fill="#C4A65C" cx="949.7" cy="379.5" r="4.1"/>
	<path fill="#C4A65C" d="M959,402.9c0,0,0.4-10.6-0.3-14.3c-0.7-3.7-4.1-4-4.1-4h-4.9l0,0h-5c0,0-3.2,0.3-4.1,4
		c-0.7,3.7-0.4,14.3-0.4,14.3s1.8,2.7,3.2,0.1v-11.8h0.9v31c0,0,0.6,3.1,2.7,2.5c1.9-0.6,1.8,0.3,1.9-2.8c0.1-2.9,0.1-17.1,0.1-17.1
		v-0.4h0.9v0.3c0,0,0,14.2,0.1,17.1c0.1,3.1,0,2.1,1.9,2.7c1.9,0.6,2.7-2.5,2.7-2.5v-31h0.9v11.9C957.2,405.6,959,402.9,959,402.9z"
		/>
	<circle fill="#C4A65C" cx="972.2" cy="379.5" r="4.1"/>
	<path fill="#C4A65C" d="M981.5,402.9c0,0,0.4-10.6-0.3-14.3c-0.7-3.7-4.1-4-4.1-4h-4.9l0,0h-5c0,0-3.2,0.3-4.1,4
		c-0.7,3.7-0.4,14.3-0.4,14.3s1.8,2.7,3.2,0.1v-11.9h0.9v31c0,0,0.6,3.1,2.7,2.5c1.9-0.6,1.8,0.3,1.9-2.8c0.1-2.9,0.1-17.1,0.1-17.1
		v-0.4h0.9v0.3c0,0,0,14.2,0.1,17.1c0.1,3.1,0,2.1,1.9,2.7c1.9,0.6,2.7-2.5,2.7-2.5v-31h0.9v11.9
		C979.8,405.6,981.5,402.9,981.5,402.9z"/>
	<circle fill="#C4A65C" cx="994.8" cy="379.5" r="4.1"/>
	<path fill="#C4A65C" d="M1003.9,402.9c0,0,0.4-10.6-0.3-14.3c-0.7-3.7-4.1-4-4.1-4h-5l0,0h-4.9c0,0-3.2,0.3-4.1,4
		c-0.7,3.7-0.4,14.3-0.4,14.3s1.8,2.7,3.2,0.1v-11.9h0.9v31c0,0,0.6,3.1,2.7,2.5c1.9-0.6,1.8,0.3,1.9-2.8c0.1-2.9,0.1-17.1,0.1-17.1
		v-0.4h0.9v0.4c0,0,0,14.2,0.1,17.1c0.1,3.1,0,2.1,1.9,2.7s2.7-2.5,2.7-2.5v-31h0.9v11.9C1002.2,405.6,1003.9,402.9,1003.9,402.9z"
		/>
	<circle fill="#C4A65C" cx="793.7" cy="326.1" r="4.1"/>
	<path fill="#C4A65C" d="M788.4,338.1v30.8c0,0,0.6,3.1,2.7,2.5c1.9-0.6,1.8,0.3,1.9-2.8c0.1-2.9,0.1-17,0.1-17v-0.3h0.9v0.3
		c0,0,0,14,0.1,17.1c0.1,3.1,0,2.1,1.9,2.7c1.9,0.6,2.7-2.4,2.7-2.4v-30.8h0.9V350c1.5,2.5,3.2,0,3.2,0s0.4-10.8-0.3-14.5
		c-0.7-3.7-4.1-4-4.1-4h-4.9l0,0h-5c0,0-3.2,0.3-4.1,4c-0.7,3.7-0.4,14.3-0.4,14.3s1.8,2.8,3.2,0.3v-11.8h1.2V338.1z"/>
	<circle fill="#C4A65C" cx="815.8" cy="326.3" r="4.1"/>
	<path fill="#C4A65C" d="M809.4,349.9v-11.8h0.9v30.8c0,0,0.6,3.1,2.7,2.5c1.9-0.6,1.8,0.3,1.9-2.8c0.1-2.9,0.1-17,0.1-17v-0.3h0.9
		v0.3c0,0,0,14,0.1,17.1c0.1,3.1,0,2.1,1.9,2.7c1.9,0.6,2.7-2.4,2.7-2.4v-30.8h0.9V350c1.5,2.5,3.2,0,3.2,0s0.4-10.8-0.3-14.5
		c-0.7-3.7-4.1-4-4.1-4h-5l0,0h-4.7c0,0-3.2,0.3-4.1,4c-0.7,3.7-0.3,14.5-0.3,14.5S808,352.4,809.4,349.9z"/>
	<circle fill="#C4A65C" cx="838.3" cy="326.3" r="4.1"/>
	<path fill="#C4A65C" d="M832,349.9v-11.8h0.9v30.8c0,0,0.6,3.1,2.7,2.5c1.9-0.6,1.8,0.3,1.9-2.8c0.1-2.9,0.1-17,0.1-17v-0.3h0.9
		v0.3c0,0,0,14.2,0.1,17.1c0.1,3.1,0,2.1,1.9,2.7c1.9,0.6,2.7-2.4,2.7-2.4v-30.8h0.9V350c1.5,2.5,3.2,0,3.2,0s0.4-10.8-0.3-14.5
		c-0.7-3.7-4.3-4-4.3-4h-5.3l0,0h-4.6c0,0-3.2,0.3-4,4c-0.7,3.7-0.3,14.5-0.3,14.5S830.5,352.4,832,349.9z"/>
	<circle fill="#C4A65C" cx="860.9" cy="326.3" r="4.1"/>
	<path fill="#C4A65C" d="M854.6,349.9v-11.8h0.9v30.8c0,0,0.6,3.1,2.7,2.5c1.9-0.6,1.8,0.3,1.9-2.8c0.1-2.9,0.1-17,0.1-17v-0.3h0.9
		v0.3c0,0,0,14.2,0.1,17.1c0.1,3.1,0,2.1,1.9,2.7c1.9,0.6,2.7-2.4,2.7-2.4v-30.8h0.9V350c1.5,2.5,3.2,0,3.2,0s0.4-10.8-0.3-14.5
		c-0.7-3.7-3.8-4-3.8-4h-4.6l0,0H856c0,0-3.4,0.3-4.1,4c-0.7,3.7-0.4,14.5-0.4,14.5S853.1,352.5,854.6,349.9z"/>
	<circle fill="#C4A65C" cx="882.9" cy="326.3" r="4.1"/>
	<path fill="#C4A65C" d="M876.7,349.9v-11.8h0.9v30.8c0,0,0.6,3.1,2.7,2.5c1.9-0.6,1.8,0.3,1.9-2.8c0.1-2.9,0.1-17,0.1-17v-0.3h0.9
		v0.3c0,0,0,14.2,0.1,17.1c0.1,3.1,0,2.1,1.9,2.7c1.9,0.6,2.7-2.5,2.7-2.5v-31h0.9v11.8c1.5,2.5,3.2,0,3.2,0s0.4-10.8-0.3-14.5
		c-0.7-3.7-3.7-4-3.7-4h-4.7l0,0h-5.2c0,0-3.4,0.3-4.3,4c-0.7,3.7-0.4,14.5-0.4,14.5S875.2,352.5,876.7,349.9z"/>
	<circle fill="#C4A65C" cx="905.9" cy="326.3" r="4.1"/>
	<path fill="#C4A65C" d="M899.7,349.9v-11.8h0.9v30.8c0,0,0.6,3.1,2.7,2.5c1.9-0.6,1.8,0.3,1.9-2.8c0.1-2.9,0.1-17.1,0.1-17.1V351
		h0.9v0.3c0,0,0,14.2,0.1,17.1c0.1,3.1,0,2.1,1.9,2.7c1.9,0.6,2.7-2.5,2.7-2.5v-31h0.9v11.8c1.5,2.5,3.2,0,3.2,0s0.4-10.8-0.3-14.5
		c-0.7-3.7-4.1-4.4-4.1-4.4l-4.9-0.4l0,0l0,0h-0.1l0,0l-4.9,0.4c0,0-3.2,0.4-4.1,4.1c-0.7,3.7-0.4,14.6-0.4,14.6
		S898.2,352.5,899.7,349.9z"/>
	<circle fill="#C4A65C" cx="927.7" cy="326.4" r="4.1"/>
	<path fill="#C4A65C" d="M921.5,349.9v-11.8h0.9v31c0,0,0.6,3.1,2.7,2.5c1.9-0.6,1.8,0.3,1.9-2.8c0.1-2.9,0.1-17.1,0.1-17.1v-0.4
		h0.9v0.3c0,0,0,14.2,0.1,17.1c0.1,3.1,0,2.1,1.9,2.7s2.7-2.5,2.7-2.5v-31h0.9v11.9c1.5,2.5,3.2,0,3.2,0s0.4-10.8-0.3-14.5
		c-0.7-3.7-4.1-4-4.1-4h-4.9l0,0h-5c0,0-3.2,0.3-4.1,4c-0.7,3.7-0.4,14.5-0.4,14.5S920,352.5,921.5,349.9z"/>
	<circle fill="#C4A65C" cx="949.8" cy="326.4" r="4.1"/>
	<path fill="#C4A65C" d="M943.5,350v-11.9h0.9v31c0,0,0.6,3.1,2.7,2.5c1.9-0.6,1.8,0.3,1.9-2.8c0.1-2.9,0.1-17.1,0.1-17.1v-0.4h0.9
		v0.3c0,0,0,14.2,0.1,17.1c0.1,3.1,0,2.1,1.9,2.7s2.7-2.5,2.7-2.5v-31h0.9v11.9c1.5,2.5,3.2,0,3.2,0s0.4-10.8-0.3-14.5
		c-0.7-3.7-4.1-4-4.1-4h-4.9l0,0h-5c0,0-3.2,0.3-4.1,4c-0.7,3.7-0.4,14.5-0.4,14.5S942,352.5,943.5,350z"/>
	<circle fill="#C4A65C" cx="972.4" cy="326.4" r="4.1"/>
	<path fill="#C4A65C" d="M966,350v-11.9h0.9v31c0,0,0.6,3.1,2.7,2.5c1.9-0.6,1.8,0.3,1.9-2.8c0.1-2.9,0.1-17.1,0.1-17.1v-0.4h0.9
		v0.4c0,0,0,14.2,0.1,17.1c0.1,3.1,0,2.1,1.9,2.7c1.9,0.6,2.7-2.5,2.7-2.5v-31h0.9v11.9c1.5,2.5,3.2,0,3.2,0s0.4-10.8-0.3-14.5
		c-0.7-3.7-4.3-4-4.3-4h-5.2l0,0h-4.6c0,0-3.2,0.3-4,4c-0.7,3.7-0.3,14.5-0.3,14.5S964.6,352.5,966,350z"/>
	<circle fill="#C4A65C" cx="994.9" cy="326.4" r="4.1"/>
	<path fill="#C4A65C" d="M988.6,350v-11.9h0.9v31c0,0,0.6,3.1,2.7,2.7c1.9-0.6,1.8,0.3,1.9-2.8c0.1-2.9,0.1-17.1,0.1-17.1v-0.4h0.9
		v0.4c0,0,0,14.2,0.1,17.1c0.1,3.1,0,2.1,1.9,2.7c1.9,0.6,2.7-2.5,2.7-2.5v-31h0.9V350c1.5,2.5,3.2,0,3.2,0s0.4-10.8-0.3-14.5
		c-0.7-3.7-3.8-4-3.8-4h-4.6l0,0h-5.3c0,0-3.4,0.3-4.3,4c-0.7,3.7-0.4,14.5-0.4,14.5S987.1,352.5,988.6,350z"/>
	<path fill="#C4A65C" d="M798.2,489.4h-4.9l0,0h-5c0,0-3.2,0.3-4.1,4c-0.7,3.7-0.4,14.3-0.4,14.3s1.8,2.7,3.2,0.1v-11.9h0.9v31
		c0,0,0.6,3.1,2.7,2.5c1.9-0.6,1.8,0.3,1.9-2.8c0.1-2.9,0.1-17.1,0.1-17.1V509h0.9v0.4c0,0,0,14.2,0.1,17.1c0.1,3.1,0,2.1,1.9,2.7
		c1.9,0.6,2.7-2.5,2.7-2.5v-31h0.9v11.9c1.5,2.5,3.2,0,3.2,0s0.4-10.8-0.3-14.5C801.5,489.7,798.2,489.4,798.2,489.4z"/>
	<path fill="#C4A65C" d="M820.4,489.4h-4.9l0,0h-5c0,0-3.2,0.3-4.1,4c-0.7,3.7-0.4,14.3-0.4,14.3s1.8,2.7,3.2,0.1v-11.9h0.9v31
		c0,0,0.6,3.1,2.7,2.5c1.9-0.6,1.8,0.3,1.9-2.8c0.1-2.9,0.1-17.1,0.1-17.1V509h0.9v0.4c0,0,0,14.2,0.1,17.1c0.1,3.1,0,2.1,1.9,2.7
		c1.9,0.6,2.7-2.5,2.7-2.5v-31h0.9v11.9c1.5,2.5,3.2,0,3.2,0s0.4-10.8-0.3-14.5C823.6,489.7,820.4,489.4,820.4,489.4z"/>
	<path fill="#C4A65C" d="M842.9,489.4H838l0,0h-5c0,0-3.2,0.3-4.1,4c-0.7,3.7-0.4,14.3-0.4,14.3s1.8,2.7,3.2,0.1v-11.9h0.9v31
		c0,0,0.6,3.1,2.7,2.7c2.1-0.4,1.8,0.3,1.9-2.8c0.1-2.9,0.1-17.1,0.1-17.1v-0.4h0.9v0.4c0,0,0,14.2,0.1,17.1c0.1,3.1,0,2.1,1.9,2.7
		c1.9,0.6,2.7-2.5,2.7-2.5v-31h0.9v11.9c1.5,2.5,3.2,0,3.2,0s0.4-10.8-0.3-14.5C846.2,489.7,842.9,489.4,842.9,489.4z"/>
	<path fill="#C4A65C" d="M865.5,489.4h-4.9l0,0h-5c0,0-3.2,0.3-4.1,4c-0.7,3.7-0.4,14.3-0.4,14.3s1.8,2.7,3.2,0.1v-11.9h0.9v31
		c0,0,0.6,3.1,2.7,2.7c1.9-0.6,1.8,0.3,1.9-2.8c0.1-2.9,0.1-17.3,0.1-17.3l0.4-15.9l0.4,15.9c0,0,0,14.2,0.1,17.3
		c0.1,3.1,0,2.2,1.9,2.7c1.9,0.6,2.7-2.5,2.7-2.5v-31h0.9v11.9c1.5,2.5,3.2,0,3.2,0s0.4-10.8-0.3-14.3
		C868.7,489.8,865.5,489.4,865.5,489.4z"/>
	<circle fill="#C4A65C" cx="882.7" cy="484.4" r="4.1"/>
	<path fill="#C4A65C" d="M887.4,489.5h-4.9l0,0h-5c0,0-3.2,0.3-4.1,4c-0.7,3.7-0.4,14.3-0.4,14.3s1.8,2.7,3.2,0.1V496h0.9v31
		c0,0,0.6,3.1,2.7,2.7c1.9-0.6,1.8,0.3,1.9-2.8c0.1-2.9,0.1-17.3,0.1-17.3l0.4-15.9l0.4,15.9c0,0,0,14.2,0.1,17.3
		c0.1,3.1,0,2.2,1.9,2.7c1.9,0.6,2.7-2.5,2.7-2.5v-31h0.9v11.9c1.5,2.5,3.2,0,3.2,0s0.4-10.6-0.3-14.3
		C890.7,489.8,887.4,489.5,887.4,489.5z"/>
	<circle fill="#C4A65C" cx="905.7" cy="484.4" r="4.1"/>
	<path fill="#C4A65C" d="M910.5,489.5h-5l0,0h-4.9c0,0-3.2,0.3-4.1,4c-0.7,3.7-0.4,14.3-0.4,14.3s1.8,2.7,3.2,0v-11.9h0.9v31
		c0,0,0.6,3.1,2.7,2.7c1.9-0.6,1.8,0.3,1.9-2.7c0.1-2.9,0.1-17.3,0.1-17.3l0.4-15.9l0.4,15.9c0,0,0,14.3,0.1,17.3
		c0.1,3.1,0,2.2,1.9,2.7c1.9,0.6,2.7-2.5,2.7-2.5v-31h0.9v11.9c1.5,2.5,3.2,0,3.2,0s0.4-10.6-0.3-14.3
		C913.8,489.8,910.5,489.5,910.5,489.5z"/>
	<circle fill="#C4A65C" cx="927.6" cy="484.4" r="4.1"/>
	<path fill="#C4A65C" d="M932.3,489.5h-4.9l0,0h-5c0,0-3.2,0.3-4.1,4c-0.7,3.7-0.4,14.3-0.4,14.3s1.8,2.7,3.2,0v-11.9h0.9v31
		c0,0,0.6,3.1,2.7,2.7c1.9-0.6,1.8,0.3,1.9-2.7c0.1-2.9,0.1-17.3,0.1-17.3l0.4-15.9l0.4,15.9c0,0,0,14.3,0.1,17.3
		c0.1,3.1,0,2.2,1.9,2.7c1.9,0.6,2.7-2.5,2.7-2.5v-31h0.9v11.9c1.5,2.5,3.2,0,3.2,0s0.4-10.6-0.3-14.3
		C935.7,489.8,932.3,489.5,932.3,489.5z"/>
	<circle fill="#C4A65C" cx="949.5" cy="484.4" r="4.1"/>
	<path fill="#C4A65C" d="M954.4,489.5h-5l0,0h-4.9c0,0-3.2,0.3-4.1,4c-0.7,3.7-0.4,14.3-0.4,14.3s1.8,2.7,3.2,0v-11.9h0.9v31
		c0,0,0.6,3.1,2.7,2.7c1.9-0.6,1.8,0.3,1.9-2.7c0.1-2.9,0.1-17.3,0.1-17.3l0.4-15.9l0.4,15.9c0,0,0,14.3,0.1,17.3
		c0.1,3.1,0,2.2,1.9,2.7c1.9,0.6,2.7-2.5,2.7-2.5v-31h0.9v11.9c1.5,2.5,3.2,0,3.2,0s0.4-10.6-0.3-14.3
		C957.6,489.8,954.4,489.5,954.4,489.5z"/>
	<circle fill="#C4A65C" cx="972.1" cy="484.5" r="4.1"/>
	<path fill="#C4A65C" d="M977,489.7h-4.9l0,0h-5c0,0-3.2,0.3-4.1,4c-0.7,3.7-0.4,14.3-0.4,14.3s1.8,2.7,3.2,0V496h0.9v31
		c0,0,0.6,3.1,2.7,2.7c1.9-0.6,1.8,0.3,1.9-2.7c0.1-2.9,0.1-17.1,0.1-17.1v-0.4h0.9v0.4c0,0,0,14.2,0.1,17.3c0.1,3.1,0,2.2,1.9,2.7
		c1.9,0.6,2.7-2.7,2.7-2.7V496h0.9v11.9c1.5,2.5,3.2,0,3.2,0s0.4-10.6-0.3-14.3C980.2,490,977,489.7,977,489.7z"/>
	<circle fill="#C4A65C" cx="994.7" cy="484.5" r="4.1"/>
	<path fill="#C4A65C" d="M999.5,489.7h-4.9l0,0h-5c0,0-3.2,0.3-4.1,4c-0.7,3.7-0.4,14.3-0.4,14.3s1.8,2.5,3.2,0v-12.1h0.9V527
		c0,0,0.6,3.1,2.7,2.7c1.9-0.6,1.8,0.3,1.9-2.7c0.1-2.9,0.1-17.3,0.1-17.3v-0.6h0.9v0.4c0,0,0,14.2,0.1,17.3c0.1,3.1,0,2.2,1.9,2.7
		c1.9,0.6,2.7-2.7,2.7-2.7v-31.1h0.9v12.1c1.5,2.5,3.2,0,3.2,0s0.4-10.6-0.3-14.3C1002.8,490,999.5,489.7,999.5,489.7z"/>
	<path fill="#C4A65C" d="M410.7,487.4c0,2.2-1.8,4.1-4.1,4.1c-2.2,0-4.1-1.8-4.1-4.1c0-2.2,1.8-4.1,4.1-4.1
		C408.9,483.3,410.8,485.2,410.7,487.4"/>
	<path fill="#C4A65C" d="M432.8,487.4c0,2.2-1.8,4.1-4.1,4.1c-2.2,0-4.1-1.8-4.1-4.1c0-2.2,1.8-4.1,4.1-4.1S432.8,485.2,432.8,487.4
		"/>
	<path fill="#C4A65C" d="M455.4,487.4c0,2.2-1.8,4.1-4.1,4.1c-2.2,0-4.1-1.8-4.1-4.1c0-2.2,1.8-4.1,4.1-4.1
		C453.6,483.3,455.4,485.2,455.4,487.4"/>
	<circle fill="#C4A65C" cx="272.7" cy="487.3" r="4.1"/>
	<path fill="#C4A65C" d="M277.4,492.5h-5l0,0h-4.9c0,0-3.2,0.3-4.1,4c-0.7,3.7-0.3,14.3-0.3,14.3s1.8,2.7,3.2,0v-11.9h0.9v31
		c0,0,0.6,3.1,2.7,2.7c1.9-0.6,1.8,0.3,1.9-2.7c0.1-3.1,0.1-17.1,0.1-17.1v-0.4h0.9v0.4c0,0,0,14.2,0.1,17.3c0.1,2.9,0,2.1,1.9,2.7
		s2.7-2.5,2.7-2.5v-31h0.9V511c1.5,2.5,3.2,0,3.2,0s0.4-10.6-0.3-14.3C280.8,492.8,277.4,492.5,277.4,492.5z"/>
	<circle fill="#C4A65C" cx="294.6" cy="487.3" r="4.1"/>
	<path fill="#C4A65C" d="M299.5,492.5h-4.9l0,0h-5c0,0-3.2,0.3-4.1,4c-0.7,3.7-0.3,14.3-0.3,14.3s1.8,2.7,3.2,0v-11.9h0.9v31
		c0,0,0.6,3.1,2.7,2.7c1.9-0.6,1.8,0.3,1.9-2.7c0.1-3.1,0.1-17.1,0.1-17.1v-0.4h0.9v0.4c0,0,0,14.2,0.1,17.3c0.1,2.9,0,2.1,1.9,2.7
		s2.7-2.5,2.7-2.5v-31h0.9V511c1.5,2.5,3.2,0,3.2,0s0.4-10.6-0.3-14.3C302.7,492.8,299.5,492.5,299.5,492.5z"/>
	<circle fill="#C4A65C" cx="317.2" cy="487.3" r="4.1"/>
	<path fill="#C4A65C" d="M322.1,492.5h-4.9l0,0h-5c0,0-3.2,0.3-4.1,4c-0.7,3.7-0.3,14.3-0.3,14.3s1.8,2.7,3.2,0v-11.9h0.9v31
		c0,0,0.6,3.1,2.7,2.7c1.9-0.6,1.8,0.3,1.9-2.7c0.1-2.9,0.1-17.1,0.1-17.1v-0.4h0.9v0.4c0,0,0,14.2,0.1,17.3c0.1,2.9,0,2.1,1.9,2.7
		s2.7-2.5,2.7-2.5v-31h0.9V511c1.5,2.5,3.2,0,3.2,0s0.4-10.6-0.3-14.3C325.3,492.8,322.1,492.5,322.1,492.5z"/>
	<circle fill="#C4A65C" cx="339.8" cy="487.3" r="4.1"/>
	<path fill="#C4A65C" d="M344.6,492.5h-4.9l0,0h-5c0,0-3.2,0.3-4.1,4c-0.7,3.7-0.3,14.3-0.3,14.3s1.8,2.7,3.2,0v-11.9h0.9v31
		c0,0,0.6,3.1,2.7,2.7c1.9-0.6,1.8,0.3,1.9-2.7c0.1-2.9,0.1-17.1,0.1-17.1v-0.4h0.9v0.4c0,0,0,14.2,0.1,17.3c0.1,2.9,0,2.1,1.9,2.7
		s2.7-2.5,2.7-2.5v-31.1h0.9v11.9c1.5,2.5,3.2,0,3.2,0s0.4-10.6-0.3-14.3C347.9,492.8,344.6,492.5,344.6,492.5z"/>
	<circle fill="#C4A65C" cx="361.9" cy="487.3" r="4.1"/>
	<path fill="#C4A65C" d="M366.6,492.5h-5l0,0h-4.9c0,0-3.2,0.3-4.1,4c-0.7,3.7-0.3,14.3-0.3,14.3s1.8,2.7,3.2,0v-11.9h0.9v31
		c0,0,0.6,3.1,2.7,2.7c1.9-0.6,1.8,0.3,1.9-2.7c0.1-2.9,0.1-17.1,0.1-17.1v-0.4h0.9v0.4c0,0,0,14.2,0.1,17.3c0.1,2.9,0,2.1,1.9,2.7
		c1.9,0.6,2.7-2.7,2.7-2.7v-31.1h0.9v11.9c1.5,2.5,3.2,0,3.2,0s0.4-10.6-0.3-14.3C369.8,492.8,366.6,492.5,366.6,492.5z"/>
	<circle fill="#C4A65C" cx="384.9" cy="487.4" r="4.1"/>
	<path fill="#C4A65C" d="M389.6,492.6h-5l0,0h-4.9c0,0-3.2,0.3-4.1,4c-0.7,3.7-0.3,14.3-0.3,14.3s1.8,2.5,3.2,0v-11.9h0.9v31.1
		c0,0,0.6,3.1,2.7,2.7c1.9-0.6,1.8,0.3,1.9-2.7c0.1-2.9,0.1-17.3,0.1-17.3v-0.4h0.9v0.4c0,0,0,14.2,0.1,17.3c0.1,2.9,0,2.2,1.9,2.7
		c1.9,0.6,2.7-2.7,2.7-2.7v-31.1h0.9V511c1.5,2.5,3.2,0,3.2,0s0.4-10.6-0.3-14.3C393,492.9,389.6,492.6,389.6,492.6z"/>
	<path fill="#C4A65C" d="M411.4,492.6h-4.9l0,0h-5c0,0-3.2,0.3-4.1,4c-0.7,3.7-0.3,14.3-0.3,14.3s1.8,2.5,3.2,0v-12.1h0.9v31.1
		c0,0,0.6,3.1,2.7,2.7c1.9-0.6,1.8,0.3,1.9-2.7c0.1-3.1,0.1-17.3,0.1-17.3v-0.6h0.9v0.4c0,0,0,14.2,0.1,17.3s0,2.2,1.9,2.7
		c1.9,0.6,2.7-2.7,2.7-2.7v-31.1h0.9v12.1c1.5,2.5,3.2,0,3.2,0s0.4-10.6-0.3-14.3C414.8,492.9,411.4,492.6,411.4,492.6z"/>
	<path fill="#C4A65C" d="M433.5,492.6h-4.9l0,0h-5c0,0-3.2,0.3-4.1,4c-0.7,3.7-0.3,14.3-0.3,14.3s1.8,2.5,3.2,0v-12.1h0.9v31.1
		c0,0,0.6,3.2,2.7,2.7c1.9-0.6,1.8,0.3,1.9-2.7c0.1-3.1,0.1-17.3,0.1-17.3v-0.6h0.9v0.6c0,0,0,14.2,0.1,17.3c0.1,2.9,0,2.2,1.9,2.7
		c1.9,0.6,2.7-2.7,2.7-2.7v-31.1h0.9v12.1c1.5,2.5,3.2,0,3.2,0s0.4-10.6-0.3-14.3C436.8,492.9,433.5,492.6,433.5,492.6z"/>
	<path fill="#C4A65C" d="M456.1,492.6h-5l0,0h-4.9c0,0-3.2,0.3-4.1,4c-0.7,3.7-0.3,14.3-0.3,14.3s1.8,2.5,3.2,0v-12.1h0.9v31.1
		c0,0,0.6,3.2,2.7,2.7c1.9-0.6,1.8,0.3,1.9-2.7c0.1-2.9,0.1-17.3,0.1-17.3v-0.6h0.9v0.6c0,0,0,14.2,0.1,17.3c0.1,3.1,0,2.2,1.9,2.7
		c1.9,0.6,2.7-2.7,2.7-2.7v-31.1h0.9v12.1c1.5,2.5,3.2,0,3.2,0s0.4-10.6-0.3-14.3C459.4,492.9,456.1,492.6,456.1,492.6z"/>
	<circle fill="#C4A65C" cx="473.8" cy="487.4" r="4.1"/>
	<path fill="#C4A65C" d="M482.7,496.6c-0.7-3.7-4.1-4-4.1-4h-5h-4.9c0,0-3.2,0.3-4.1,4c-0.7,3.7-0.3,14.3-0.3,14.3s1.8,2.5,3.2,0
		v-12.1h0.9v31.1c0,0,0.6,3.2,2.7,2.7c1.9-0.6,1.8,0.3,1.9-2.7c0.1-2.9,0.1-17.3,0.1-17.3v-0.6h0.9v0.6c0,0,0,14.2,0.1,17.3
		c0.1,3.1,0,2.2,1.9,2.7c1.9,0.6,2.7-2.7,2.7-2.7v-31.1h0.9v12.1c1.5,2.5,3.2,0,3.2,0S483.5,500.3,482.7,496.6z"/>
	<circle fill="#C4A65C" cx="49.3" cy="487" r="4.1"/>
	<path fill="#C4A65C" d="M54.1,492.2h-4.9l0,0h-5c0,0-3.2,0.3-4.1,4c-0.7,3.7-0.3,14.3-0.3,14.3s1.8,2.8,3.2,0.1v-11.8h0.9v30.8
		c0,0,0.6,3.1,2.7,2.5c1.9-0.6,1.8,0.3,1.9-2.8c0.1-2.9,0.1-17.1,0.1-17.1v-0.4h0.9v0.3c0,0,0,14.2,0.1,17.1c0.1,2.9,0,2.1,1.9,2.7
		c1.9,0.6,2.7-2.5,2.7-2.5v-31h0.9v11.8c1.5,2.5,3.2,0,3.2,0s0.4-10.8-0.3-14.5C57.4,492.6,54.1,492.2,54.1,492.2z"/>
	<circle fill="#C4A65C" cx="71.4" cy="487.2" r="4.1"/>
	<path fill="#C4A65C" d="M76.1,492.3h-4.9l0,0h-5c0,0-3.2,0.3-4.1,4c-0.7,3.7-0.3,14.3-0.3,14.3s1.8,2.7,3.2,0.1v-11.8h0.9v31
		c0,0,0.6,3.1,2.7,2.5c1.9-0.6,1.8,0.3,1.9-2.8c0.1-2.9,0.1-17.1,0.1-17.1v-0.4h0.9v0.3c0,0,0,14.2,0.1,17.1c0.1,2.9,0,2.1,1.9,2.7
		c1.9,0.6,2.7-2.5,2.7-2.5v-31h0.9v11.9c1.5,2.5,3.2,0,3.2,0s0.4-10.8-0.3-14.5C79.5,492.6,76.1,492.3,76.1,492.3z"/>
	<circle fill="#C4A65C" cx="93.9" cy="487.2" r="4.1"/>
	<path fill="#C4A65C" d="M98.7,492.3h-4.9l0,0h-5c0,0-3.2,0.3-4.1,4c-0.7,3.7-0.3,14.3-0.3,14.3s1.8,2.7,3.2,0.1v-11.9h0.9v31
		c0,0,0.6,3.1,2.7,2.5c1.9-0.6,1.8,0.3,1.9-2.8c0.1-3.1,0.1-17.1,0.1-17.1v-0.4h0.9v0.3c0,0,0,14.2,0.1,17.1c0.1,2.9,0,2.1,1.9,2.7
		c1.9,0.6,2.7-2.5,2.7-2.5v-31h0.9v11.9c1.5,2.5,3.2,0,3.2,0s0.4-10.8-0.3-14.5C102,492.6,98.7,492.3,98.7,492.3z"/>
	<circle fill="#C4A65C" cx="116.5" cy="487.2" r="4.1"/>
	<path fill="#C4A65C" d="M121.2,492.3h-5l0,0h-4.9c0,0-3.2,0.3-4.1,4c-0.7,3.7-0.3,14.3-0.3,14.3s1.8,2.7,3.2,0.1v-11.9h0.9v31
		c0,0,0.6,3.1,2.7,2.5c1.9-0.6,1.8,0.3,1.9-2.8c0.1-2.9,0.1-17.1,0.1-17.1v-0.4h0.9v0.4c0,0,0,14.2,0.1,17.1c0.1,2.9,0,2.1,1.9,2.7
		s2.7-2.5,2.7-2.5v-31h1v11.9c1.5,2.5,3.2,0,3.2,0s0.4-10.8-0.3-14.5C124.5,492.6,121.2,492.3,121.2,492.3z"/>
	<circle fill="#C4A65C" cx="138.5" cy="487.2" r="4.1"/>
	<path fill="#C4A65C" d="M143.3,492.3h-5l0,0h-4.9c0,0-3.2,0.3-4.1,4c-0.7,3.7-0.3,14.3-0.3,14.3s1.8,2.7,3.2,0.1v-11.9h0.9v31
		c0,0,0.6,3.1,2.7,2.5c1.9-0.6,1.8,0.3,1.9-2.8c0.1-2.9,0.1-17.1,0.1-17.1v-0.4h0.9v0.4c0,0,0,14.2,0.1,17.1c0.1,2.9,0,2.1,1.9,2.7
		s2.7-2.5,2.7-2.5v-31h1v11.9c1.5,2.5,3.2,0,3.2,0s0.4-10.8-0.3-14.5C146.6,492.6,143.3,492.3,143.3,492.3z"/>
	<circle fill="#C4A65C" cx="161.6" cy="487.2" r="4.1"/>
	<path fill="#C4A65C" d="M166.3,492.3h-5l0,0h-4.9c0,0-3.2,0.3-4.1,4c-0.7,3.7-0.3,14.3-0.3,14.3s1.8,2.7,3.2,0.1v-11.9h0.9v31
		c0,0,0.6,3.1,2.7,2.7c1.9-0.6,1.8,0.3,1.9-2.8c0.1-2.9,0.1-17.1,0.1-17.1v-0.4h0.9v0.4c0,0,0,14.2,0.1,17.1c0.1,3.1,0,2.1,1.9,2.7
		c1.9,0.6,2.7-2.5,2.7-2.5v-31h0.9v11.9c1.5,2.5,3.2,0,3.2,0s0.4-10.8-0.3-14.5C169.6,492.6,166.3,492.3,166.3,492.3z"/>
	<circle fill="#C4A65C" cx="183.3" cy="487.2" r="4.1"/>
	<path fill="#C4A65C" d="M188.2,492.3h-5l0,0h-4.9c0,0-3.2,0.3-4.1,4c-0.7,3.7-0.3,14.3-0.3,14.3s1.8,2.7,3.2,0.1v-11.9h0.9v31
		c0,0,0.6,3.1,2.7,2.7c1.9-0.6,1.8,0.3,1.9-2.8c0.1-3.1,0.1-17.1,0.1-17.1v-0.4h0.9v0.4c0,0,0,14.2,0.1,17.1c0.1,3.1,0,2.1,1.9,2.7
		c1.9,0.6,2.7-2.5,2.7-2.5v-31h0.9v11.9c1.5,2.5,3.2,0,3.2,0s0.4-10.8-0.3-14.5C191.4,492.6,188.2,492.3,188.2,492.3z"/>
	<circle fill="#C4A65C" cx="205.4" cy="487.2" r="4.1"/>
	<path fill="#C4A65C" d="M210.1,492.3h-5l0,0h-4.9c0,0-3.2,0.3-4.1,4c-0.7,3.7-0.3,14.3-0.3,14.3s1.8,2.7,3.2,0.1v-11.9h0.9v31
		c0,0,0.6,3.1,2.7,2.7c1.9-0.6,1.8,0.3,1.9-2.8c0.1-2.9,0.1-17.1,0.1-17.1v-0.4h0.9v0.4c0,0,0,14.2,0.1,17.1c0.1,3.1,0,2.1,1.9,2.7
		c1.9,0.6,2.7-2.5,2.7-2.5v-31h0.9v11.9c1.5,2.5,3.2,0,3.2,0s0.4-10.8-0.3-14.3C213.5,492.8,210.1,492.3,210.1,492.3z"/>
	<circle fill="#C4A65C" cx="228" cy="487.3" r="4.1"/>
	<path fill="#C4A65C" d="M232.7,492.5h-5l0,0h-4.9c0,0-3.2,0.3-4.1,4c-0.7,3.7-0.3,14.3-0.3,14.3s1.8,2.7,3.2,0.1v-11.9h0.9v31
		c0,0,0.6,3.1,2.7,2.7c1.9-0.6,1.8,0.3,1.9-2.8s0.1-17.1,0.1-17.1v-0.4h0.9v0.4c0,0,0,14.2,0.1,17.1c0.1,3.1,0,2.1,1.9,2.7
		c1.9,0.6,2.7-2.5,2.7-2.5v-31h0.9v11.9c1.5,2.5,3.2,0,3.2,0s0.4-10.8-0.3-14.3C236.1,492.8,232.7,492.5,232.7,492.5z"/>
	<circle fill="#C4A65C" cx="250.5" cy="487.3" r="4.1"/>
	<path fill="#C4A65C" d="M255.3,492.5h-5l0,0h-4.9c0,0-3.2,0.3-4.1,4c-0.7,3.7-0.3,14.3-0.3,14.3s1.8,2.7,3.2,0.1v-11.9h0.9v31
		c0,0,0.6,3.1,2.7,2.7c1.9-0.6,1.8,0.3,1.9-2.8c0.1-2.9,0.1-17.1,0.1-17.1v-0.4h0.9v0.4c0,0,0,14.2,0.1,17.3s0,2.1,1.9,2.7
		s2.7-2.5,2.7-2.5v-31h0.9V511c1.5,2.5,3.2,0,3.2,0s0.4-10.6-0.3-14.3C258.7,492.8,255.3,492.5,255.3,492.5z"/>
	
		<rect x="63.9" y="364.2" transform="matrix(-1 2.867369e-03 -2.867369e-03 -1 407.7032 794.8471)" fill="#FFFFFF" stroke="#8B8B88" stroke-miterlimit="10" width="278.9" height="67.1"/>
	<path fill="#8B8B88" d="M82.3,392.5c0-2.1,0.7-4,4.4-6.5c2.2-1.5,2.9-2.1,2.9-3.5c0-1.3-0.9-2.1-2.2-2.1c-1.2,0-2.5,0.7-3.4,2.1
		l-1.8-1.2c1.2-1.8,2.8-2.9,5.2-3.1c2.8,0,4.4,1.6,4.4,4c0,1.8-0.6,3.1-3.4,4.7c-2.2,1.5-3.4,2.5-3.7,3.5h7.1v2.1H82L82.3,392.5z"/>
	<path fill="#8B8B88" d="M93.9,385.7c0-4.4,2.1-7.4,5.6-7.4c3.5,0,5.6,2.9,5.6,7.4c0,4.4-2.1,7.4-5.6,7.4
		C96,393.1,93.9,390.1,93.9,385.7z M102.8,385.7c0-3.5-1.2-5.2-3.2-5.2c-2.1,0-3.2,1.6-3.2,5.2c0,3.5,1.2,5.3,3.2,5.3
		C101.6,390.9,102.8,389.2,102.8,385.7z"/>
	<path fill="#8B8B88" d="M106.9,382.9c0-2.8,1.3-4.6,3.5-4.6s3.5,1.8,3.5,4.4s-1.3,4.6-3.5,4.6S106.9,385.5,106.9,382.9z
		 M112.1,382.7c0-1.8-0.6-2.8-1.6-2.8c-1,0-1.6,1-1.6,2.8c0,1.8,0.6,2.8,1.6,2.8C111.6,385.5,112.1,384.5,112.1,382.7z M119.3,378.5
		h2.1l-8.4,14.2h-2.1L119.3,378.5z M118.1,388.5c0-2.8,1.3-4.6,3.5-4.6s3.5,1.8,3.5,4.4s-1.3,4.6-3.5,4.6S118.1,391.2,118.1,388.5z
		 M123.1,388.4c0-1.8-0.6-2.8-1.6-2.8s-1.6,1-1.6,2.8c0,1.8,0.6,2.8,1.6,2.8C122.7,391.2,123.1,390.1,123.1,388.4z"/>
	<path fill="#8B8B88" d="M131.8,385.5c0-4.7,2.8-7.4,6.3-7.4s6.3,2.5,6.3,7.4c0,4.7-2.8,7.4-6.3,7.4
		C134.8,392.9,131.8,390.4,131.8,385.5z M142.3,385.5c0-3.4-1.6-5.2-4-5.2c-2.4,0-4,1.8-4,5.2c0,3.4,1.6,5.2,4,5.2
		C140.7,390.7,142.3,388.9,142.3,385.5z"/>
	<path fill="#8B8B88" d="M147.2,378.5h9v2.2h-6.5v3.8h4.7v2.1h-4.7v6h-2.4L147.2,378.5z"/>
	<path fill="#8B8B88" d="M162.4,387.5v-9h2.4v8.8c0,2.2,0.9,3.4,3.1,3.4c2.2,0,3.1-1.3,3.1-3.4v-8.8h2.4v9c0,3.2-1.8,5.5-5.5,5.5
		C164,392.8,162.4,390.6,162.4,387.5z"/>
	<path fill="#8B8B88" d="M175.5,390.1h2.7v2.5h-2.7V390.1z"/>
	<path fill="#8B8B88" d="M180.1,389.2l1.9-1c0.9,1.6,2.2,2.5,4,2.5s2.9-0.6,2.9-1.9c0-1.2-0.9-1.8-3.2-2.5c-2.8-0.7-5-1.5-5-4.3
		c0-2.4,1.9-4,4.9-4c2.8,0,4.4,1.3,5.3,3.1l-1.8,1.2c-0.9-1.5-2.1-2.1-3.5-2.1c-1.6,0-2.5,0.6-2.5,1.6c0,1.3,1,1.8,3.4,2.5
		c2.7,0.7,4.9,1.6,4.9,4.3c0,2.4-1.9,4.1-5.3,4.1C182.9,392.8,180.9,391.3,180.1,389.2z"/>
	<path fill="#8B8B88" d="M193,390h2.7v2.5H193V390z"/>
	<path fill="#8B8B88" d="M202.8,378.3h5c3.1,0,5.5,1,5.5,4.3c0,3.4-2.7,4.4-5.5,4.4h-2.5v5.5h-2.4L202.8,378.3z M207.8,385
		c2.1,0,3.1-0.6,3.1-2.4c0-1.6-1-2.2-3.1-2.2h-2.7v4.6H207.8z"/>
	<path fill="#8B8B88" d="M214.9,385.4c0-4.7,2.8-7.4,6.3-7.4c3.5,0,6.3,2.5,6.3,7.4c0,4.7-2.8,7.4-6.3,7.4
		C217.7,392.6,214.9,390.1,214.9,385.4z M225.2,385.3c0-3.4-1.6-5.2-4-5.2c-2.4,0-4,1.8-4,5.2c0,3.4,1.6,5.2,4,5.2
		C223.7,390.6,225.2,388.6,225.2,385.3z"/>
	<path fill="#8B8B88" d="M230.2,378.2h5c3.1,0,5.5,1,5.5,4.3c0,3.4-2.7,4.4-5.5,4.4h-2.5v5.5h-2.4L230.2,378.2z M235.2,385
		c2.1,0,3.1-0.6,3.1-2.4c0-1.6-1-2.2-3.1-2.2h-2.7v4.6H235.2z"/>
	<path fill="#8B8B88" d="M242.3,387.2v-9h2.4v8.8c0,2.2,0.9,3.4,3.1,3.4c2.2,0,3.1-1.3,3.1-3.4v-8.8h2.4v9c0,3.2-1.8,5.5-5.5,5.5
		C243.9,392.6,242.3,390.4,242.3,387.2z"/>
	<path fill="#8B8B88" d="M256.3,378.2h2.4v11.9h6.5v2.2h-9L256.3,378.2z"/>
	<path fill="#8B8B88" d="M271.3,378h2.4l5,14.2h-2.5l-1.2-3.4h-5.5l-1.2,3.4h-2.2L271.3,378z M274.4,386.7l-1.9-5.8l0,0l-1.9,5.8
		H274.4z"/>
	<path fill="#8B8B88" d="M282.4,380.2H278V378h11.2v2.2h-4.4v11.9h-2.4V380.2z"/>
	<path fill="#8B8B88" d="M291.4,378h2.4v14.2h-2.4V378z"/>
	<path fill="#8B8B88" d="M296.6,385.1c0-4.7,2.8-7.4,6.3-7.4c3.5,0,6.3,2.5,6.3,7.4c0,4.7-2.8,7.4-6.3,7.4S296.6,389.8,296.6,385.1z
		 M306.9,385.1c0-3.4-1.6-5.2-4-5.2c-2.4,0-4,1.8-4,5.2s1.6,5.2,4,5.2S306.9,388.4,306.9,385.1z"/>
	<path fill="#8B8B88" d="M311.9,378h2.5l6.8,10.2l0,0V378h2.2v14.2h-2.2l-6.9-10.3l0,0v10.3H312L311.9,378z"/>
	<path fill="#8B8B88" d="M106,414.9l1.2-1.8c0.6,0.4,1.5,0.9,2.7,0.9c2.2,0,3.5-1.9,3.7-4.9c-0.9,0.9-2.2,1.5-3.7,1.5
		c-2.7,0-4.6-1.5-4.6-4.4c0-2.8,2.4-4.9,5.2-4.9c3.2,0,5.5,2.4,5.5,7.1c0,5-2.8,7.7-6,7.7C108.1,416.1,106.9,415.5,106,414.9z
		 M113.4,407.2c-0.1-2.8-1.5-3.8-3.2-3.8c-1.8,0-2.8,1-2.8,2.7c0,1.5,0.7,2.5,2.7,2.5C111.5,408.6,112.8,408,113.4,407.2z"/>
	<path fill="#8B8B88" d="M116.8,413.6l1.6-1.3c1,1.3,2.2,1.8,3.5,1.8c1.8,0,2.8-0.7,2.8-2.2c0-1.8-1.3-2.5-4-2.5h-0.6v-1.9h0.7
		c2.8,0,3.5-0.9,3.5-2.1c0-1.2-0.7-1.8-2.5-1.8c-1.2,0-2.5,0.4-3.2,1.3l-1.5-1.5c1.2-1.2,2.9-2.1,4.9-2.1c3.1,0,4.6,1.5,4.6,3.5
		c0,1.8-0.9,2.9-2.7,3.4c2.1,0.4,2.9,1.8,2.9,3.5c0,2.5-2.1,4.3-5.2,4.3C119.7,415.9,118,415.2,116.8,413.6z"/>
	<path fill="#8B8B88" d="M129,405.8c0-2.8,1.3-4.6,3.5-4.6c2.2,0,3.5,1.8,3.5,4.4s-1.3,4.6-3.5,4.6C130.4,410.3,129,408.4,129,405.8
		z M134.2,405.8c0-1.8-0.6-2.8-1.6-2.8c-1,0-1.6,1-1.6,2.8c0,1.8,0.6,2.8,1.6,2.8C133.8,408.6,134.2,407.5,134.2,405.8z
		 M141.3,401.5h2.1l-8.4,14.2h-2.1L141.3,401.5z M140.1,411.4c0-2.8,1.3-4.6,3.5-4.6c2.2,0,3.5,1.8,3.5,4.4s-1.3,4.6-3.5,4.6
		C141.4,415.8,140.1,414,140.1,411.4z M145.3,411.4c0-1.8-0.6-2.8-1.6-2.8s-1.6,1-1.6,2.8c0,1.8,0.6,2.8,1.6,2.8
		C144.8,414.2,145.3,413.1,145.3,411.4z"/>
	<path fill="#8B8B88" d="M154,408.6c0-4.7,2.8-7.4,6.3-7.4c3.5,0,6.3,2.5,6.3,7.4c0,4.7-2.8,7.4-6.3,7.4
		C156.8,415.9,154,413.3,154,408.6z M164.4,408.6c0-3.4-1.6-5.2-4-5.2c-2.4,0-4,1.8-4,5.2s1.6,5.2,4,5.2
		C162.8,413.7,164.4,411.8,164.4,408.6z"/>
	<path fill="#8B8B88" d="M169.3,401.3h9v2.2h-6.5v3.8h4.7v2.1h-4.7v6h-2.4L169.3,401.3z"/>
	<path fill="#8B8B88" d="M184.5,410.3v-9h2.4v8.8c0,2.2,0.9,3.4,3.1,3.4c2.2,0,3.1-1.3,3.1-3.4v-8.8h2.4v9c0,3.2-1.8,5.5-5.5,5.5
		C186.1,415.8,184.5,413.6,184.5,410.3z"/>
	<path fill="#8B8B88" d="M197.6,413h2.7v2.5h-2.7V413z"/>
	<path fill="#8B8B88" d="M202,412.1l1.9-1c0.9,1.6,2.2,2.5,4,2.5c1.8,0,2.9-0.6,2.9-1.9c0-1.2-0.9-1.8-3.2-2.5c-2.8-0.7-5-1.5-5-4.3
		c0-2.4,1.9-4,4.9-4c2.8,0,4.4,1.3,5.3,3.1l-1.8,1.2c-0.9-1.5-2.1-2.1-3.5-2.1c-1.6,0-2.5,0.6-2.5,1.6c0,1.3,1,1.8,3.4,2.5
		c2.7,0.7,4.9,1.6,4.9,4.3c0,2.4-1.9,4.1-5.3,4.1C205,415.8,202.9,414.3,202,412.1z"/>
	<path fill="#8B8B88" d="M215,413h2.7v2.5H215V413z"/>
	<path fill="#8B8B88" d="M223.3,401.2h2.4l1.8,7.4c0.3,1.2,0.6,2.2,0.7,3.2l0,0c0.1-1,0.4-2.2,0.7-3.2l1.6-7.4h2.4l1.8,7.4
		c0.3,1.2,0.6,2.1,0.7,3.2l0,0c0.1-1.2,0.4-1.9,0.7-3.2l1.8-7.5h2.2l-3.7,14.2h-2.1l-2.7-10.9l0,0l-2.7,10.9h-2.1L223.3,401.2z"/>
	<path fill="#8B8B88" d="M242.4,401.2h9.1v2.2h-6.8v3.5h5v2.1h-5v4.1h7.1v2.2h-9.6L242.4,401.2z"/>
	<path fill="#8B8B88" d="M258.2,401h2.4l5,14.2h-2.5l-1.2-3.4h-5.5l-1.2,3.4h-2.2L258.2,401z M261.3,409.9l-1.9-5.8l0,0l-1.9,5.8
		H261.3z"/>
	<path fill="#8B8B88" d="M267.6,401h2.4V413h6.5v2.2h-9L267.6,401z"/>
	<path fill="#8B8B88" d="M280.3,403.2h-4.4V401h11.2v2.2h-4.4v11.9h-2.4V403.2z"/>
	<path fill="#8B8B88" d="M289.2,401h2.4v5.6h6.5V401h2.4v14.2H298v-6.3h-6.5v6.3h-2.4V401z"/>
	
		<rect x="872.8" y="388.5" transform="matrix(-1 -2.112300e-03 2.112300e-03 -1 2023.6633 846.2314)" fill="#FFFFFF" stroke="#8B8B88" stroke-miterlimit="10" width="278.9" height="67.1"/>
	<path fill="#8B8B88" d="M891,412.8c0-1.9,1.5-3.1,3.4-3.8c-1.8-0.9-2.8-1.8-2.8-3.5c0-1.8,1.6-3.5,4.9-3.5s4.7,1.8,4.7,3.5
		c0,1.6-1,2.7-2.8,3.4c2.1,0.9,3.4,1.9,3.4,4c0,2.2-2.1,3.8-5.5,3.8C892.9,416.8,891,415.2,891,412.8z M898.8,405.6
		c0-0.9-0.7-1.8-2.5-1.8c-1.6,0-2.5,0.9-2.5,1.8c0,1.2,0.9,1.8,2.7,2.5C898.2,407.4,898.8,406.8,898.8,405.6z M899.4,412.7
		c0-1.3-1-2.1-3.2-2.9c-1.9,0.9-2.9,1.6-2.9,2.8c0,1.3,1.2,2.1,3.1,2.1C898.2,414.7,899.4,414,899.4,412.7z"/>
	<path fill="#8B8B88" d="M903.2,409.3c0-4.4,2.1-7.4,5.6-7.4c3.5,0,5.6,2.9,5.6,7.4c0,4.4-2.1,7.4-5.6,7.4S903.2,413.7,903.2,409.3z
		 M912.1,409.3c0-3.5-1.2-5.2-3.2-5.2c-2.1,0-3.2,1.6-3.2,5.2s1.2,5.3,3.2,5.3C910.9,414.6,912.1,413,912.1,409.3z"/>
	<path fill="#8B8B88" d="M916.4,406.6c0-2.8,1.3-4.6,3.5-4.6s3.5,1.8,3.5,4.4s-1.3,4.6-3.5,4.6C917.7,411.1,916.4,409.3,916.4,406.6
		z M921.5,406.6c0-1.8-0.4-2.8-1.6-2.8c-1,0-1.6,1-1.6,2.8c0,1.8,0.4,2.8,1.6,2.8C920.9,409.3,921.5,408.3,921.5,406.6z
		 M928.6,402.4h2.1l-8.6,14.2H920L928.6,402.4z M927.4,412.2c0-2.8,1.3-4.6,3.5-4.4c2.2,0,3.5,1.8,3.5,4.4s-1.3,4.6-3.5,4.6
		C928.7,416.7,927.4,414.9,927.4,412.2z M932.6,412.2c0-1.8-0.4-2.8-1.6-2.8c-1,0-1.6,1-1.6,2.8c0,1.8,0.4,2.8,1.6,2.8
		C932,415,932.6,413.9,932.6,412.2z"/>
	<path fill="#8B8B88" d="M941.3,409.4c0-4.7,2.8-7.4,6.5-7.4c3.5,0,6.3,2.7,6.3,7.4c0,4.7-2.8,7.4-6.3,7.4
		C944.1,416.8,941.3,414.2,941.3,409.4z M951.6,409.4c0-3.4-1.6-5.2-4-5.2c-2.4,0-4,1.8-4,5.2c0,3.4,1.6,5.2,4,5.2
		S951.6,412.8,951.6,409.4z"/>
	<path fill="#8B8B88" d="M956.6,402.4h9v2.2h-6.5v3.8h4.7v2.1h-4.7v6h-2.4L956.6,402.4z"/>
	<path fill="#8B8B88" d="M971.8,411.4v-9h2.4v8.8c0,2.2,0.9,3.4,3.1,3.4s3.1-1.2,3.1-3.4v-8.8h2.4v9c0,3.2-1.8,5.5-5.5,5.5
		C973.3,416.8,971.8,414.6,971.8,411.4z"/>
	<path fill="#8B8B88" d="M984.9,414.2h2.7v2.5h-2.7V414.2z"/>
	<path fill="#8B8B88" d="M989.3,413.3l1.9-1c0.9,1.6,2.2,2.5,3.8,2.5c1.8,0,2.9-0.6,2.9-1.8c0-1.2-0.9-1.8-3.2-2.5
		c-2.8-0.7-5-1.6-4.9-4.3c0-2.4,1.9-4,4.9-4c2.8,0,4.4,1.3,5.3,3.1l-1.8,1.2c-0.9-1.5-2.1-2.1-3.5-2.1c-1.6,0-2.5,0.6-2.5,1.6
		c0,1.3,1,1.8,3.4,2.5c2.7,0.7,4.9,1.6,4.9,4.3c0,2.4-1.9,4.1-5.3,4.1C992.3,417,990.2,415.5,989.3,413.3z"/>
	<path fill="#8B8B88" d="M1002.3,414.2h2.7v2.5h-2.7V414.2z"/>
	<path fill="#8B8B88" d="M1012.2,402.5h5c3.1,0,5.5,1,5.5,4.4s-2.7,4.4-5.6,4.4h-2.5v5.5h-2.4L1012.2,402.5z M1017.2,409.1
		c2.1,0,3.1-0.6,3.1-2.2s-0.9-2.2-3.1-2.2h-2.7v4.6L1017.2,409.1z"/>
	<path fill="#8B8B88" d="M1024.3,409.6c0-4.7,2.8-7.4,6.5-7.4c3.5,0,6.3,2.7,6.3,7.4c0,4.7-2.8,7.4-6.3,7.4
		C1027.1,417,1024.3,414.3,1024.3,409.6z M1034.6,409.6c0-3.4-1.6-5.2-4-5.2s-4,1.8-4,5.2s1.6,5.2,4,5.2S1034.6,413,1034.6,409.6z"
		/>
	<path fill="#8B8B88" d="M1039.6,402.5h5c3.1,0,5.5,1,5.5,4.4s-2.7,4.4-5.6,4.4h-2.5v5.5h-2.4L1039.6,402.5z M1044.6,409.3
		c2.1,0,3.1-0.6,3.1-2.2s-0.9-2.2-3.1-2.2h-2.7v4.6L1044.6,409.3z"/>
	<path fill="#8B8B88" d="M1051.7,411.6v-9h2.4v8.8c0,2.2,0.9,3.4,3.1,3.4c2.2,0,3.1-1.2,3.1-3.4v-8.8h2.4v9c0,3.2-1.8,5.5-5.5,5.5
		C1053.3,417,1051.7,414.7,1051.7,411.6z"/>
	<path fill="#8B8B88" d="M1065.7,402.7h2.4v11.9h6.5v2.2h-9L1065.7,402.7z"/>
	<path fill="#8B8B88" d="M1080.8,402.5h2.4l5,14.3h-2.5l-1.2-3.4h-5.5l-1.2,3.4h-2.2L1080.8,402.5z M1083.7,411.4l-1.9-5.8l0,0
		l-1.9,5.8H1083.7z"/>
	<path fill="#8B8B88" d="M1091.8,404.9h-4.4v-2.2h11.2v2.2h-4.4v11.9h-2.4V404.9z"/>
	<path fill="#8B8B88" d="M1100.8,402.7h2.4v14.2h-2.4V402.7z"/>
	<path fill="#8B8B88" d="M1105.8,409.7c0-4.7,2.8-7.4,6.5-7.4c3.5,0,6.3,2.7,6.3,7.4c0,4.7-2.8,7.4-6.3,7.4
		C1108.6,417.1,1105.8,414.6,1105.8,409.7z M1116.3,409.7c0-3.4-1.6-5.2-4-5.2c-2.4,0-4,1.8-4,5.2s1.6,5.2,4,5.2
		C1114.7,415,1116.3,413.1,1116.3,409.7z"/>
	<path fill="#8B8B88" d="M1121.3,402.7h2.5l6.6,10.2l0,0v-10.2h2.2v14.2h-2.2l-6.9-10.3l0,0v10.3h-2.2V402.7z"/>
	<path fill="#8B8B88" d="M927.6,427.4h-6.9v-2.1h9.4v1.9l-5.8,12.2h-2.5L927.6,427.4z"/>
	<path fill="#8B8B88" d="M931.4,429.6c0-2.8,1.3-4.6,3.5-4.6s3.5,1.8,3.5,4.4s-1.3,4.6-3.5,4.6S931.4,432.3,931.4,429.6z
		 M936.6,429.6c0-1.8-0.4-2.8-1.6-2.8c-1,0-1.6,1-1.6,2.8c0,1.8,0.4,2.8,1.6,2.8S936.6,431.3,936.6,429.6z M943.8,425.4h2.1
		l-8.6,14.2h-2.1L943.8,425.4z M942.6,435.2c0-2.8,1.3-4.6,3.5-4.4c2.2,0,3.5,1.8,3.5,4.4s-1.3,4.6-3.5,4.4
		C943.8,439.7,942.5,437.9,942.6,435.2z M947.6,435.2c0-1.8-0.4-2.8-1.6-2.8c-1,0-1.6,1-1.6,2.8c0,1.8,0.4,2.8,1.6,2.8
		C947.2,438,947.6,437,947.6,435.2z"/>
	<path fill="#8B8B88" d="M956.3,432.4c0-4.7,2.8-7.4,6.5-7.4c3.5,0,6.3,2.7,6.3,7.4c0,4.7-2.8,7.4-6.3,7.4
		C959.1,439.8,956.3,437.2,956.3,432.4z M966.8,432.4c0-3.4-1.6-5.2-4-5.2c-2.4,0-4,1.8-4,5.2c0,3.4,1.6,5.2,4,5.2
		S966.8,435.8,966.8,432.4z"/>
	<path fill="#8B8B88" d="M971.6,425.4h9v2.2h-6.5v3.8h4.7v2.1h-4.7v6h-2.4L971.6,425.4z"/>
	<path fill="#8B8B88" d="M986.8,434.5v-9h2.4v8.8c0,2.2,0.9,3.4,3.1,3.4s3.1-1.2,3.1-3.4v-8.8h2.4v9c0,3.2-1.8,5.5-5.5,5.5
		C988.5,439.8,986.8,437.6,986.8,434.5z"/>
	<path fill="#8B8B88" d="M1000,437.2h2.7v2.5h-2.7V437.2z"/>
	<path fill="#8B8B88" d="M1004.5,436.3l1.9-1c0.9,1.6,2.2,2.5,3.8,2.5c1.8,0,2.9-0.6,2.9-1.8c0-1.2-0.9-1.8-3.2-2.5
		c-2.8-0.7-5-1.6-4.9-4.3c0-2.4,1.9-4,4.9-4c2.8,0,4.4,1.3,5.3,3.1l-1.8,1.2c-0.9-1.5-2.1-2.1-3.5-2.1c-1.6,0-2.5,0.6-2.5,1.6
		c0,1.3,1,1.8,3.4,2.5c2.7,0.7,4.9,1.6,4.9,4.3c0,2.4-1.9,4.1-5.3,4.1C1007.3,440,1005.4,438.5,1004.5,436.3z"/>
	<path fill="#8B8B88" d="M1017.5,437.2h2.7v2.5h-2.7V437.2z"/>
	<path fill="#8B8B88" d="M1025.8,425.5h2.4l1.8,7.4c0.3,1.2,0.6,2.2,0.7,3.2l0,0c0.1-1,0.4-2.2,0.7-3.2l1.8-7.4h2.4l1.8,7.4
		c0.3,1.2,0.6,2.1,0.7,3.2l0,0c0.1-1.2,0.4-1.9,0.7-3.2l1.8-7.5h2.2l-3.8,14.2h-2.1l-2.5-10.9l0,0l-2.7,10.9h-2.1L1025.8,425.5z"/>
	<path fill="#8B8B88" d="M1044.9,425.5h9.1v2.2h-6.8v3.5h5v2.1h-5v4.1h7.1v2.2h-9.6L1044.9,425.5z"/>
	<path fill="#8B8B88" d="M1060.7,425.5h2.4l5,14.3h-2.5l-1.2-3.4h-5.5l-1.2,3.4h-2.2L1060.7,425.5z M1063.7,434.4l-1.9-5.8l0,0
		l-1.9,5.8H1063.7z"/>
	<path fill="#8B8B88" d="M1070.2,425.7h2.4v11.9h6.5v2.2h-9L1070.2,425.7z"/>
	<path fill="#8B8B88" d="M1082.8,427.9h-4.4v-2.2h11.2v2.2h-4.4v11.9h-2.4V427.9z"/>
	<path fill="#8B8B88" d="M1091.7,425.7h2.4v5.6h6.5v-5.6h2.4v14.2h-2.4v-6.3h-6.5v6.3h-2.4V425.7z"/>
</g>
</svg>
