<?xml version="1.0" encoding="utf-8"?>
<!-- Generator: Adobe Illustrator 18.0.0, SVG Export Plug-In . SVG Version: 6.00 Build 0)  -->
<!DOCTYPE svg PUBLIC "-//W3C//DTD SVG 1.1//EN" "http://www.w3.org/Graphics/SVG/1.1/DTD/svg11.dtd">
<svg version="1.1" id="Layer_1" xmlns="http://www.w3.org/2000/svg" xmlns:xlink="http://www.w3.org/1999/xlink" x="0px" y="0px"
	 viewBox="0 0 1280 800" enable-background="new 0 0 1280 800" xml:space="preserve">
<rect x="29.5" y="26.8" fill="#FFFFFF" width="238.5" height="74.5"/>
<rect x="29.5" y="26.8" fill="none" stroke="#8B8B88" stroke-miterlimit="10" width="238.5" height="74.5"/>
<path fill="#8B8B88" d="M61.2,49.6c0-5.5,3.2-8.6,7.4-8.6c4.1,0,7.4,2.9,7.4,8.6s-3.2,8.6-7.4,8.6C64.4,58.2,61.2,55.2,61.2,49.6z
	 M73.3,49.6c0-3.8-1.8-5.9-4.6-5.9c-2.8,0-4.6,2.1-4.6,5.9s1.8,6,4.6,6C71.4,55.7,73.3,53.5,73.3,49.6z"/>
<path fill="#8B8B88" d="M78.9,41.5h6.2c3.2,0,5.8,1,5.8,4.1c0,2.2-1.2,3.4-2.9,3.8l0,0c2.1,0.4,3.4,1.5,3.4,4c0,2.9-2.5,4.4-5.8,4.4
	h-6.6V41.5z M84.8,48.3c2.2,0,3.2-0.6,3.2-2.2c0-1.6-1-2.2-3.2-2.2h-3.2v4.4H84.8z M85.2,55.5c2.4,0,3.4-0.7,3.4-2.4
	c0-1.8-1.3-2.4-3.7-2.4h-3.2v4.9h3.5V55.5z"/>
<path fill="#8B8B88" d="M93.3,54l2.2-1.2c1,1.9,2.5,2.8,4.6,2.8c2.1,0,3.4-0.6,3.4-2.1s-1-2.1-3.7-2.8c-3.1-0.9-5.8-1.8-5.8-4.9
	c0-2.8,2.2-4.6,5.6-4.6c3.2,0,5.2,1.6,6.2,3.5l-2.2,1.2c-1-1.6-2.4-2.4-4.1-2.4c-1.8,0-2.8,0.7-2.8,1.9c0,1.5,1.2,2.1,3.8,2.8
	c3.1,0.9,5.6,1.9,5.6,5c0,2.7-2.2,4.7-6.2,4.7C96.6,58.2,94.4,56.4,93.3,54z"/>
<path fill="#8B8B88" d="M109.1,41.5h10.6V44h-7.8v4.1h5.8v2.4h-5.8v4.7h8.3v2.7h-11.1V41.5z"/>
<path fill="#8B8B88" d="M122.8,41.5h5.9c3.8,0,6.2,1.6,6.2,4.9c0,2.7-1.3,4.1-3.7,4.6l3.8,6.8h-2.9l-3.7-6.5h-2.8v6.6H123V41.5
	H122.8z M128.6,49c2.4,0,3.5-0.6,3.5-2.5c0-1.9-1.2-2.5-3.5-2.5h-2.9v5H128.6z"/>
<path fill="#8B8B88" d="M136.3,41.5h2.8l4.3,12.8l0,0l4.3-12.8h2.7l-5.8,16.4h-2.7L136.3,41.5z"/>
<path fill="#8B8B88" d="M152.6,41.5h10.6V44h-7.8v4.1h5.8v2.4h-5.8v4.7h8.3v2.7h-11.1L152.6,41.5L152.6,41.5z"/>
<path fill="#8B8B88" d="M166.3,41.5h5.9c3.8,0,6.2,1.6,6.2,4.9c0,2.7-1.3,4.1-3.7,4.6l3.8,6.8h-2.9l-3.7-6.5h-2.8v6.6h-2.7V41.5
	H166.3z M172.1,49c2.4,0,3.5-0.6,3.5-2.5c0-1.9-1.2-2.5-3.5-2.5h-2.9v5H172.1z"/>
<path fill="#8B8B88" d="M181.4,54.9h3.1v2.9h-3.1V54.9z"/>
<path fill="#8B8B88" d="M186.1,49.6c0-5.5,3.1-8.4,7.2-8.4c3.8,0,5.6,2.1,6.3,5L197,47c-0.6-2.2-1.6-3.2-3.7-3.2
	c-2.8,0-4.4,2.2-4.4,5.9c0,3.8,1.6,6,4.4,6c2.1,0,3.2-1,4-3.5l2.7,0.6c-0.7,3.2-2.8,5.5-6.6,5.5C189.1,58.2,186.1,55.2,186.1,49.6z"
	/>
<path fill="#8B8B88" d="M201.7,49.6c0-5.5,3.2-8.6,7.4-8.6s7.4,2.9,7.4,8.6s-3.2,8.6-7.4,8.6C205,58.2,201.7,55.2,201.7,49.6z
	 M213.7,49.6c0-3.8-1.8-5.9-4.6-5.9c-2.8,0-4.6,2.1-4.6,5.9s1.8,6,4.6,6C211.9,55.7,213.7,53.5,213.7,49.6z"/>
<path fill="#8B8B88" d="M219.4,41.5h3.7l4.4,13l0,0l4.3-13h3.7v16.4h-2.7V45.6l0,0c-0.3,1.2-0.6,2.2-1,3.4l-3.2,8.8h-2.5L223,49
	c-0.4-1.2-0.6-1.9-1-3.4l0,0v12.2h-2.5V41.5z"/>
<path fill="#8B8B88" d="M101.5,67.9h2.7l5.9,16.5h-2.8l-1.3-3.8h-6.2l-1.3,3.8h-2.7L101.5,67.9z M105,78.1l-2.2-6.6l0,0l-2.2,6.6
	H105z"/>
<path fill="#8B8B88" d="M111.6,78.4V68.1h2.8v10.2c0,2.5,1,4,3.5,4s3.5-1.5,3.5-4V68.1h2.7v10.3c0,3.7-2.1,6.2-6.3,6.2
	C113.5,84.7,111.6,82.1,111.6,78.4z"/>
<path fill="#8B8B88" d="M127.9,68.1h4.7c5.2,0,8.6,2.4,8.6,8.1c0,5.9-3.4,8.3-8.6,8.3h-4.7V68.1z M132.7,81.9c3.7,0,5.5-1.6,5.5-5.8
	c0-4-1.8-5.6-5.5-5.6h-2.1v11.4H132.7z"/>
<path fill="#8B8B88" d="M143.9,68.1h10.6v2.5h-7.8v4.1h5.8v2.4h-5.8v4.7h8.3v2.7h-11.1L143.9,68.1L143.9,68.1z"/>
<path fill="#8B8B88" d="M157.6,68.1h2.8l7.7,11.6l0,0V68.1h2.5v16.4h-2.5l-8-11.9l0,0v11.9h-2.5V68.1z"/>
<path fill="#8B8B88" d="M173.7,76.2c0-5.5,3.1-8.4,7.2-8.4c3.8,0,5.6,2.1,6.3,5l-2.7,0.7c-0.6-2.2-1.6-3.2-3.7-3.2
	c-2.8,0-4.4,2.2-4.4,5.9c0,3.8,1.6,6,4.4,6c2.1,0,3.2-1,4-3.5l2.7,0.6c-0.7,3.2-2.8,5.5-6.6,5.5C176.8,84.7,173.7,81.8,173.7,76.2z"
	/>
<path fill="#8B8B88" d="M190.4,68.1H201v2.5h-7.8v4.1h5.8v2.4h-5.8v4.7h8.3v2.7h-11.1V68.1z"/>
<polygon fill="#8B8B88" points="151.3,139 269.6,112.9 30.2,112.9 "/>
</svg>
